<svg width="34" height="34" viewBox="0 0 34 34" fill="none" xmlns="http://www.w3.org/2000/svg">
<path d="M17 34C26.3733 34 34 26.374 34 17C34 15.382 33.7741 13.7876 33.3269 12.2606C33.1066 11.5097 32.3225 11.0784 31.5696 11.2987C30.818 11.5184 30.3881 12.3052 30.6077 13.0561C30.9782 14.3247 31.1667 15.6522 31.1667 17C31.1667 24.8114 24.8114 31.1667 17 31.1667C9.18862 31.1667 2.83333 24.8114 2.83333 17C2.83333 9.18862 9.18862 2.83333 17 2.83333C19.8389 2.83333 22.5702 3.66341 24.8985 5.2333C25.5467 5.67082 26.428 5.49892 26.8648 4.85077C27.302 4.20192 27.1314 3.32135 26.4826 2.88418C23.6845 0.997477 20.4057 0 17 0C7.62669 0 0 7.626 0 17C0 26.374 7.62669 34 17 34Z" fill="#F65414"/>
<path d="M31.5903 3.4054L17.0587 17.6567L12.4097 13.0978C11.8582 12.5573 10.9648 12.5573 10.4134 13.0978C9.86222 13.6387 9.86222 14.5149 10.4134 15.0558L16.0605 20.5943C16.3366 20.8651 16.6972 21 17.0587 21C17.4203 21 17.7808 20.8651 18.0569 20.5943L33.5866 5.36336C34.1378 4.82249 34.1378 3.94627 33.5866 3.4054C33.0352 2.86487 32.1418 2.86487 31.5903 3.4054Z" fill="#F65414"/>
</svg>
