<svg width="287" height="173" viewBox="0 0 287 173" fill="none" xmlns="http://www.w3.org/2000/svg">
<path opacity="0.5" d="M15.3935 84.265C20.1351 81.2194 25.4367 79.6025 30.9997 79.3393C32.9038 65.5399 39.4376 53.6581 50.4142 46.5516C57.0973 42.2275 64.6764 40.1595 72.5542 40.0843C73.4503 33.241 76.6611 27.3377 82.0748 23.8408C93.6488 16.3583 110.861 22.6 120.53 37.753C127.213 48.2436 128.52 60.2758 124.861 69.1496C126.28 71.0296 127.624 72.9472 128.931 74.9777C130.947 78.1737 132.739 81.4074 134.27 84.6786C140.244 84.7538 146.553 87.1979 152.116 91.5595C163.578 86.1451 179.259 92.4996 188.332 106.713C195.015 117.203 196.322 129.235 192.663 138.109C192.663 138.109 288.802 155.969 286.823 155.969L16.5135 152.285C13.8627 152.285 11.3612 150.931 9.94247 148.712C9.94247 148.712 9.94247 148.675 9.90513 148.675C-5.17844 124.836 -2.78896 95.9964 15.3935 84.265Z" fill="#C8C8C8"/>
<path d="M62.3079 18.0943C62.3079 18.1695 62.3891 18.2448 62.511 18.2824L65.3542 18.6962C65.8823 19.8623 66.6134 20.9156 67.507 21.8937L66.6946 24.4517C66.654 24.527 66.6946 24.6398 66.7759 24.6775L69.6191 26.5207C69.7004 26.5584 69.8222 26.5584 69.9034 26.5207L72.2593 24.9784C73.559 25.4674 74.8994 25.7308 76.2398 25.806L77.6208 28.1383C77.6615 28.2136 77.7833 28.2512 77.8645 28.2512L81.2764 27.7245C81.3577 27.7245 81.4389 27.6493 81.4795 27.5364L81.9263 24.9032C83.1855 24.4141 84.3228 23.737 85.3788 22.9094L88.1409 23.6618C88.2221 23.6994 88.3439 23.6618 88.3846 23.5865L90.3748 20.9533C90.4155 20.878 90.4155 20.7652 90.3748 20.6899L88.7095 18.5081C89.2375 17.3043 89.5219 16.0629 89.6031 14.8215L92.1214 13.5425C92.2026 13.5049 92.2433 13.392 92.2433 13.3168L91.6746 10.1569C91.6746 10.0816 91.5934 10.0064 91.4715 9.96878L88.6283 9.55498C88.1002 8.38882 87.3691 7.33552 86.4755 6.35745L87.2879 3.79942C87.3285 3.72418 87.2879 3.61133 87.2066 3.57371L84.3634 1.73042C84.2822 1.69281 84.1603 1.69281 84.0791 1.73042L81.7232 3.27277C80.4235 2.78373 79.0831 2.5204 77.7427 2.44517L76.3617 0.112847C76.3211 0.0376109 76.1992 -7.62939e-06 76.118 -7.62939e-06L72.7061 0.526646C72.6248 0.526646 72.5436 0.601882 72.503 0.714736L72.0562 3.348C70.797 3.83704 69.6597 4.51416 68.6037 5.34176L65.8417 4.5894C65.7604 4.55178 65.6386 4.5894 65.598 4.66463L63.6077 7.2979C63.5671 7.37314 63.5671 7.48599 63.6077 7.56123L65.273 9.74307C64.745 10.9469 64.4607 12.1882 64.3794 13.4296L61.8611 14.7087C61.7799 14.7463 61.7393 14.8591 61.7393 14.9344L62.3079 18.0943Z" fill="#B9BCC5"/>
<path d="M75.265 16.9281C73.8028 16.1382 73.1123 14.483 73.7215 12.9782C74.412 11.323 76.4429 10.4954 78.2301 11.135C79.0831 11.4359 79.7736 12.0378 80.1392 12.8278C80.5047 13.6177 80.5453 14.483 80.2204 15.2729C79.5299 16.9281 77.499 17.7557 75.7118 17.1162C75.59 17.0786 75.4275 17.0034 75.265 16.9281ZM78.3114 11.9625C78.1895 11.8873 78.0676 11.8497 77.9458 11.8121C76.5648 11.323 75.0213 11.9625 74.4933 13.2416C73.9652 14.5206 74.6557 15.9501 76.0367 16.4391C77.4178 16.9281 78.9612 16.2886 79.4893 15.0096C79.733 14.4077 79.733 13.7306 79.4486 13.1287C79.2049 12.6397 78.7988 12.2259 78.3114 11.9625Z" fill="#D7D9E0"/>
<path d="M72.8681 21.0285C72.6244 20.878 72.3807 20.7652 72.137 20.5771C72.0557 20.5395 71.9745 20.4642 71.8933 20.4266C71.5277 20.1633 71.2028 19.9 70.8778 19.599L70.8372 19.5614C70.7966 19.5238 70.7966 19.5238 70.756 19.4862C70.6747 19.4109 70.6747 19.3357 70.7153 19.2605L70.756 19.2228C70.8372 19.1476 70.959 19.1476 71.0403 19.2228C71.4465 19.599 71.8526 19.9752 72.3401 20.2761C74.6959 21.8185 77.6204 22.0442 80.1387 21.1037C81.5197 20.5771 82.7789 19.7119 83.7131 18.4705C83.8755 18.2448 84.038 18.0567 84.1599 17.831C85.0941 16.3262 85.419 14.5958 85.0941 12.8654C84.7285 10.8716 83.5506 9.14118 81.7634 7.97502C78.1078 5.56746 72.9899 6.39506 70.431 9.78069C70.2685 10.0064 70.1061 10.1945 69.9842 10.4202C69.4156 11.3983 69.05 12.4516 68.9688 13.5425C68.9688 13.5801 68.9688 13.5801 68.9282 13.6177C68.8875 13.693 68.8063 13.7306 68.7251 13.7306C68.6032 13.7306 68.522 13.6177 68.522 13.5425C68.6032 12.3763 68.9688 11.2478 69.6187 10.2697C69.7405 10.044 69.903 9.81831 70.0655 9.5926C72.7869 6.01888 78.1484 5.19128 81.9665 7.7117C83.8349 8.91548 85.0535 10.7588 85.4596 12.8278C85.7846 14.6334 85.4596 16.4767 84.4848 18.0567C84.3223 18.2824 84.2005 18.5081 83.9974 18.7338C82.6976 20.4642 80.7073 21.5928 78.4734 21.969C76.5237 22.2323 74.574 21.8937 72.8681 21.0285Z" fill="#D7D9E0"/>
<path d="M40.1708 15.3858C40.1708 15.461 40.2521 15.4987 40.2927 15.4987L42.2017 15.7996C42.5673 16.552 43.0547 17.3043 43.664 17.9438L43.1359 19.6743C43.1359 19.7495 43.1359 19.7871 43.1765 19.8247L45.0856 21.0661C45.1262 21.1037 45.2074 21.1037 45.2887 21.0661L46.8728 20.0128C47.7257 20.3514 48.6193 20.5019 49.5129 20.5771L50.4471 22.157C50.4878 22.1947 50.5284 22.2323 50.6096 22.2323L52.8842 21.8561C52.9655 21.8561 53.0061 21.7809 53.0061 21.7432L53.331 19.9752C54.1434 19.6366 54.9557 19.1852 55.6462 18.621L57.5147 19.11C57.5959 19.11 57.6365 19.11 57.6771 19.0724L59.0175 17.3043C59.0581 17.2667 59.0581 17.1915 59.0175 17.1162L57.8802 15.6491C58.2458 14.8592 58.4083 14.0316 58.4895 13.204L60.1954 12.3387C60.2361 12.3011 60.2767 12.2635 60.2767 12.1883L59.8705 10.0817C59.8705 10.0064 59.7893 9.96882 59.7486 9.96882L57.8396 9.66787C57.474 8.91551 56.9866 8.16315 56.3774 7.52365L56.9054 5.79322C56.9054 5.71799 56.9054 5.68037 56.8648 5.64275L54.9557 4.40136C54.9151 4.36374 54.8339 4.36374 54.7526 4.40136L53.1685 5.45466C52.3156 5.1161 51.422 4.96563 50.5284 4.89039L49.5942 3.31043C49.5536 3.27282 49.5129 3.2352 49.4317 3.2352L47.1571 3.61138C47.0759 3.61138 47.0352 3.68661 47.0352 3.72423L46.7103 5.49228C45.8979 5.83084 45.0856 6.28226 44.3951 6.84652L42.5267 6.35749C42.4454 6.35749 42.4048 6.35749 42.3642 6.39511L41.0238 8.16315C40.9832 8.20077 40.9832 8.27601 41.0238 8.35124L42.1611 9.81835C41.7955 10.6083 41.6331 11.4359 41.5518 12.2635L39.8459 13.1287C39.8053 13.1663 39.7646 13.204 39.7646 13.2792L40.1708 15.3858Z" fill="#B9BCC5"/>
<path d="M48.8222 14.6335C48.3755 14.4077 48.0505 14.0316 47.8474 13.6178C47.6037 13.0911 47.5631 12.4892 47.8068 11.9249C48.2942 10.7964 49.6346 10.2321 50.8531 10.6835C52.0717 11.135 52.6809 12.3764 52.1935 13.5049C51.9498 14.0692 51.503 14.483 50.9344 14.7087C50.3657 14.9344 49.7158 14.972 49.1066 14.7463C49.0253 14.7463 48.9035 14.6711 48.8222 14.6335ZM50.8531 11.323C50.7719 11.2854 50.6907 11.2478 50.6094 11.2102C49.7158 10.8716 48.7004 11.323 48.3755 12.1506C48.213 12.5644 48.213 12.9783 48.4161 13.3921C48.6192 13.7682 48.9441 14.0692 49.3909 14.2573C49.8377 14.4077 50.2845 14.4077 50.7313 14.2197C51.1375 14.0316 51.503 13.7306 51.6655 13.3168C51.9092 12.5644 51.5843 11.6992 50.8531 11.323Z" fill="#D7D9E0"/>
<path d="M47.1163 17.4548C46.9538 17.3795 46.7913 17.2667 46.6289 17.1538C46.3039 16.9281 45.979 16.7024 45.7353 16.4391L45.6947 16.4015C45.6134 16.2886 45.5728 16.1757 45.654 16.0629C45.654 16.0253 45.6947 16.0253 45.7353 15.9877C45.8571 15.8748 46.0602 15.8748 46.1821 15.9877C46.4258 16.251 46.7101 16.4767 47.0351 16.6648L47.0757 16.7024C47.8068 17.1538 48.6191 17.4548 49.5127 17.53C49.9595 17.5676 50.447 17.5676 50.9344 17.4924H50.975C52.356 17.2667 53.5745 16.5519 54.3869 15.4986C54.5087 15.3481 54.59 15.2353 54.6712 15.0848C55.2805 14.1068 55.4836 12.9782 55.2805 11.8497C55.0368 10.5707 54.265 9.44212 53.1277 8.68976C51.9904 7.9374 50.5688 7.63646 49.1878 7.86217C47.8068 8.08787 46.5883 8.80262 45.7759 9.85592C45.654 10.0064 45.5728 10.1192 45.4916 10.2697C45.126 10.9092 44.8823 11.5863 44.8417 12.3011C44.8417 12.3387 44.8417 12.3763 44.8011 12.4139C44.7605 12.5268 44.6386 12.5644 44.5167 12.5644C44.3543 12.5644 44.2324 12.4139 44.2324 12.2635C44.3137 11.4735 44.5574 10.6835 44.9635 10.0064C45.0448 9.85592 45.1666 9.70545 45.2885 9.55498C46.1821 8.3512 47.5631 7.56122 49.1066 7.33551C50.65 7.07219 52.2341 7.41075 53.4933 8.27596C54.7931 9.10356 55.646 10.3826 55.8897 11.8121C56.1334 13.0534 55.8897 14.3325 55.1992 15.4234C55.118 15.5739 54.9961 15.7619 54.8743 15.9124C53.0871 18.1695 49.7158 18.809 47.1163 17.4548Z" fill="#D7D9E0"/>
<path d="M24.3708 128.842C24.3708 130.422 25.7518 131.701 27.4577 131.701H193.829C195.534 131.701 196.915 130.422 196.915 128.842L198.296 40.2889C198.296 38.709 196.306 35.6619 192.651 35.8876L30.0573 32.013C27.9452 31.9753 25.8736 32.7277 24.3708 34.1196C22.8679 35.5114 22.0556 37.3923 22.0962 39.3861L24.3708 128.842Z" fill="#3D3D3D"/>
<path d="M17.6688 139.036H201.708C202.033 139.036 202.318 138.773 202.318 138.472V131.814C202.318 131.513 202.033 131.249 201.708 131.249H17.6688C17.3439 131.249 17.0596 131.513 17.0596 131.814V138.51C17.0596 138.811 17.3439 139.036 17.6688 139.036Z" fill="#3D3D3D"/>
<path d="M185.584 122.522H35.0943C33.2665 122.522 31.7637 121.13 31.7637 119.437V25.3536C31.7637 20.3772 35.7236 18.32 39.2782 18.32H185.584C187.411 18.32 188.914 19.7119 188.914 21.4047V119.437C188.914 121.13 187.411 122.522 185.584 122.522Z" fill="#B9BCC5"/>
<path d="M188.748 32.4627V24.9934C188.748 21.3156 185.537 18.2445 181.594 18.2445H38.628C34.685 18.2445 31.6362 21.3156 31.6362 24.9934V32.4627H188.748Z" fill="#8F8F8F"/>
<path d="M41.5116 28.1383C42.9248 28.1383 44.0705 27.0772 44.0705 25.7683C44.0705 24.4595 42.9248 23.3984 41.5116 23.3984C40.0983 23.3984 38.9526 24.4595 38.9526 25.7683C38.9526 27.0772 40.0983 28.1383 41.5116 28.1383Z" fill="#C8C8C8"/>
<path d="M58.8553 28.2887C60.2686 28.2887 61.4142 27.2277 61.4142 25.9188C61.4142 24.61 60.2686 23.5489 58.8553 23.5489C57.4421 23.5489 56.2964 24.61 56.2964 25.9188C56.2964 27.2277 57.4421 28.2887 58.8553 28.2887Z" fill="#C8C8C8"/>
<path d="M49.7977 28.1383C51.211 28.1383 52.3566 27.0772 52.3566 25.7683C52.3566 24.4595 51.211 23.3984 49.7977 23.3984C48.3844 23.3984 47.2388 24.4595 47.2388 25.7683C47.2388 27.0772 48.3844 28.1383 49.7977 28.1383Z" fill="#C8C8C8"/>
<path opacity="0.5" d="M182.01 54.0948H143.179C142.895 54.0948 142.651 53.8691 142.651 53.6058V49.1292C142.651 48.8659 142.895 48.6402 143.179 48.6402H182.01C182.294 48.6402 182.538 48.8659 182.538 49.1292V53.6058C182.497 53.9067 182.294 54.0948 182.01 54.0948Z" fill="#FBBA0E"/>
<path opacity="0.5" d="M135.259 55.7124C137.839 55.7124 139.93 53.7755 139.93 51.3863C139.93 48.9971 137.839 47.0602 135.259 47.0602C132.68 47.0602 130.588 48.9971 130.588 51.3863C130.588 53.7755 132.68 55.7124 135.259 55.7124Z" fill="#FBBA0E"/>
<path opacity="0.5" d="M182.009 66.1326H143.178C142.894 66.1326 142.65 65.9069 142.65 65.6436V61.1669C142.65 60.9036 142.894 60.6779 143.178 60.6779H182.009C182.293 60.6779 182.537 60.9036 182.537 61.1669V65.6436C182.497 65.9069 182.293 66.1326 182.009 66.1326Z" fill="#FBBA0E"/>
<path opacity="0.5" d="M135.258 67.7501C137.838 67.7501 139.929 65.8133 139.929 63.424C139.929 61.0348 137.838 59.098 135.258 59.098C132.678 59.098 130.587 61.0348 130.587 63.424C130.587 65.8133 132.678 67.7501 135.258 67.7501Z" fill="#FBBA0E"/>
<path opacity="0.5" d="M182.009 78.1703H143.178C142.894 78.1703 142.65 77.9446 142.65 77.6813V73.2048C142.65 72.9415 142.894 72.7158 143.178 72.7158H182.009C182.293 72.7158 182.537 72.9415 182.537 73.2048V77.6813C182.497 77.9446 182.293 78.1703 182.009 78.1703Z" fill="#FBBA0E"/>
<path opacity="0.5" d="M135.258 79.7879C137.838 79.7879 139.929 77.8511 139.929 75.4619C139.929 73.0726 137.838 71.1358 135.258 71.1358C132.678 71.1358 130.587 73.0726 130.587 75.4619C130.587 77.8511 132.678 79.7879 135.258 79.7879Z" fill="#FBBA0E"/>
<path opacity="0.5" d="M182.01 90.9981H143.179C142.895 90.9981 142.651 90.7724 142.651 90.5091V86.0325C142.651 85.7692 142.895 85.5435 143.179 85.5435H182.01C182.294 85.5435 182.538 85.7692 182.538 86.0325V90.5091C182.497 90.81 182.294 90.9981 182.01 90.9981Z" fill="#FBBA0E"/>
<path opacity="0.5" d="M135.259 92.6157C137.839 92.6157 139.93 90.6788 139.93 88.2896C139.93 85.9004 137.839 83.9635 135.259 83.9635C132.68 83.9635 130.588 85.9004 130.588 88.2896C130.588 90.6788 132.68 92.6157 135.259 92.6157Z" fill="#FBBA0E"/>
<path opacity="0.5" d="M182.009 103.036H143.178C142.894 103.036 142.65 102.81 142.65 102.547V98.0703C142.65 97.807 142.894 97.5813 143.178 97.5813H182.009C182.293 97.5813 182.537 97.807 182.537 98.0703V102.547C182.497 102.81 182.293 103.036 182.009 103.036Z" fill="#FBBA0E"/>
<path opacity="0.5" d="M135.258 104.654C137.838 104.654 139.929 102.717 139.929 100.327C139.929 97.9382 137.838 96.0013 135.258 96.0013C132.678 96.0013 130.587 97.9382 130.587 100.327C130.587 102.717 132.678 104.654 135.258 104.654Z" fill="#FBBA0E"/>
<path opacity="0.5" d="M182.009 115.036H143.178C142.894 115.036 142.65 114.81 142.65 114.547V110.07C142.65 109.807 142.894 109.581 143.178 109.581H182.009C182.293 109.581 182.537 109.807 182.537 110.07V114.547C182.497 114.848 182.293 115.036 182.009 115.036Z" fill="#FBBA0E"/>
<path opacity="0.5" d="M135.258 116.654C137.838 116.654 139.929 114.717 139.929 112.328C139.929 109.938 137.838 108.001 135.258 108.001C132.678 108.001 130.587 109.938 130.587 112.328C130.587 114.717 132.678 116.654 135.258 116.654Z" fill="#FBBA0E"/>
<path d="M82.3726 38.7466V48.8282C82.3726 50.2953 83.6317 51.4991 85.2158 51.5744L100.894 52.2891C102.6 52.3643 104.022 51.1229 104.022 49.543V39.4237C104.022 37.9566 102.763 36.7528 101.179 36.6776L85.5001 35.9629C83.7942 35.9252 82.3726 37.1666 82.3726 38.7466Z" fill="#3A9CD7"/>
<g opacity="0.73">
<g opacity="0.73">
<path opacity="0.73" d="M100.164 44.3893C100.895 42.057 99.4732 39.6118 96.9955 38.9347C94.5179 38.2575 91.9183 39.6118 91.1466 41.9817C90.4154 44.3141 91.8371 46.7592 94.3148 47.4363C96.8331 48.0759 99.4326 46.7216 100.164 44.3893ZM91.8371 42.1322C92.4463 40.1385 94.6803 38.9723 96.7925 39.5366C98.9046 40.1008 100.123 42.2074 99.5139 44.2012C98.9046 46.195 96.6706 47.3611 94.5585 46.7968C92.4057 46.2326 91.1872 44.1636 91.8371 42.1322Z" fill="white"/>
</g>
<g opacity="0.73">
<path opacity="0.73" d="M91.9989 45.2921L86.3124 48.6025C86.0687 48.753 85.9875 49.0539 86.15 49.3173L86.1906 49.3549C86.353 49.5806 86.5968 49.6182 86.7998 49.5054L92.202 45.6683L91.9989 45.2921Z" fill="white"/>
</g>
</g>
<path d="M59.3423 38.4081V49.3173C59.3423 50.5963 60.439 51.6873 61.82 51.7249L76.5236 52.3644C78.0265 52.4396 79.245 51.3111 79.245 49.9568V38.4081C79.245 37.0538 78.0671 36.0005 76.6455 36.0005H61.9418C60.5202 35.9629 59.3423 37.0538 59.3423 38.4081Z" fill="#3A9CD7"/>
<path d="M64.6633 49.6934C64.4602 49.6934 64.2977 49.6934 64.1759 49.6934C63.9728 49.6934 63.7697 49.543 63.7697 49.3549C63.7291 49.1668 63.8915 48.9787 64.0946 48.9035C65.2319 48.6025 66.4505 48.1135 67.344 47.6997C63.0386 47.3611 62.145 45.3297 61.9825 44.3893C61.5763 42.0194 63.7697 39.3485 66.9379 38.408C70.1467 37.4676 73.4367 37.8061 75.2645 39.2732C76.2393 40.0632 77.2954 41.5679 76.808 44.2388C75.8738 49.2796 67.344 49.6934 64.6633 49.6934ZM70.4716 46.9849L69.0906 47.6997C69.0094 47.7373 67.8315 48.3392 66.3286 48.9411C69.6593 48.753 75.3051 47.8878 75.9956 44.126C76.3612 42.2451 75.9144 40.778 74.7365 39.7999C72.8681 38.2952 69.6186 38.3704 67.1816 39.0852C64.4196 39.9128 62.3887 42.2451 62.7542 44.2764C63.0792 46.0821 65.3131 47.0978 68.8875 47.0226L70.4716 46.9849Z" fill="#E8E8EF"/>
<path d="M38.2616 37.3923C36.3525 37.43 34.8497 38.8594 34.8497 40.6275V50.2954C34.809 51.6496 35.987 52.7782 37.4492 52.7782H52.8027C54.1838 52.7782 55.321 51.7625 55.4023 50.4834L55.8085 39.5742C55.8491 38.3328 54.8336 37.2419 53.4932 37.0914L38.2616 37.3923Z" fill="#3A9CD7"/>
<path d="M39.9668 50.1073C39.5606 50.1073 39.1951 49.9568 38.9108 49.7311C38.5858 49.4678 38.4233 49.0916 38.4233 48.6778V40.3266C38.4233 40.0632 38.667 39.8375 38.9514 39.8375C39.2357 39.8375 39.4794 40.0632 39.4794 40.3266V48.6778C39.4794 48.7907 39.52 48.9411 39.6419 49.0164C39.7637 49.0916 39.8856 49.1668 40.0074 49.1292L50.6899 48.5273C50.9743 48.5273 51.1773 48.3016 51.1773 48.0759V39.8751C51.1773 39.7247 51.1367 39.6118 51.0149 39.5366C50.893 39.4613 50.7712 39.4237 50.6087 39.4237L41.7134 40.2513C41.4697 40.2889 41.3478 40.4394 41.3072 40.5147C41.2666 40.5899 41.1854 40.778 41.3478 40.9661L44.7191 45.2922C44.8003 45.405 44.9628 45.4803 45.1253 45.4803C45.2878 45.4803 45.4502 45.405 45.5315 45.2922L49.2683 40.7027C49.4308 40.477 49.7557 40.4394 49.9994 40.5899C50.2431 40.7404 50.2837 41.0413 50.1213 41.267L46.3844 45.8564C46.1001 46.2326 45.6533 46.4207 45.1659 46.4207C44.6785 46.4207 44.2317 46.195 43.9067 45.8188L40.5355 41.4927C40.2105 41.0789 40.1293 40.5523 40.373 40.0632C40.6167 39.5742 41.0635 39.2733 41.6322 39.2356L50.5275 38.408C50.9743 38.3704 51.3804 38.4833 51.7054 38.7842C52.0303 39.0475 52.2334 39.4613 52.2334 39.8375V48.0383C52.2334 48.7907 51.5835 49.4302 50.7712 49.4678L40.0887 50.0697C40.0481 50.1073 40.0074 50.1073 39.9668 50.1073Z" fill="#E8E8EF"/>
<path d="M105.646 38.7466V48.8282C105.646 50.2953 106.906 51.4991 108.49 51.5744L124.168 52.2891C125.874 52.3643 127.296 51.1229 127.296 49.543V39.4237C127.296 37.9566 126.037 36.7528 124.453 36.6776L108.774 35.9629C107.068 35.9252 105.646 37.1666 105.646 38.7466Z" fill="#3A9CD7"/>
<g opacity="0.69">
<path opacity="0.69" d="M116.491 50.6339C115.882 50.6339 115.314 50.3329 114.989 49.8439C113.242 47.173 111.13 43.6369 111.13 42.0194C111.13 39.499 113.526 37.4676 116.491 37.4676C119.457 37.4676 121.853 39.499 121.853 42.0194C121.853 43.6369 119.781 47.173 117.994 49.8439C117.669 50.3329 117.101 50.6339 116.491 50.6339ZM116.491 38.1823C113.973 38.1823 111.942 39.9128 111.942 42.0194C111.942 43.1103 113.283 45.8564 115.679 49.4677C115.842 49.7311 116.167 49.8815 116.491 49.8815C116.816 49.8815 117.141 49.7311 117.304 49.4677C119.66 45.8564 121.041 43.1103 121.041 42.0194C121.041 39.9128 119.01 38.1823 116.491 38.1823Z" fill="#E8E8EF"/>
<path opacity="0.69" d="M116.086 45.2169C114.258 45.2169 112.755 43.825 112.755 42.1322C112.755 41.9441 112.917 41.7561 113.161 41.7561C113.364 41.7561 113.567 41.9065 113.567 42.1322C113.567 43.4489 114.705 44.5022 116.126 44.5022C117.548 44.5022 118.685 43.4489 118.685 42.1322C118.685 40.8156 117.548 39.7623 116.126 39.7623C115.314 39.7623 114.583 40.1009 114.095 40.7028C113.973 40.8532 113.73 40.8908 113.527 40.778C113.364 40.6651 113.324 40.4394 113.445 40.2513C114.055 39.4614 115.07 39.0099 116.126 39.0099C117.954 39.0099 119.457 40.4018 119.457 42.0946C119.457 43.7874 117.913 45.2169 116.086 45.2169Z" fill="#E8E8EF"/>
</g>
<path opacity="0.5" d="M52.8035 117.293H36.1096C35.8252 117.293 35.5815 117.067 35.5815 116.804V60.5651C35.5815 60.3017 35.8252 60.076 36.1096 60.076H52.8035C53.0878 60.076 53.3316 60.3017 53.3316 60.5651V116.804C53.3316 117.067 53.0878 117.293 52.8035 117.293Z" fill="white"/>
<path opacity="0.5" d="M76.4832 117.293H59.7893C59.5049 117.293 59.2612 117.067 59.2612 116.804V60.5651C59.2612 60.3017 59.5049 60.076 59.7893 60.076H76.4832C76.7675 60.076 77.0112 60.3017 77.0112 60.5651V116.804C77.0112 117.067 76.7675 117.293 76.4832 117.293Z" fill="white"/>
<path opacity="0.5" d="M100.163 117.293H83.4694C83.1851 117.293 82.9414 117.067 82.9414 116.804V60.5651C82.9414 60.3017 83.1851 60.076 83.4694 60.076H100.163C100.448 60.076 100.691 60.3017 100.691 60.5651V116.804C100.651 117.067 100.448 117.293 100.163 117.293Z" fill="white"/>
<path opacity="0.5" d="M123.803 117.293H107.109C106.824 117.293 106.581 117.067 106.581 116.804V60.5651C106.581 60.3017 106.824 60.076 107.109 60.076H123.803C124.087 60.076 124.331 60.3017 124.331 60.5651V116.804C124.331 117.067 124.087 117.293 123.803 117.293Z" fill="white"/>
<path d="M137.776 72.1138C135.948 72.0386 134.201 72.2643 132.576 73.0919C130.424 74.1452 129.774 76.139 129.043 78.0199C127.987 80.766 127.174 83.625 126.321 86.4087C126.078 87.1234 125.915 87.8758 126.24 88.6282C127.377 89.3053 128.149 90.5467 129.652 90.81C130.83 87.1987 131.358 83.4745 131.927 79.7503C132.089 78.3208 132.17 76.8913 132.901 75.5747C132.698 76.929 132.495 78.3208 132.333 79.6751C132.292 80.5403 132.292 81.4055 132.17 82.2707C131.845 85.2802 131.845 88.3648 131.236 91.3367C131.317 94.0076 130.871 96.6408 130.546 99.2741C130.789 101.381 130.261 103.412 130.139 105.481C130.058 106.798 130.18 108.152 129.814 109.393C129.286 111.086 129.814 112.252 131.399 113.118C135.176 114.208 139.035 114.434 142.893 113.907C147.686 113.23 152.317 112.102 155.932 108.829C156.338 107.023 155.241 105.331 155.363 103.563C155.282 103.45 155.119 103.337 155.079 103.186C154.266 99.4998 153.413 95.8508 152.764 92.1643C152.52 90.8852 151.586 89.6062 152.398 88.252C155.363 88.5905 157.516 87.0482 159.669 85.4683C159.628 83.3993 158.125 81.9322 157.15 80.277C155.729 77.9446 153.941 75.8004 152.52 73.4681C150.651 70.4586 147.93 70.0448 144.681 70.9101C144.193 71.0229 143.706 71.0605 143.218 71.1358C143.218 72.1891 143.3 73.4305 142.162 73.9947C140.944 74.5966 140.131 75.4619 139.238 76.4775C139.075 74.8976 137.41 73.8067 137.776 72.1138Z" fill="white"/>
<path d="M155.891 108.904C152.276 112.177 147.646 113.306 142.853 113.983C138.994 114.509 135.136 114.246 131.358 113.193C131.196 116.24 130.993 119.287 130.83 122.296C130.911 126.698 131.114 131.137 131.642 135.5C132.658 143.739 134.811 151.751 136.882 159.802C137.329 161.57 137.491 163.413 138.547 164.993C139.4 165.03 140.253 165.068 141.106 165.106C141.188 164.617 141.35 164.09 141.35 163.601C141.513 159.087 141.675 154.535 141.716 150.021C141.797 144.416 141.716 138.811 141.716 133.243C141.919 133.243 142.081 133.243 142.284 133.243C142.325 133.544 142.366 133.807 142.406 134.108C142.772 136.892 142.975 139.676 144.153 142.309C147.686 150.284 152.236 157.77 157.597 164.842C158.572 164.918 159.384 164.541 160.197 164.203C159.506 159.99 158.125 155.889 156.988 151.789C155.485 146.372 153.617 141.068 153.129 135.463C152.926 132.754 153.698 130.121 154.104 127.45C154.998 121.243 156.013 115.111 155.891 108.904Z" fill="#3A9CD7"/>
<path d="M159.587 85.5434C157.475 87.1234 155.322 88.6281 152.316 88.3272C155.078 92.3523 157.8 96.4151 157.556 101.494C157.516 106.008 157.962 110.522 157.962 115.074C157.962 116.917 156.581 118.271 156.581 120.002C156.581 120.415 155.891 120.98 156.581 121.168C157.191 121.356 157.191 120.603 157.394 120.227C157.475 120.039 157.597 119.889 157.719 119.701C158.368 120.566 158.368 120.98 157.84 121.807C157.434 122.447 156.5 122.748 156.419 123.613C159.303 123.839 161.577 121.732 160.806 118.911C159.993 115.901 160.968 113.193 161.455 110.371C162.105 106.271 162.755 102.133 163.243 98.0326C163.486 95.9637 162.836 94.0075 162.633 91.9761C161.455 89.9071 160.887 87.5748 159.587 85.5434Z" fill="#ECC19C"/>
<path d="M153.25 172.14C154.266 172.592 155.281 172.178 156.297 172.14C157.962 171.651 159.668 171.2 161.293 170.673C162.592 170.259 162.998 169.168 162.308 168.228C161.374 166.949 160.927 165.519 160.196 164.165C159.343 164.504 158.53 164.88 157.596 164.805C158.409 167.588 158.165 168.228 155.565 169.846C154.834 170.297 154.063 170.598 153.21 170.786C152.803 170.899 152.072 170.711 152.072 171.388C152.072 172.065 152.722 172.103 153.25 172.14Z" fill="#3D3D3D"/>
<path d="M111.049 111.575C116.573 108.641 122.056 105.707 127.58 102.848C129.164 102.02 129.408 100.403 130.505 99.3117C130.83 96.6784 131.277 94.0452 131.195 91.3743C130.586 91.3743 130.058 91.2614 129.652 90.81C128.149 90.5843 127.418 89.3429 126.24 88.6281C125.915 89.9072 125.428 91.1486 125.265 92.4652C124.737 95.9637 122.787 98.5217 119.822 100.591C116.857 102.66 114.014 104.842 111.09 106.986C109.627 108.34 108.612 109.243 105.687 109.356C102.519 109.393 101.707 110.86 101.179 111.538C97.6044 116.277 106.825 114.472 111.049 111.575Z" fill="#ECC19C"/>
<path d="M142.406 68.4649C143.3 68.4273 144.152 68.5025 145.005 68.1639C145.696 67.863 146.305 67.4868 146.305 66.7345C146.346 65.4178 146.874 64.2893 147.646 63.1984C148.214 62.3708 148.255 61.4679 147.605 60.6403C146.833 59.6623 146.63 58.5337 146.671 57.3299C146.711 55.449 145.899 54.471 143.909 54.0948C141.025 53.5305 138.141 53.2672 135.501 54.9224C134.526 55.5243 133.714 54.96 132.861 54.7719C132.089 54.5838 131.277 54.0948 130.546 54.8471C129.855 55.5619 129.814 56.3519 130.058 57.2547C130.342 58.308 130.667 59.3237 131.561 60.0761C132.008 60.4522 132.089 60.9037 132.17 61.4303C132.292 62.5588 132.658 63.6122 133.47 64.4774C133.348 63.5745 133.226 62.6717 133.145 61.7689C133.104 61.2798 133.145 60.8284 133.876 60.866C135.176 60.9413 136.313 60.3394 137.532 60.0384C139.644 59.5118 140.538 59.9256 141.35 61.7689C141.431 61.957 141.512 62.2203 141.675 62.2579C142.203 62.3708 142.243 61.9193 142.406 61.6184C142.853 60.866 143.584 60.6779 144.396 60.9789C145.249 61.3174 145.127 62.0698 144.965 62.7093C144.843 63.1231 144.599 63.5745 144.234 63.8755C142.853 65.0793 142.203 66.6216 142.406 68.4649Z" fill="#3D3D3D"/>
<path d="M142.406 68.4648C142.203 66.6216 142.853 65.1168 144.274 63.8378C144.599 63.5369 144.884 63.0854 145.005 62.6716C145.168 62.0321 145.29 61.2798 144.437 60.9412C143.624 60.6403 142.934 60.866 142.446 61.5807C142.284 61.8817 142.243 62.3331 141.715 62.2202C141.593 62.1826 141.472 61.9193 141.39 61.7312C140.578 59.8879 139.644 59.4741 137.572 60.0008C136.354 60.3017 135.216 60.866 133.917 60.8284C133.186 60.7907 133.145 61.2422 133.186 61.7312C133.267 62.634 133.389 63.5369 133.511 64.4397C133.632 64.703 133.876 64.7783 134.12 64.8159C134.607 64.2892 134.363 63.5369 134.688 62.9726C134.851 62.7093 134.729 62.145 135.257 62.1826C135.826 62.2202 135.826 62.7093 135.826 63.1231C135.826 63.9883 135.826 64.8159 135.826 65.6811C138.263 66.8849 138.263 66.8849 140.253 64.6654C140.375 64.5149 140.537 64.3645 140.741 64.2892C140.984 64.1764 141.228 64.1764 141.431 64.4773C141.715 64.9287 141.431 68.0887 140.984 68.2767C139.603 68.841 139.035 70.1953 137.897 70.91C137.897 71.3238 137.857 71.7376 137.857 72.1514C137.491 73.8442 139.156 74.9728 139.197 76.5527C140.091 75.537 140.903 74.6342 142.122 74.0699C143.299 73.5057 143.178 72.3019 143.178 71.211C142.853 70.2705 142.65 69.3677 142.406 68.4648Z" fill="#ECC19C"/>
<path d="M134.647 69.0291C133.225 68.1639 133.225 67.1106 134.119 65.9445C134.688 66.0949 135.256 66.0573 135.744 65.6811C138.181 66.8849 138.181 66.8849 140.171 64.6654C140.293 64.515 140.455 64.3645 140.658 64.2893C140.902 64.1764 141.146 64.1764 141.349 64.4773C141.633 64.9288 141.349 68.0887 140.902 68.2768C139.521 68.841 138.953 70.1953 137.815 70.91C136.231 71.0229 135.703 69.6686 134.647 69.0291ZM135.419 67.8254C135.947 67.8254 136.678 67.863 136.678 67.2235C136.678 66.6592 135.947 66.5463 135.459 66.4335C134.972 66.283 134.647 66.5087 134.525 66.9978C134.525 67.5244 134.81 67.8254 135.419 67.8254Z" fill="#3D3D3D"/>
<path d="M134.16 65.9068C134.729 66.0573 135.298 66.0197 135.785 65.6435C135.785 64.7783 135.785 63.9507 135.785 63.0854C135.785 62.6716 135.785 62.1826 135.216 62.145C134.688 62.1074 134.81 62.634 134.648 62.935C134.363 63.4992 134.567 64.2516 134.079 64.7783C134.12 65.1921 134.12 65.5306 134.16 65.9068Z" fill="#EAD08D"/>
<path d="M129.611 90.7724C130.018 91.1862 130.586 91.3367 131.155 91.3367C131.764 88.3272 131.764 85.2801 132.089 82.2707C132.17 81.4055 132.211 80.5403 132.251 79.675C132.13 79.7127 131.967 79.7127 131.845 79.7503C131.317 83.4745 130.789 87.1987 129.611 90.7724Z" fill="#C8C8C8"/>
<path d="M131.886 79.7503C132.008 79.7127 132.17 79.7127 132.292 79.6751C132.495 78.3208 132.698 76.929 132.861 75.5747C132.129 76.8913 132.048 78.3208 131.886 79.7503Z" fill="#C8C8C8"/>
<path d="M140.741 172.404C141.675 171.576 141.959 170.636 141.512 169.432C141.025 168.04 140.984 166.573 141.066 165.106C140.213 165.068 139.36 165.03 138.507 164.993C138.222 168.491 138.101 168.642 134.486 169.808C133.511 170.109 132.536 170.485 131.561 170.861C130.871 171.125 130.383 171.576 130.505 172.404C131.236 173.043 140.131 172.855 140.741 172.404Z" fill="#3D3D3D"/>
<path d="M134.526 66.9601C134.567 67.5244 134.851 67.8254 135.42 67.8254C135.948 67.8254 136.679 67.863 136.679 67.2235C136.679 66.6592 135.948 66.5463 135.461 66.4335C134.973 66.2454 134.608 66.4711 134.526 66.9601Z" fill="#E0BBC1"/>
<path d="M46.3853 56.8409C46.3853 56.8409 43.5827 58.1199 43.0546 59.5494C42.6484 60.7156 39.5615 60.866 39.2365 63.1607C39.0741 64.3269 38.1399 65.305 36.8807 65.4554C33.7125 65.9068 28.8384 67.4116 28.0666 72.5276C27.4574 76.4023 29.6101 77.8694 31.8441 78.3961C33.5094 78.7722 34.6061 80.2393 34.2405 81.7817C33.9156 83.2488 34.403 84.9792 37.165 86.3335C43.3796 89.3805 49.5535 79.1484 49.5535 79.1484L50.8126 61.3174L46.3853 56.8409Z" fill="#3D3D3D"/>
<path d="M80.098 52.6277C80.098 52.6277 67.7095 70.7596 53.0059 74.258C53.0059 74.258 55.8897 81.8193 58.0831 82.6845C58.0831 82.6845 76.1987 68.6906 80.8291 55.2233L80.098 52.6277Z" fill="#F0D0B4"/>
<path d="M20.9178 168.567L20.5116 171.614C20.4304 172.178 19.943 172.667 19.3337 172.705C18.2777 172.817 16.5717 172.93 14.9064 172.78C14.1753 172.705 13.6879 172.028 13.9316 171.388C14.3377 170.222 15.0689 168.454 16.1249 167.401H19.7805C20.471 167.401 20.9991 167.927 20.9178 168.567Z" fill="#3D3D3D"/>
<path d="M49.553 132.792L50.1623 136.14C50.1623 136.14 48.0907 155.513 47.7252 163.3C47.6846 164.504 48.0095 165.708 48.7 166.761L52.2744 172.178L43.1354 167.175L42.9729 166.159L44.4758 164.24L42.5261 142.535C42.4042 141.256 42.6886 139.977 43.3384 138.848L45.2475 135.576L49.553 132.792Z" fill="#ECC19C"/>
<path d="M52.8841 172.968H49.9596C49.4316 172.968 48.9036 172.742 48.5786 172.328C47.685 171.237 45.776 169.093 44.8824 169.056C43.6639 168.98 43.8263 172.968 43.8263 172.968H43.1358L42.2829 168.002C42.0798 166.761 42.7296 165.519 43.9482 164.918C43.9482 164.918 44.2325 166.798 45.7354 167.664C47.2382 168.491 51.8687 171.501 51.8687 171.501C51.8687 171.501 52.4373 171.426 53.0466 171.538C53.9402 171.689 53.8183 172.968 52.8841 172.968Z" fill="#3D3D3D"/>
<path d="M37.0433 134.409C37.0433 134.409 24.9391 155.701 22.9895 160.554C21.0805 165.407 20.3899 169.469 20.3493 169.846C20.3087 170.447 19.4964 171.012 17.303 171.012C16.1657 171.012 15.597 170.598 15.3127 170.184C15.069 169.846 15.069 169.394 15.2721 169.018C15.9626 167.701 18.1966 163.526 19.0089 161.607C19.9838 159.35 22.0959 149.043 23.2738 145.469C24.4517 141.895 25.7515 138.021 30.7881 134.447C30.7881 134.409 34.2813 131.249 37.0433 134.409Z" fill="#F0D0B4"/>
<path d="M44.6796 99.5374C47.8072 87.2739 39.8867 80.3522 39.8867 80.3522C44.8827 75.9133 53.9811 73.8819 53.9811 73.8819C53.9811 73.8819 62.6733 79.7503 61.6173 84.3773C61.008 87.0858 55.5246 100.515 55.5246 100.515C55.5246 100.515 50.4474 102.735 44.6796 99.5374Z" fill="#FBBA0E"/>
<path d="M37.7746 105.594C39.0338 102.058 44.7203 99.5374 44.7203 99.5374C50.488 102.735 55.5652 100.515 55.5652 100.515C55.5652 100.515 56.7025 104.541 55.9308 108.302C55.1591 112.064 50.2037 136.177 50.2037 136.177C42.405 137.644 30.4634 134.71 30.4634 134.71C35.3781 126.547 36.4748 109.168 37.7746 105.594Z" fill="#F65414"/>
<path d="M48.2943 65.794L45.7354 76.3647C45.4917 77.3051 46.4259 77.1547 47.4414 76.9666C49.1067 76.6656 51.2595 76.0637 51.95 74.8976C52.0312 74.7847 52.0718 74.6343 52.0718 74.4838L53.1685 67.1483C53.2497 66.584 52.9248 66.0197 52.3561 65.7564L50.244 64.8912C49.4723 64.5526 48.5381 64.9664 48.2943 65.794Z" fill="#F0D0B4"/>
<path d="M53.1695 56.1637C53.1695 56.1637 55.8909 57.8566 57.0282 62.1827C58.2061 66.5087 56.2971 68.0511 54.3474 67.9382C52.3978 67.8254 49.5951 67.2987 47.1581 64.1764C44.7616 61.0917 49.6358 54.0948 53.1695 56.1637Z" fill="#F0D0B4"/>
<path d="M49.6755 62.446C49.6755 62.446 48.7006 56.2766 54.2247 57.2171L55.362 58.308C55.362 58.308 58.0834 55.4866 55.0776 53.3424C52.0719 51.1982 47.8883 51.7625 45.6137 55.6371C43.3391 59.5118 42.4861 62.2579 44.3952 64.703C46.3448 67.1106 47.7664 65.0416 47.7664 65.0416C47.7664 65.0416 46.8728 62.935 47.604 62.0322C48.3351 61.1293 49.2693 62.5588 49.2693 62.5588L49.6755 62.446Z" fill="#3D3D3D"/>
<path d="M48.9042 62.9727C48.9042 62.9727 48.4167 59.7751 46.6702 60.7156C44.9236 61.6184 47.3201 63.6874 48.2543 64.4022L48.9042 62.9727Z" fill="#F0D0B4"/>
<path d="M80.017 56.3519C80.0577 56.7281 78.5548 56.9914 78.0674 55.3738C78.1892 54.6967 78.4329 51.6496 79.0016 51.1982C82.0479 48.6778 87.4907 45.8564 87.4907 45.8564C88.1 46.7216 87.2876 47.2859 87.2876 47.2859L84.5662 48.9787C84.8506 49.8439 85.2567 50.6339 85.2974 51.612C85.338 52.3644 85.013 53.1167 84.485 53.681C83.957 54.2453 83.2259 54.9976 82.576 55.5619C81.3574 56.6152 80.017 56.3519 80.017 56.3519Z" fill="#F0D0B4"/>
<path d="M81.479 55.1105L81.0728 54.96C81.1134 54.8471 82.4132 51.9129 83.0631 51.2734C83.3068 51.0477 83.4286 50.8596 83.388 50.6715C83.388 50.5963 83.3474 50.4834 83.2662 50.4082L81.0728 51.4991L80.098 52.891L79.7324 52.6653L80.7479 51.1606L83.3068 49.8815L83.4286 49.9568C83.6724 50.1449 83.8348 50.3706 83.8348 50.5963C83.8348 50.8972 83.713 51.1606 83.3474 51.4991C82.9006 52.0634 81.8445 54.2829 81.479 55.1105Z" fill="#F0D0B4"/>
<path d="M47.5227 106.008H47.5633L70.2687 105.97C70.8373 105.97 71.2841 105.556 71.2841 105.03C71.2841 104.503 70.8373 104.089 70.2687 104.089L47.5633 104.127C46.9946 104.127 46.5479 104.541 46.5479 105.067C46.5479 105.556 46.9946 105.97 47.5227 106.008Z" fill="#3D3D3D"/>
<path d="M90.6586 87.1234H71.7713C70.3903 87.1234 69.0906 87.8758 68.5219 89.0043L59.7891 105.97H83.2662C84.1598 105.97 84.9721 105.481 85.2971 104.691L92.0803 88.9667C92.4458 88.1015 91.7147 87.1234 90.6586 87.1234Z" fill="#3D3D3D"/>
<path d="M77.3364 95.8132C76.9302 96.9794 77.2145 98.1079 78.0269 98.3336C78.7986 98.5593 79.7735 97.807 80.1796 96.6408C80.5858 95.4747 80.3015 94.3461 79.4891 94.1204C78.7174 93.8947 77.7426 94.6471 77.3364 95.8132Z" fill="#3D3D3D"/>
<path d="M39.8458 80.3522C36.7588 83.2488 32.8189 96.0765 34.7686 98.2208C36.4745 100.704 42.3235 104.127 47.8881 104.127H56.1336C52.681 100.741 50.3252 99.876 47.482 102.246C45.248 101.343 42.3235 97.9198 40.3738 96.3775C39.6021 95.7756 39.4396 94.7599 39.927 93.9323C41.4705 91.5247 43.4202 89.042 44.0294 86.6344C44.1513 83.8131 41.9173 80.5779 39.8458 80.3522Z" fill="#F0D0B4"/>
<path d="M152.629 20.4942C152.942 20.2034 153.396 20.0742 153.85 20.1065C158.594 20.4942 167.455 18.3941 173.211 12.9016C173.63 12.5138 174.327 12.74 174.816 13.0631C181.235 17.5217 191.91 18.4264 195.607 18.6202C196.375 18.6526 197.003 19.2018 197.073 19.9126C200.422 50.0246 179.281 60.9128 174.885 62.8513C174.397 63.0775 173.839 63.0452 173.385 62.7867C151.512 50.1539 152.454 33.7409 152.14 21.5927C152.105 21.1727 152.28 20.785 152.629 20.4942Z" fill="#3A9CD7"/>
<path d="M174.258 60.6866C174.153 60.6866 174.048 60.6542 173.979 60.6219C165.606 55.6464 160.129 49.7338 157.268 42.4643C154.722 36.0025 154.582 29.4115 154.478 23.5958V22.8204C154.478 22.6912 154.512 22.5619 154.617 22.465C154.722 22.3681 154.861 22.3358 155.001 22.3358C160.199 22.3358 167.978 20.2034 173.699 15.454C173.874 15.2924 174.118 15.2924 174.327 15.4217C180.607 19.2664 189.572 20.3972 194.352 20.7203C194.596 20.7526 194.805 20.9142 194.84 21.1727C195.956 32.9331 193.305 42.852 186.991 50.7031C182.281 56.551 176.7 59.6204 174.502 60.6542C174.432 60.6542 174.362 60.6866 174.258 60.6866ZM174.397 60.4604L174.432 60.5573L174.397 60.4604C176.56 59.4265 182.142 56.3895 186.816 50.5738C193.096 42.7551 195.712 32.8685 194.631 21.1727C194.631 21.0434 194.491 20.9142 194.352 20.9142C189.537 20.5911 180.537 19.4603 174.223 15.5832C174.118 15.5186 173.944 15.5186 173.839 15.6155C168.083 20.3972 160.234 22.5296 155.001 22.5296C154.896 22.5296 154.826 22.5619 154.792 22.6266C154.722 22.6912 154.687 22.7558 154.722 22.8204V23.5958C154.826 29.3791 154.966 35.9702 157.513 42.3997C160.338 49.6046 165.78 55.5171 174.153 60.4604C174.188 60.4927 174.292 60.4927 174.397 60.4604Z" fill="white"/>
<path d="M181.896 31.867H180.92C180.431 31.867 180.047 31.5116 180.047 31.0592V27.9253C180.047 26.7944 179.071 25.8898 177.85 25.8898H171.71C170.489 25.8898 169.512 26.7944 169.512 27.9253V31.0592C169.512 31.5116 169.128 31.867 168.64 31.867H167.663C167.175 31.867 166.791 31.5116 166.791 31.0592V27.9253C166.791 25.3728 169.024 23.3374 171.745 23.3374H177.885C180.641 23.3374 182.838 25.4051 182.838 27.9253V31.0592C182.803 31.4793 182.42 31.867 181.896 31.867Z" fill="#FBBA0E"/>
<path d="M183.153 32.61H166.408C165.396 32.61 164.559 33.3854 164.559 34.3224V46.2121C164.559 47.1491 165.396 47.9245 166.408 47.9245H183.153C184.164 47.9245 185.001 47.1491 185.001 46.2121V34.3224C185.001 33.3531 184.164 32.61 183.153 32.61ZM177.152 44.0797C177.257 44.4674 176.943 44.8551 176.489 44.8551H173.036C172.582 44.8551 172.268 44.4674 172.373 44.0797L173.175 40.9781C172.233 40.4611 171.605 39.4595 171.675 38.361C171.745 36.9071 173.001 35.744 174.571 35.6471C176.385 35.5501 177.885 36.8748 177.885 38.5226C177.885 39.5565 177.292 40.4934 176.385 40.9781L177.152 44.0797Z" fill="#FBBA0E"/>
</svg>
