<svg width="622" height="327" viewBox="0 0 622 327" fill="none" xmlns="http://www.w3.org/2000/svg">
<g opacity="0.5">
<path opacity="0.1" d="M572.65 112.727C560.183 107.352 546.572 104.401 532.723 104.072C527.854 79.8476 511.131 58.9497 483.047 46.4649C465.947 38.8716 446.555 35.238 426.397 35.0982C424.104 23.07 415.926 12.7375 402.041 6.56036C372.428 -6.58588 328.385 4.38019 303.61 31.0081C286.51 49.437 283.17 70.5773 292.532 86.1739C288.898 89.4814 285.463 92.8448 282.123 96.4225C277.145 101.814 272.596 107.508 268.51 113.463C253.222 113.594 237.096 117.889 222.845 125.575C193.525 116.063 153.399 127.224 130.184 152.203C113.084 170.632 109.744 191.772 119.105 207.369L50.0152 232.441C44.947 232.441 198.918 232.441 50.0152 232.441L569.781 232.227C576.567 232.227 582.965 229.851 586.598 225.947C586.598 225.947 586.598 225.882 586.693 225.882C625.279 184.011 619.07 133.346 572.65 112.727Z" fill="#E4E4E4"/>
<path d="M456.39 38.27L461.19 52.57C461.19 54.33 460.29 54.66 459.19 53.29L442.09 38.29H419C416.878 38.29 414.843 37.4472 413.343 35.9469C411.843 34.4466 411 32.4117 411 30.29V8C411 5.87827 411.843 3.84343 413.343 2.34314C414.843 0.842849 416.878 0 419 0H457.24C459.362 0 461.397 0.842849 462.897 2.34314C464.397 3.84343 465.24 5.87827 465.24 8V30.31C465.24 34.71 463.24 38.31 460.84 38.31L456.39 38.27Z" fill="#BABABA"/>
<path d="M422.16 16.57H454.08C454.714 16.57 455.322 16.3182 455.77 15.87C456.218 15.4218 456.47 14.8139 456.47 14.18C456.47 13.5462 456.218 12.9383 455.77 12.4901C455.322 12.0418 454.714 11.79 454.08 11.79H422.16C421.526 11.79 420.918 12.0418 420.47 12.4901C420.022 12.9383 419.77 13.5462 419.77 14.18C419.77 14.8139 420.022 15.4218 420.47 15.87C420.918 16.3182 421.526 16.57 422.16 16.57Z" fill="white"/>
<path d="M422.16 27.0798H454.08C454.714 27.0798 455.322 26.828 455.77 26.3798C456.218 25.9316 456.47 25.3237 456.47 24.6898C456.47 24.0559 456.218 23.448 455.77 22.9998C455.322 22.5516 454.714 22.2998 454.08 22.2998H422.16C421.526 22.2998 420.918 22.5516 420.47 22.9998C420.022 23.448 419.77 24.0559 419.77 24.6898C419.77 25.3237 420.022 25.9316 420.47 26.3798C420.918 26.828 421.526 27.0798 422.16 27.0798Z" fill="white"/>
<path d="M560.039 104.598C554.263 104.598 550.059 109.448 550.059 115.909C550.01 117.346 550.233 118.779 550.713 120.122C551.194 121.465 551.923 122.691 552.856 123.727C553.789 124.762 554.908 125.585 556.146 126.148C557.384 126.71 558.715 127 560.059 127C561.404 127 562.735 126.71 563.972 126.148C565.21 125.585 566.329 124.762 567.262 123.727C568.196 122.691 568.924 121.465 569.405 120.122C569.885 118.779 570.108 117.346 570.059 115.909C570.059 109.448 565.803 104.598 560.039 104.598ZM583 63.6978C583 49.4186 573.39 43 560.595 43C552.24 43 545.076 47.4958 540 54.0134L549.147 62.9626C552.24 59.6968 555.281 57.3782 559.444 57.3782C563.965 57.3782 567.019 60.0502 567.019 65.0267C567.019 74.0749 550.535 80.9883 552.796 97.5437H567.336C566.001 83.1655 582.987 78.7263 582.987 63.6978H583Z" fill="#3A9CD7"/>
<path d="M517.152 107.287C519.237 107.211 521.295 107.809 523.064 109.005C524.834 110.201 526.234 111.94 527.085 114.002C527.937 116.063 528.202 118.352 527.846 120.577C527.491 122.802 526.531 124.861 525.089 126.493C523.647 128.125 521.788 129.254 519.751 129.737C517.713 130.22 515.589 130.035 513.649 129.205C511.709 128.375 510.041 126.938 508.859 125.078C507.677 123.217 507.034 121.018 507.012 118.76C506.946 117.276 507.16 115.794 507.64 114.402C508.12 113.011 508.857 111.74 509.806 110.666C510.754 109.593 511.895 108.74 513.158 108.159C514.421 107.578 515.78 107.281 517.152 107.287ZM509.281 62.4009L508.717 46H525.574L525.01 62.4009L522.622 100.187H511.682L509.281 62.4009Z" fill="#3A9CD7"/>
<g opacity="0.2">
<path d="M175 279.803L190.87 292.742L175 305.65V279.803Z" fill="white"/>
<path d="M190.877 292.711L175 305.65V279.773L190.877 292.711Z" fill="white"/>
<path d="M226 305.65L210.093 292.711L226 279.803V305.65Z" fill="white"/>
<path d="M225.992 279.773V305.65L210.093 292.711L225.992 279.773Z" fill="white"/>
<path d="M194.856 295.929L200.5 300.518L206.136 295.929L221.433 308.393H179.559L194.856 295.929Z" fill="white"/>
<path d="M221.441 308.393H179.559L194.856 295.929L200.5 300.518L206.136 295.929L221.441 308.393Z" fill="white"/>
<path d="M200.5 294.053L179.559 277H221.441L200.5 294.053Z" fill="white"/>
<path d="M221.441 277L200.5 294.053L179.559 277H221.441Z" fill="white"/>
</g>
<path d="M352.12 285C362.71 285 369.47 292.2 369.47 302.45C369.47 311.45 363.47 315.93 358.3 315.93C355.5 315.93 353.2 314.56 352.66 312.21H352.56C351.874 313.146 350.991 313.921 349.973 314.479C348.956 315.037 347.828 315.365 346.67 315.44C342.8 315.44 340.2 312.6 340.2 308.09C340.2 302.09 344.46 296.09 350.1 296.09C350.9 296.057 351.69 296.276 352.359 296.716C353.028 297.155 353.542 297.793 353.83 298.54H353.93L354.62 296.48H359.08L356.83 307.26C356.14 310.1 356.83 311.47 359.08 311.47C362.02 311.47 364.91 308.04 364.91 302.65C364.91 295.65 361.14 289.37 351.53 289.37C343.15 289.37 334.86 296.53 334.86 307.56C334.86 317.21 341.52 321.87 349.17 321.87C351.766 321.805 354.313 321.152 356.62 319.96L358.19 323.88C355.24 325.47 351.931 326.279 348.58 326.23C338.77 326.23 330 320.23 330 307.75C329.99 294.02 340.03 285 352.12 285ZM348.12 310.93C349.12 310.93 350.12 310.35 351.35 308.72L352.53 302.11C352.332 301.682 352.014 301.32 351.615 301.068C351.215 300.816 350.752 300.685 350.28 300.69C347.34 300.69 345.57 304.69 345.57 307.69C345.62 309.85 346.55 310.93 348.12 310.93Z" fill="#3A9CD7"/>
<path d="M594.62 210.24C609.322 210.24 621.24 198.322 621.24 183.62C621.24 168.918 609.322 157 594.62 157C579.918 157 568 168.918 568 183.62C568 198.322 579.918 210.24 594.62 210.24Z" fill="#3A9CD7"/>
<path d="M594.62 203.1C590.816 203.1 587.097 201.972 583.934 199.858C580.771 197.744 578.307 194.74 576.852 191.225C575.397 187.71 575.017 183.842 575.761 180.111C576.504 176.38 578.338 172.954 581.029 170.265C583.721 167.577 587.149 165.747 590.881 165.007C594.612 164.267 598.479 164.651 601.993 166.11C605.506 167.568 608.508 170.036 610.619 173.201C612.729 176.366 613.854 180.086 613.85 183.89C613.839 188.985 611.809 193.868 608.205 197.469C604.6 201.07 599.715 203.095 594.62 203.1ZM594.62 166.03C591.095 166.03 587.649 167.075 584.717 169.033C581.786 170.991 579.5 173.774 578.15 177.03C576.8 180.286 576.445 183.87 577.13 187.328C577.816 190.785 579.511 193.962 582.002 196.457C584.492 198.952 587.666 200.653 591.123 201.344C594.58 202.035 598.164 201.686 601.422 200.341C604.681 198.997 607.468 196.716 609.43 193.788C611.393 190.86 612.444 187.415 612.45 183.89C612.45 179.159 610.572 174.622 607.229 171.275C603.886 167.928 599.351 166.045 594.62 166.04V166.03Z" fill="#FBBA0E"/>
<path d="M594.62 175.07C592.199 175.072 589.784 174.835 587.41 174.36C585.031 173.886 582.706 173.172 580.47 172.23L581.01 170.94C583.16 171.829 585.395 172.499 587.68 172.94C589.952 173.394 592.263 173.622 594.58 173.62C596.931 173.619 599.276 173.384 601.58 172.92C603.864 172.459 606.095 171.769 608.24 170.86L608.37 170.8H608.51V171.5L608.78 172.14C606.548 173.085 604.226 173.802 601.85 174.28C599.472 174.782 597.05 175.047 594.62 175.07Z" fill="#FBBA0E"/>
<path d="M608.49 196.58H608.34L608.21 196.53C606.065 195.62 603.834 194.93 601.55 194.47C596.975 193.554 592.265 193.554 587.69 194.47C585.405 194.911 583.171 195.581 581.02 196.47L580.48 195.18C582.716 194.238 585.041 193.524 587.42 193.05C592.176 192.097 597.074 192.097 601.83 193.05C604.206 193.528 606.528 194.245 608.76 195.19L608.49 195.83V196.58Z" fill="#FBBA0E"/>
<path d="M594.62 203.1C589.87 203.1 584.62 193.03 584.62 183.87C584.62 175.42 590.21 164.64 594.62 164.64V166.04C591.31 166.04 586.05 175.78 586.05 183.87C586.05 192.72 591.05 201.7 594.62 201.7V203.1Z" fill="#FBBA0E"/>
<path d="M594.62 203.1V201.7C598.2 201.7 603.19 192.7 603.19 183.87C603.19 175.77 597.93 166.04 594.62 166.04V164.64C599 164.64 604.62 175.42 604.62 183.87C604.59 193.04 599.37 203.1 594.62 203.1Z" fill="#FBBA0E"/>
<path d="M595.32 165.34H593.92V202.4H595.32V165.34Z" fill="#FBBA0E"/>
<path d="M613.16 183.17H576.09V184.57H613.16V183.17Z" fill="#FBBA0E"/>
<g opacity="0.5">
<path d="M93.9996 210.235H36.01L41.7034 206.656L44.3844 204.965L65.0048 192L85.6148 204.965L88.2855 206.64L93.9996 210.235Z" fill="#DCDCDC"/>
<path d="M39.178 210.235L65.0052 194L90.822 210.235H39.178Z" fill="#F7F7F7"/>
<path d="M93.9999 210.235H36V241.89H93.9999V210.235Z" fill="#F7F7F7"/>
<path d="M88.2862 206.64L88.2034 208.584L88.1206 210.235L86.9716 234.123H43.0291L41.8697 210.235L41.7869 208.584L41.7041 206.657L44.3852 204.965H85.6155L88.2862 206.64Z" fill="#DDDDDD"/>
<path d="M86.9711 206.063H43.0286V234.115H86.9711V206.063Z" fill="#F7F7F7"/>
<path opacity="0.2" d="M36 241.89L65.0051 225.087L36 210.235V241.89Z" fill="#DDDDDD"/>
<path opacity="0.2" d="M93.9999 241.89L65.0051 225.087L93.9999 210.235V241.89Z" fill="#DDDDDD"/>
<path d="M36 241.89L65.0051 226.063L36 210.235V241.89Z" fill="#DDDDDD"/>
<path d="M93.9999 241.89L65.0051 226.063L93.9999 210.235V241.89Z" fill="#DDDDDD"/>
<path opacity="0.2" d="M36 241.89L65.0051 223.297L93.9999 241.89H36Z" fill="#DDDDDD"/>
<path d="M36 241.89L65.0051 223.663L93.9999 241.89H36Z" fill="#F7F7F7"/>
<path d="M65.9575 208.113C66.8902 208.071 67.8236 208.185 68.6961 208.448C69.5687 208.71 70.3606 209.115 71.0198 209.635C71.6789 210.155 72.1903 210.779 72.5203 211.466C72.8504 212.153 72.9915 212.886 72.9344 213.619C72.9344 216.45 70.5122 217.873 68.4418 217.873C67.9487 217.913 67.4532 217.817 67.0398 217.602C66.6264 217.387 66.3207 217.066 66.1748 216.694C65.9006 216.99 65.5472 217.235 65.1394 217.412C64.7317 217.589 64.2795 217.693 63.8147 217.718C62.2619 217.718 61.2164 216.824 61.2164 215.4C61.2164 213.513 62.9348 211.61 65.2018 211.61C65.5295 211.603 65.8517 211.678 66.1216 211.824C66.3915 211.97 66.5951 212.18 66.7028 212.424L66.9823 211.773H68.7731L67.8725 215.181C67.593 216.075 67.8725 216.515 68.7731 216.515C69.9532 216.515 71.1229 215.433 71.1229 213.733C71.1229 211.521 69.6116 209.536 65.7401 209.536C64.8195 209.565 63.9154 209.737 63.0797 210.042C62.2441 210.347 61.4934 210.779 60.8709 211.313C60.2485 211.846 59.7665 212.471 59.4527 213.152C59.1389 213.833 58.9995 214.555 59.0426 215.278C58.9906 215.883 59.1039 216.489 59.3747 217.056C59.6456 217.623 60.0678 218.138 60.613 218.567C61.1581 218.995 61.8137 219.327 62.5355 219.54C63.2574 219.752 64.0288 219.841 64.7981 219.801C65.8405 219.781 66.8636 219.575 67.7897 219.199L68.4211 220.435C67.2357 220.937 65.9064 221.192 64.56 221.175C60.616 221.175 57.0965 219.288 57.0965 215.343C57.0371 214.404 57.223 213.465 57.6428 212.585C58.0626 211.704 58.7075 210.9 59.5376 210.223C60.3677 209.546 61.3656 209.009 62.4697 208.646C63.5738 208.283 64.7607 208.102 65.9575 208.113ZM64.353 216.295C64.767 216.295 65.1604 216.108 65.6573 215.596L66.1334 213.505C66.0482 213.372 65.9182 213.26 65.7576 213.182C65.597 213.103 65.4119 213.06 65.2225 213.058C64.0424 213.058 63.3282 214.327 63.3282 215.254C63.3178 215.953 63.7319 216.295 64.353 216.295Z" fill="#F65414"/>
</g>
<path d="M203 43.0461V24.9726C203 21.412 206.142 18.5234 209.982 18.5234H243.667C247.533 18.5234 250.649 21.412 250.649 24.9726V28.5768L261.584 32.1374C263.443 32.7396 263.478 33.7955 261.654 34.4937L250.649 38.7088V43.0722C250.649 46.6328 248.904 49.5302 246.774 49.5302H209.982C206.142 49.4778 203 46.6066 203 43.0461Z" fill="#3A9CD7"/>
<path d="M212.792 31.902H240.883C241.153 31.9277 241.426 31.8967 241.683 31.811C241.94 31.7253 242.176 31.5868 242.377 31.4044C242.578 31.222 242.738 30.9997 242.847 30.7518C242.957 30.5038 243.014 30.2357 243.014 29.9647C243.014 29.6936 242.957 29.4255 242.847 29.1775C242.738 28.9296 242.578 28.7073 242.377 28.5249C242.176 28.3425 241.94 28.2041 241.683 28.1184C241.426 28.0327 241.153 28.0016 240.883 28.0273H212.792C212.522 28.0016 212.249 28.0327 211.992 28.1184C211.735 28.2041 211.499 28.3425 211.298 28.5249C211.098 28.7073 210.937 28.9296 210.828 29.1775C210.718 29.4255 210.661 29.6936 210.661 29.9647C210.661 30.2357 210.718 30.5038 210.828 30.7518C210.937 30.9997 211.098 31.222 211.298 31.4044C211.499 31.5868 211.735 31.7253 211.992 31.811C212.249 31.8967 212.522 31.9277 212.792 31.902Z" fill="#6C7A83"/>
<path d="M212.792 40.4284H240.883C241.153 40.454 241.426 40.423 241.683 40.3373C241.94 40.2516 242.176 40.1131 242.377 39.9307C242.578 39.7483 242.738 39.5261 242.847 39.2781C242.957 39.0302 243.014 38.7621 243.014 38.491C243.014 38.2199 242.957 37.9518 242.847 37.7039C242.738 37.456 242.578 37.2337 242.377 37.0513C242.176 36.8689 241.94 36.7304 241.683 36.6447C241.426 36.559 241.153 36.528 240.883 36.5536H212.792C212.522 36.528 212.249 36.559 211.992 36.6447C211.735 36.7304 211.499 36.8689 211.298 37.0513C211.098 37.2337 210.937 37.456 210.828 37.7039C210.718 37.9518 210.661 38.2199 210.661 38.491C210.661 38.7621 210.718 39.0302 210.828 39.2781C210.937 39.5261 211.098 39.7483 211.298 39.9307C211.499 40.1131 211.735 40.2516 211.992 40.3373C212.249 40.423 212.522 40.454 212.792 40.4284Z" fill="#6C7A83"/>
<path d="M548 269.77C548.031 269.402 547.951 269.032 547.77 268.71L547.3 268.5L546.45 268.64C545.792 268.775 545.122 268.845 544.45 268.85C541.86 268.964 539.302 268.245 537.15 266.8C535.29 265.45 534.43 263.4 534.43 260.7C534.356 259.43 534.59 258.162 535.113 257.002C535.635 255.842 536.43 254.826 537.43 254.04C539.539 252.484 542.111 251.684 544.73 251.77C547.458 251.75 550.114 252.648 552.27 254.32C553.362 255.172 554.235 256.273 554.816 257.53C555.397 258.788 555.669 260.166 555.61 261.55C555.61 265.87 554.06 270.34 550.95 275.16C547.947 279.791 544.068 283.789 539.53 286.93C537.82 287.99 536.81 288.56 536.34 288.56C535.64 288.28 535.34 287.99 535.34 287.78C535.448 287.238 535.755 286.757 536.2 286.43C539.618 283.767 542.647 280.64 545.2 277.14C547.09 274.38 548 272 548 269.77ZM521.89 269.77C521.922 269.402 521.841 269.032 521.66 268.71L521.19 268.5L520.34 268.64C519.682 268.775 519.012 268.845 518.34 268.85C515.75 268.964 513.192 268.245 511.04 266.8C509.18 265.45 508.32 263.4 508.32 260.7C508.246 259.43 508.48 258.162 509.003 257.002C509.525 255.842 510.32 254.826 511.32 254.04C513.429 252.484 516.001 251.684 518.62 251.77C521.348 251.75 524.004 252.648 526.16 254.32C527.252 255.172 528.125 256.273 528.706 257.53C529.287 258.788 529.559 260.166 529.5 261.55C529.5 265.87 527.95 270.34 524.84 275.16C521.838 279.791 517.958 283.789 513.42 286.93C512.453 287.644 511.375 288.195 510.23 288.56C509.53 288.28 509.23 287.99 509.23 287.78C509.335 287.24 509.638 286.758 510.08 286.43C513.498 283.767 516.527 280.641 519.08 277.14C521 274.38 521.92 272 521.92 269.77H521.89Z" fill="#FBBA0E"/>
<path d="M90.6933 41.0063C90.7242 40.6379 90.6441 40.2687 90.4633 39.9463L89.9933 39.7363L89.1433 39.8763C88.485 40.0111 87.8152 40.0814 87.1433 40.0863C84.5535 40.1999 81.9954 39.4815 79.8433 38.0363C77.9833 36.6863 77.1233 34.6363 77.1233 31.9363C77.0495 30.6666 77.2838 29.3978 77.8061 28.2382C78.3285 27.0786 79.1235 26.0624 80.1233 25.2763C82.232 23.7201 84.8039 22.9203 87.4233 23.0063C90.1515 22.9863 92.8072 23.8845 94.9633 25.5563C96.0554 26.4085 96.9282 27.5091 97.5091 28.7667C98.0901 30.0242 98.3623 31.4023 98.3033 32.7863C98.3033 37.1063 96.7533 41.5763 93.6433 46.3963C90.6407 51.0269 86.7612 55.0253 82.2233 58.1663C80.5133 59.2263 79.5033 59.7963 79.0333 59.7963C78.3333 59.5163 78.0333 59.2263 78.0333 59.0163C78.1412 58.4746 78.448 57.993 78.8933 57.6663C82.3109 55.0034 85.3401 51.8766 87.8933 48.3763C89.7833 45.6163 90.6933 43.2363 90.6933 41.0063ZM64.5833 41.0063C64.6149 40.6379 64.5347 40.2685 64.3532 39.9463L63.8833 39.7363L63.0333 39.8763C62.375 40.0111 61.7052 40.0814 61.0333 40.0863C58.4435 40.1999 55.8853 39.4815 53.7333 38.0363C51.8733 36.6863 51.0133 34.6363 51.0133 31.9363C50.9395 30.6666 51.1738 29.3978 51.6961 28.2382C52.2185 27.0786 53.0135 26.0624 54.0133 25.2763C56.122 23.7201 58.6939 22.9203 61.3133 23.0063C64.0415 22.9863 66.6972 23.8845 68.8532 25.5563C69.9454 26.4085 70.8182 27.5091 71.3991 28.7667C71.9801 30.0242 72.2524 31.4023 72.1933 32.7863C72.1933 37.1063 70.6433 41.5763 67.5333 46.3963C64.5309 51.027 60.6513 55.0255 56.1133 58.1663C55.1461 58.8803 54.0685 59.4309 52.9233 59.7963C52.2233 59.5163 51.9233 59.2263 51.9233 59.0163C52.0286 58.4762 52.3318 57.9948 52.7733 57.6663C56.1912 55.0037 59.2204 51.8769 61.7733 48.3763C63.6933 45.6163 64.6133 43.2363 64.6133 41.0063H64.5833Z" fill="#FBBA0E"/>
</g>
</svg>
