<svg width="97" height="94" viewBox="0 0 97 94" fill="none" xmlns="http://www.w3.org/2000/svg">
<g opacity="0.5">
<path d="M2.888 66.6491H10.26C11.8307 66.6491 13.11 66.7884 14.098 67.0671C15.1113 67.3204 16.0613 67.8271 16.948 68.5871C18.6707 70.1071 19.532 72.1464 19.532 74.7051C19.532 77.0864 18.8353 78.9738 17.442 80.3671C15.9473 81.8618 13.8067 82.6091 11.02 82.6091H7.828V91.9951H2.888V66.6491ZM7.828 70.9051V78.3531H9.842C11.286 78.3531 12.3627 78.0871 13.072 77.5551C13.984 76.8458 14.44 75.8578 14.44 74.5911C14.44 73.3498 13.9713 72.3871 13.034 71.7031C12.274 71.1711 11.1087 70.9051 9.538 70.9051H7.828ZM22.5028 63.5331H27.1388V91.9951H22.5028V63.5331ZM44.1735 77.6691V75.5411H48.8095V91.9951H44.1735V89.8671C42.9322 91.6405 41.2475 92.5271 39.1195 92.5271C36.6368 92.5271 34.6102 91.6785 33.0395 89.9811C31.4942 88.2838 30.7215 86.2065 30.7215 83.7491C30.7215 81.2664 31.4815 79.1891 33.0015 77.5171C34.5215 75.8451 36.4848 75.0091 38.8915 75.0091C41.2728 75.0091 43.0335 75.8958 44.1735 77.6691ZM43.3375 80.4431C42.4762 79.5564 41.3868 79.1131 40.0695 79.1131C38.7522 79.1131 37.6628 79.5564 36.8015 80.4431C35.9402 81.3298 35.5095 82.4318 35.5095 83.7491C35.5095 85.0665 35.9402 86.1811 36.8015 87.0931C37.6628 87.9798 38.7522 88.4231 40.0695 88.4231C41.3868 88.4231 42.4762 87.9798 43.3375 87.0931C44.1988 86.1811 44.6295 85.0665 44.6295 83.7491C44.6295 82.4318 44.1988 81.3298 43.3375 80.4431ZM53.2294 91.9951V75.5411H57.8654V77.6691C59.1321 75.8958 60.8294 75.0091 62.9574 75.0091C65.1107 75.0091 66.7321 75.6804 67.8214 77.0231C68.6827 78.0871 69.1134 79.6324 69.1134 81.6591V91.9951H64.4774V83.0271C64.4774 81.4818 64.1861 80.4051 63.6034 79.7971C63.0714 79.2398 62.3494 78.9611 61.4374 78.9611C60.1707 78.9611 59.2207 79.4424 58.5874 80.4051C58.1061 81.1651 57.8654 82.2291 57.8654 83.5971V91.9951H53.2294ZM74.2122 66.6491H81.5462C84.3329 66.6491 86.4862 67.2824 88.0062 68.5491C89.6782 69.9678 90.5142 71.8678 90.5142 74.2491C90.5142 76.8838 89.5262 78.8725 87.5502 80.2151C86.7902 80.7471 85.8656 81.1145 84.7762 81.3171L92.6802 91.9951H86.5242L79.7602 81.8111H79.1522V91.9951H74.2122V66.6491ZM79.1522 70.6771V78.3151H80.5582C80.9636 78.3151 81.3562 78.2898 81.7362 78.2391C82.1416 78.1631 82.6609 78.0238 83.2942 77.8211C83.9276 77.5931 84.4342 77.2004 84.8142 76.6431C85.2196 76.0604 85.4222 75.3384 85.4222 74.4771C85.4222 73.6158 85.2322 72.9064 84.8522 72.3491C84.4722 71.7664 83.9656 71.3738 83.3322 71.1711C82.6989 70.9431 82.1922 70.8038 81.8122 70.7531C81.4322 70.7024 81.0396 70.6771 80.6342 70.6771H79.1522Z" fill="white"/>
<path d="M42.099 17.2558L41.6042 16.0618C41.5661 15.9679 41.5051 15.8851 41.4268 15.8209C41.3484 15.7567 41.2553 15.7131 41.1558 15.6942C41.0562 15.6753 40.9536 15.6817 40.8572 15.7127C40.7607 15.7437 40.6736 15.7984 40.6038 15.8717C40.1879 16.3116 39.7564 16.7323 39.3094 17.1339C36.8931 19.3283 33.9882 20.9148 30.8359 21.7616C27.6836 22.6085 24.3747 22.6913 21.184 22.0031C20.5792 21.8765 19.9816 21.7235 19.3912 21.5442C19.2942 21.5157 19.1916 21.512 19.0928 21.5334C18.994 21.5547 18.9021 21.6004 18.8255 21.6663C18.7489 21.7323 18.6899 21.8163 18.6541 21.9109C18.6183 22.0054 18.6066 22.1074 18.6203 22.2075L18.7924 23.484C18.8247 23.7171 18.9824 24.4593 19.2048 24.531C23.1854 25.8577 27.4678 25.9873 31.5214 24.9038C35.5749 23.8203 39.2215 21.5713 42.0094 18.4354C42.1611 18.0611 42.1924 17.6488 42.099 17.2558Z" fill="#FBBA0E"/>
<path d="M47.402 23.3515L46.8319 22.1073C46.7922 22.0197 46.7323 21.9429 46.657 21.8831C46.5818 21.8233 46.4934 21.7822 46.3992 21.7633C46.305 21.7444 46.2076 21.7482 46.1151 21.7743C46.0227 21.8004 45.9377 21.8482 45.8673 21.9136C45.0116 22.7003 44.1139 23.44 43.1781 24.1296C39.8193 26.5854 36.0294 28.3891 32.0053 29.4471C27.9853 30.5366 23.7963 30.8614 19.6564 30.4044C18.4812 30.2739 17.3141 30.0787 16.1604 29.82C16.0668 29.7985 15.9694 29.7996 15.8763 29.8231C15.7833 29.8467 15.6971 29.892 15.6249 29.9554C15.5528 30.0188 15.4968 30.0984 15.4614 30.1877C15.4261 30.277 15.4125 30.3734 15.4218 30.469L15.5473 31.8315C15.5724 32.0897 15.9417 33.1331 16.1963 33.1904C21.7014 34.4531 27.4328 34.3398 32.8838 32.8606C38.3225 31.4215 43.3249 28.6697 47.4522 24.8467C47.6422 24.6782 47.5131 23.5738 47.402 23.3515Z" fill="#FBBA0E"/>
<path d="M53.5407 29.8057L52.9275 28.5435C52.8868 28.4594 52.8271 28.3858 52.7532 28.3285C52.6792 28.2713 52.5931 28.2319 52.5014 28.2135C52.4097 28.1951 52.315 28.1982 52.2247 28.2225C52.1344 28.2467 52.051 28.2916 51.9809 28.3535C50.7208 29.4699 49.3889 30.5023 47.9937 31.4443C44.1094 34.0638 39.8143 36.015 35.2862 37.2172C30.7648 38.4452 26.0697 38.9082 21.3955 38.5869C19.693 38.4665 18.0004 38.2329 16.329 37.8877C16.2379 37.8704 16.144 37.8743 16.0546 37.8991C15.9652 37.9238 15.8827 37.9688 15.8135 38.0304C15.7442 38.0921 15.69 38.1688 15.655 38.2547C15.6201 38.3406 15.6053 38.4334 15.6119 38.5259L15.7123 39.9279C15.7302 40.1968 16.1103 41.2474 16.3756 41.3048C22.9375 42.6311 29.719 42.4002 36.1754 40.6307C42.6167 38.9347 48.5737 35.7598 53.5729 31.3583C53.7845 31.179 53.659 30.0603 53.5407 29.8057Z" fill="#FBBA0E"/>
<path d="M58.1842 36.3492L57.5172 35.0691C57.4754 34.9873 57.4156 34.9161 57.3423 34.8608C57.2689 34.8055 57.1839 34.7676 57.0938 34.75C57.0036 34.7324 56.9107 34.7355 56.8219 34.7591C56.7331 34.7827 56.6509 34.8262 56.5814 34.8862C54.8464 36.3757 53.0018 37.7326 51.0631 38.9452C46.6189 41.716 41.7843 43.8046 36.7206 45.1411C31.6676 46.5109 26.4378 47.1152 21.2056 46.934C18.8969 46.8518 16.5979 46.5941 14.3283 46.163C14.2381 46.1461 14.1453 46.1498 14.0568 46.174C13.9682 46.1981 13.8863 46.2421 13.8173 46.3025C13.7482 46.363 13.6938 46.4383 13.6581 46.5228C13.6224 46.6074 13.6064 46.6989 13.6112 46.7905L13.6793 48.2248C13.6793 48.5045 14.2602 49.4726 14.5363 49.5264C21.6466 50.8781 29.6676 50.6236 37.7819 48.4507C45.8962 46.2778 52.9169 42.5129 58.3921 37.8121C58.6216 37.6364 58.3132 36.6002 58.1842 36.3492Z" fill="#FBBA0E"/>
<path d="M19.7066 9.7978C19.1769 7.79791 19.4633 5.66952 20.5029 3.88084C21.5425 2.09216 23.2501 0.789715 25.2499 0.260026C27.2498 -0.269663 29.3782 0.0167937 31.1669 1.05638C32.9556 2.09597 34.258 3.80352 34.7877 5.80341" fill="#399AD6"/>
<path d="M29.5677 15.3271C36.3789 13.4702 41.2509 9.58275 40.4498 6.64432C39.6487 3.70588 33.4778 2.82914 26.6666 4.68607C19.8555 6.543 14.9834 10.4304 15.7845 13.3689C16.5856 16.3073 22.7566 17.184 29.5677 15.3271Z" fill="#399AD6"/>
</g>
</svg>
