<svg width="17" height="14" viewBox="0 0 17 14" fill="none" xmlns="http://www.w3.org/2000/svg">
<path d="M15 2.7336e-10H1.66C1.44116 -3.97056e-06 1.22449 0.0432566 1.02243 0.127304C0.820375 0.211352 0.636942 0.334525 0.482666 0.489731C0.328389 0.644937 0.206337 0.829121 0.123504 1.03168C0.0406719 1.23423 -0.00128818 1.45116 3.01262e-05 1.67V11.67C3.01262e-05 12.1129 0.17595 12.5377 0.489135 12.8509C0.802321 13.164 1.2271 13.34 1.67001 13.34H15C15.4429 13.34 15.8677 13.164 16.1809 12.8509C16.4941 12.5377 16.67 12.1129 16.67 11.67V1.67C16.67 1.22709 16.4941 0.802306 16.1809 0.48912C15.8677 0.175935 15.4429 2.73388e-10 15 2.7336e-10ZM15 11.67H1.66V3.34L8.33002 7.50999L15 3.34V11.67ZM8.33002 5.84L1.66 1.67H14.99L8.33002 5.84Z" fill="white"/>
</svg>
