<svg width="20" height="20" viewBox="0 0 20 20" fill="none" xmlns="http://www.w3.org/2000/svg">
<path d="M16.7501 6.41662L15.9167 7.24995C17.4167 8.74995 17.4167 11.0833 15.9167 12.6666L16.7501 13.4999C18.8334 11.5833 18.8334 8.41662 16.7501 6.41662ZM15.0001 8.16662L14.1667 8.99995C14.5834 9.58328 14.5834 10.3333 14.1667 10.9166L15.0001 11.7499C16.0001 10.7499 16.0001 9.24995 15.0001 8.16662ZM11.6667 0.833282H3.33341C2.41675 0.833282 1.66675 1.58328 1.66675 2.49995V17.4999C1.66675 18.4166 2.41675 19.1666 3.33341 19.1666H11.6667C12.5834 19.1666 13.3334 18.4166 13.3334 17.4999V2.49995C13.3334 1.58328 12.5834 0.833282 11.6667 0.833282ZM11.6667 16.6666H3.33341V3.33328H11.6667V16.6666Z" fill="white"/>
</svg>
