<svg width="1920" height="1080" viewBox="0 0 1920 1080" fill="none" xmlns="http://www.w3.org/2000/svg">
<rect width="1920" height="1080" fill="white"/>
<path d="M787.66 459.55H855.56C870.026 459.55 881.81 460.833 890.91 463.4C900.243 465.733 908.993 470.4 917.16 477.4C933.026 491.4 940.96 510.183 940.96 533.75C940.96 555.683 934.543 573.067 921.71 585.9C907.943 599.667 888.226 606.55 862.56 606.55H833.16V693H787.66V459.55ZM833.16 498.75V567.35H851.71C865.01 567.35 874.926 564.9 881.46 560C889.86 553.467 894.06 544.367 894.06 532.7C894.06 521.267 889.743 512.4 881.11 506.1C874.11 501.2 863.376 498.75 848.91 498.75H833.16ZM968.322 430.85H1011.02V693H968.322V430.85ZM1167.92 561.05V541.45H1210.62V693H1167.92V673.4C1156.49 689.733 1140.97 697.9 1121.37 697.9C1098.5 697.9 1079.84 690.083 1065.37 674.45C1051.14 658.817 1044.02 639.683 1044.02 617.05C1044.02 594.183 1051.02 575.05 1065.02 559.65C1079.02 544.25 1097.1 536.55 1119.27 536.55C1141.2 536.55 1157.42 544.717 1167.92 561.05ZM1160.22 586.6C1152.29 578.433 1142.25 574.35 1130.12 574.35C1117.99 574.35 1107.95 578.433 1100.02 586.6C1092.09 594.767 1088.12 604.917 1088.12 617.05C1088.12 629.183 1092.09 639.45 1100.02 647.85C1107.95 656.017 1117.99 660.1 1130.12 660.1C1142.25 660.1 1152.29 656.017 1160.22 647.85C1168.15 639.45 1172.12 629.183 1172.12 617.05C1172.12 604.917 1168.15 594.767 1160.22 586.6ZM1251.33 693V541.45H1294.03V561.05C1305.7 544.717 1321.33 536.55 1340.93 536.55C1360.76 536.55 1375.7 542.733 1385.73 555.1C1393.66 564.9 1397.63 579.133 1397.63 597.8V693H1354.93V610.4C1354.93 596.167 1352.25 586.25 1346.88 580.65C1341.98 575.517 1335.33 572.95 1326.93 572.95C1315.26 572.95 1306.51 577.383 1300.68 586.25C1296.25 593.25 1294.03 603.05 1294.03 615.65V693H1251.33ZM1444.59 459.55H1512.14C1537.81 459.55 1557.64 465.383 1571.64 477.05C1587.04 490.117 1594.74 507.617 1594.74 529.55C1594.74 553.817 1585.64 572.133 1567.44 584.5C1560.44 589.4 1551.93 592.783 1541.89 594.65L1614.69 693H1557.99L1495.69 599.2H1490.09V693H1444.59V459.55ZM1490.09 496.65V567H1503.04C1506.78 567 1510.39 566.767 1513.89 566.3C1517.63 565.6 1522.41 564.317 1528.24 562.45C1534.08 560.35 1538.74 556.733 1542.24 551.6C1545.98 546.233 1547.84 539.583 1547.84 531.65C1547.84 523.717 1546.09 517.183 1542.59 512.05C1539.09 506.683 1534.43 503.067 1528.59 501.2C1522.76 499.1 1518.09 497.817 1514.59 497.35C1511.09 496.883 1507.48 496.65 1503.74 496.65H1490.09Z" fill="#3D3D3D"/>
<path d="M528.557 479.281L524.221 470.201C523.888 469.488 523.353 468.858 522.667 468.37C521.98 467.881 521.164 467.55 520.292 467.407C519.42 467.263 518.52 467.311 517.675 467.547C516.83 467.783 516.067 468.198 515.455 468.756C511.81 472.101 508.029 475.3 504.111 478.354C482.924 495.039 457.455 507.098 429.819 513.528C402.183 519.959 373.178 520.575 345.212 515.326C339.913 514.363 334.676 513.199 329.502 511.836C328.651 511.62 327.753 511.591 326.887 511.754C326.021 511.916 325.215 512.263 324.544 512.765C323.872 513.266 323.356 513.905 323.042 514.624C322.728 515.343 322.626 516.118 322.746 516.88L324.223 526.587C324.506 528.359 325.888 534.003 327.836 534.548C362.719 544.636 400.247 545.622 435.769 537.383C471.291 529.144 503.247 512.042 527.678 488.197C529.026 485.375 529.333 482.26 528.557 479.281V479.281Z" fill="#FBBA0E"/>
<path d="M574.967 525.442L570.003 515.98C569.655 515.315 569.13 514.731 568.471 514.276C567.811 513.821 567.037 513.509 566.211 513.365C565.386 513.221 564.532 513.25 563.722 513.449C562.911 513.647 562.167 514.011 561.55 514.508C554.051 520.49 546.184 526.115 537.984 531.358C478.534 569.041 405.026 586.132 331.827 579.291C321.529 578.298 311.301 576.815 301.191 574.847C300.371 574.684 299.518 574.692 298.702 574.871C297.886 575.05 297.131 575.395 296.499 575.877C295.866 576.359 295.375 576.964 295.066 577.643C294.756 578.322 294.637 579.055 294.718 579.782L295.818 590.143C296.038 592.106 299.274 600.04 301.505 600.477C349.669 609.926 399.756 609.089 447.465 598.037C495.174 586.986 539.078 566.051 575.407 537.03C577.073 535.639 575.91 527.214 574.967 525.442Z" fill="#FBBA0E"/>
<path d="M628.73 574.71L623.419 565.14C623.062 564.5 622.539 563.941 621.891 563.505C621.244 563.07 620.488 562.771 619.685 562.631C618.882 562.491 618.052 562.514 617.261 562.699C616.469 562.883 615.738 563.224 615.124 563.695C604.072 572.185 592.389 580.036 580.152 587.198C546.086 607.084 508.425 621.885 468.731 630.987C429.078 640.334 387.902 643.855 346.909 641.402C331.99 640.487 317.158 638.711 302.51 636.085C301.712 635.954 300.889 635.984 300.106 636.172C299.323 636.36 298.6 636.702 297.993 637.171C297.386 637.64 296.911 638.223 296.604 638.876C296.298 639.53 296.169 640.235 296.226 640.939L297.106 651.599C297.263 653.644 300.594 661.633 302.919 662.07C360.422 672.155 419.85 670.399 476.429 656.944C532.973 644.091 585.275 619.956 629.169 586.462C630.898 585.071 629.704 576.565 628.73 574.71Z" fill="#FBBA0E"/>
<path d="M669.452 624.416L663.671 614.682C663.304 614.06 662.78 613.518 662.137 613.098C661.494 612.677 660.75 612.389 659.96 612.255C659.17 612.121 658.355 612.145 657.577 612.325C656.799 612.504 656.079 612.835 655.47 613.291C640.286 624.615 624.142 634.933 607.175 644.156C568.23 665.226 525.863 681.107 481.488 691.271C437.208 701.686 391.378 706.282 345.527 704.904C325.305 704.26 305.168 702.282 285.292 698.987C284.501 698.858 283.688 698.887 282.912 699.07C282.136 699.254 281.419 699.588 280.813 700.048C280.208 700.507 279.731 701.08 279.418 701.723C279.106 702.366 278.965 703.062 279.007 703.759L279.604 714.665C279.604 716.792 284.695 724.153 287.114 724.562C349.423 734.841 419.713 732.906 490.82 716.383C561.927 699.86 623.451 671.231 671.432 635.485C673.286 634.204 670.552 626.297 669.452 624.416Z" fill="#FBBA0E"/>
<path d="M332.236 422.487C327.598 407.279 330.112 391.096 339.225 377.497C348.338 363.898 363.304 353.998 380.829 349.974C398.354 345.95 417.004 348.131 432.676 356.039C448.348 363.947 459.757 376.933 464.395 392.14" fill="#3A9CD7"/>
<path d="M418.703 464.558C478.391 450.437 521.086 420.877 514.065 398.533C507.045 376.188 452.968 369.522 393.281 383.642C333.593 397.762 290.898 427.323 297.918 449.667C304.939 472.011 359.016 478.678 418.703 464.558Z" fill="#3A9CD7"/>
</svg>
