<svg width="1440" height="1024" viewBox="0 0 1440 1024" fill="none" xmlns="http://www.w3.org/2000/svg">
<rect width="1440" height="1024" fill="white"/>
<path d="M547.66 431.55H615.56C630.026 431.55 641.81 432.833 650.91 435.4C660.243 437.733 668.993 442.4 677.16 449.4C693.026 463.4 700.96 482.183 700.96 505.75C700.96 527.683 694.543 545.067 681.71 557.9C667.943 571.667 648.226 578.55 622.56 578.55H593.16V665H547.66V431.55ZM593.16 470.75V539.35H611.71C625.01 539.35 634.926 536.9 641.46 532C649.86 525.467 654.06 516.367 654.06 504.7C654.06 493.267 649.743 484.4 641.11 478.1C634.11 473.2 623.376 470.75 608.91 470.75H593.16ZM728.322 402.85H771.022V665H728.322V402.85ZM927.921 533.05V513.45H970.621V665H927.921V645.4C916.488 661.733 900.971 669.9 881.371 669.9C858.504 669.9 839.838 662.083 825.371 646.45C811.138 630.817 804.021 611.683 804.021 589.05C804.021 566.183 811.021 547.05 825.021 531.65C839.021 516.25 857.104 508.55 879.271 508.55C901.204 508.55 917.421 516.717 927.921 533.05ZM920.221 558.6C912.288 550.433 902.254 546.35 890.121 546.35C877.988 546.35 867.954 550.433 860.021 558.6C852.088 566.767 848.121 576.917 848.121 589.05C848.121 601.183 852.088 611.45 860.021 619.85C867.954 628.017 877.988 632.1 890.121 632.1C902.254 632.1 912.288 628.017 920.221 619.85C928.154 611.45 932.121 601.183 932.121 589.05C932.121 576.917 928.154 566.767 920.221 558.6ZM1011.33 665V513.45H1054.03V533.05C1065.7 516.717 1081.33 508.55 1100.93 508.55C1120.76 508.55 1135.7 514.733 1145.73 527.1C1153.66 536.9 1157.63 551.133 1157.63 569.8V665H1114.93V582.4C1114.93 568.167 1112.25 558.25 1106.88 552.65C1101.98 547.517 1095.33 544.95 1086.93 544.95C1075.26 544.95 1066.51 549.383 1060.68 558.25C1056.25 565.25 1054.03 575.05 1054.03 587.65V665H1011.33ZM1204.59 431.55H1272.14C1297.81 431.55 1317.64 437.383 1331.64 449.05C1347.04 462.117 1354.74 479.617 1354.74 501.55C1354.74 525.817 1345.64 544.133 1327.44 556.5C1320.44 561.4 1311.93 564.783 1301.89 566.65L1374.69 665H1317.99L1255.69 571.2H1250.09V665H1204.59V431.55ZM1250.09 468.65V539H1263.04C1266.78 539 1270.39 538.767 1273.89 538.3C1277.63 537.6 1282.41 536.317 1288.24 534.45C1294.08 532.35 1298.74 528.733 1302.24 523.6C1305.98 518.233 1307.84 511.583 1307.84 503.65C1307.84 495.717 1306.09 489.183 1302.59 484.05C1299.09 478.683 1294.43 475.067 1288.59 473.2C1282.76 471.1 1278.09 469.817 1274.59 469.35C1271.09 468.883 1267.48 468.65 1263.74 468.65H1250.09Z" fill="#3D3D3D"/>
<path d="M288.557 451.281L284.221 442.201C283.888 441.488 283.353 440.858 282.667 440.37C281.98 439.881 281.164 439.55 280.292 439.407C279.42 439.263 278.52 439.311 277.675 439.547C276.83 439.783 276.067 440.198 275.455 440.756C271.81 444.101 268.029 447.3 264.111 450.354C242.924 467.039 217.455 479.098 189.819 485.528C162.183 491.959 133.178 492.575 105.212 487.326C99.9126 486.363 94.6757 485.199 89.5016 483.836C88.6515 483.62 87.7526 483.591 86.8867 483.754C86.0208 483.916 85.2154 484.263 84.5439 484.765C83.8725 485.266 83.3562 485.905 83.0421 486.624C82.7281 487.343 82.6263 488.118 82.7459 488.88L84.2227 498.587C84.5055 500.359 85.8881 506.003 87.8362 506.548C122.719 516.636 160.247 517.622 195.769 509.383C231.291 501.144 263.247 484.042 287.678 460.197C289.026 457.375 289.333 454.26 288.557 451.281V451.281Z" fill="#FBBA0E"/>
<path d="M334.967 497.442L330.003 487.98C329.655 487.315 329.13 486.731 328.471 486.276C327.811 485.821 327.037 485.509 326.211 485.365C325.386 485.221 324.532 485.25 323.722 485.449C322.911 485.647 322.167 486.011 321.55 486.508C314.051 492.49 306.184 498.115 297.984 503.358C238.534 541.041 165.026 558.132 91.827 551.291C81.5287 550.298 71.3013 548.815 61.1909 546.847C60.3707 546.684 59.5175 546.692 58.7017 546.871C57.8858 547.05 57.1307 547.395 56.4986 547.877C55.8664 548.359 55.3753 548.964 55.0657 549.643C54.7562 550.322 54.637 551.055 54.7181 551.782L55.8178 562.143C56.0378 564.106 59.2742 572.04 61.5051 572.477C109.669 581.926 159.756 581.089 207.465 570.037C255.174 558.986 299.078 538.051 335.407 509.03C337.073 507.639 335.91 499.214 334.967 497.442Z" fill="#FBBA0E"/>
<path d="M388.73 546.71L383.419 537.14C383.062 536.5 382.539 535.941 381.891 535.505C381.244 535.07 380.488 534.771 379.685 534.631C378.882 534.491 378.052 534.514 377.261 534.699C376.469 534.883 375.738 535.224 375.124 535.695C364.072 544.185 352.389 552.036 340.152 559.198C306.086 579.084 268.425 593.885 228.731 602.987C189.078 612.334 147.902 615.855 106.909 613.402C91.9901 612.487 77.1577 610.711 62.5105 608.085C61.7119 607.954 60.8894 607.984 60.1061 608.172C59.3229 608.36 58.5998 608.702 57.9927 609.171C57.3856 609.64 56.9107 610.223 56.6044 610.876C56.2981 611.53 56.1687 612.235 56.2262 612.939L57.106 623.599C57.2631 625.644 60.5938 633.633 62.919 634.07C120.422 644.155 179.85 642.399 236.429 628.944C292.973 616.091 345.275 591.956 389.169 558.462C390.898 557.071 389.704 548.565 388.73 546.71Z" fill="#FBBA0E"/>
<path d="M429.452 596.416L423.671 586.682C423.304 586.06 422.78 585.518 422.137 585.098C421.494 584.677 420.75 584.389 419.96 584.255C419.17 584.121 418.355 584.145 417.577 584.325C416.799 584.504 416.079 584.835 415.47 585.291C400.286 596.615 384.142 606.933 367.175 616.156C328.23 637.226 285.863 653.107 241.488 663.271C197.208 673.686 151.378 678.282 105.527 676.904C85.3047 676.26 65.1682 674.282 45.2917 670.987C44.5014 670.858 43.6877 670.887 42.9119 671.07C42.1362 671.254 41.4186 671.588 40.8134 672.048C40.2082 672.507 39.7312 673.08 39.4184 673.723C39.1055 674.366 38.965 675.062 39.0074 675.759L39.6044 686.665C39.6044 688.792 44.6947 696.153 47.1142 696.562C109.423 706.841 179.713 704.906 250.82 688.383C321.927 671.86 383.451 643.231 431.432 607.485C433.286 606.204 430.552 598.297 429.452 596.416Z" fill="#FBBA0E"/>
<path d="M92.2356 394.487C87.598 379.279 90.1122 363.096 99.2253 349.497C108.338 335.898 123.304 325.998 140.829 321.974C158.354 317.95 177.004 320.131 192.676 328.039C208.348 335.947 219.757 348.933 224.395 364.14" fill="#3A9CD7"/>
<path d="M178.703 436.558C238.391 422.437 281.086 392.877 274.065 370.533C267.045 348.188 212.968 341.522 153.281 355.642C93.5932 369.762 50.8981 399.323 57.9184 421.667C64.9387 444.011 119.016 450.678 178.703 436.558Z" fill="#3A9CD7"/>
</svg>
