<svg width="807" height="488" viewBox="0 0 807 488" fill="none" xmlns="http://www.w3.org/2000/svg">
<path opacity="0.5" d="M43.3062 237.735C56.6457 229.166 71.5608 224.618 87.2111 223.877C92.5679 185.056 110.949 151.629 141.83 131.636C160.631 119.471 181.953 113.653 204.116 113.442C206.637 94.1895 215.67 77.5818 230.9 67.7442C263.461 46.6937 311.882 64.2534 339.086 106.883C357.888 136.396 361.564 170.246 351.271 195.211C355.262 200.5 359.043 205.895 362.72 211.607C368.391 220.598 373.433 229.695 377.74 238.898C394.545 239.11 412.296 245.986 427.947 258.256C460.193 243.024 504.308 260.901 529.831 300.886C548.633 330.399 552.309 364.249 542.015 389.214C542.015 389.214 812.482 439.46 806.915 439.46L46.4573 429.093C38.9997 429.093 31.9624 425.285 27.971 419.044C27.971 419.044 27.971 418.938 27.866 418.938C-14.5684 351.873 -7.84615 270.738 43.3062 237.735Z" fill="#C8C8C8"/>
<path d="M175.29 51.5775C175.29 51.7892 175.519 52.0008 175.862 52.1067L183.86 53.2708C185.346 56.5515 187.403 59.5148 189.917 62.2664L187.631 69.4629C187.517 69.6745 187.631 69.992 187.86 70.0978L195.859 75.2835C196.087 75.3894 196.43 75.3894 196.659 75.2835L203.286 70.9445C206.943 72.3203 210.714 73.0611 214.485 73.2728L218.37 79.8342C218.484 80.0459 218.827 80.1517 219.055 80.1517L228.654 78.6701C228.883 78.6701 229.111 78.4584 229.225 78.1409L230.482 70.7328C234.025 69.357 237.224 67.4521 240.195 65.1238L247.966 67.2404C248.194 67.3462 248.537 67.2404 248.651 67.0288L254.251 59.6206C254.365 59.409 254.365 59.0915 254.251 58.8798L249.565 52.7416C251.051 49.3551 251.851 45.8627 252.079 42.3703L259.164 38.772C259.393 38.6662 259.507 38.3487 259.507 38.1371L257.907 29.2473C257.907 29.0356 257.679 28.824 257.336 28.7182L249.337 27.554C247.851 24.2733 245.795 21.31 243.281 18.5584L245.566 11.362C245.68 11.1503 245.566 10.8328 245.337 10.727L237.339 5.5413C237.11 5.43547 236.767 5.43547 236.539 5.5413L229.911 9.88034C226.254 8.50455 222.484 7.76373 218.713 7.55207L214.827 0.990588C214.713 0.778927 214.37 0.673096 214.142 0.673096L204.543 2.15472C204.315 2.15472 204.086 2.36638 203.972 2.68387L202.715 10.092C199.173 11.4678 195.973 13.3727 193.002 15.701L185.232 13.5844C185.003 13.4786 184.66 13.5844 184.546 13.7961L178.947 21.2042C178.833 21.4159 178.833 21.7333 178.947 21.945L183.632 28.0832C182.146 31.4697 181.346 34.9621 181.118 38.4545L174.033 42.0528C173.805 42.1586 173.69 42.4761 173.69 42.6878L175.29 51.5775Z" fill="#B9BCC5"/>
<path d="M211.742 48.2968C207.629 46.0743 205.686 41.4178 207.4 37.1846C209.343 32.528 215.056 30.1998 220.084 31.9989C222.484 32.8455 224.426 34.5388 225.455 36.7613C226.483 38.9837 226.597 41.4178 225.683 43.6402C223.741 48.2968 218.027 50.6251 212.999 48.8259C212.656 48.7201 212.199 48.5084 211.742 48.2968ZM220.313 34.3272C219.97 34.1155 219.627 34.0097 219.284 33.9038C215.399 32.528 211.057 34.3272 209.571 37.9254C208.086 41.5236 210.028 45.5452 213.913 46.921C217.799 48.2968 222.141 46.4977 223.626 42.8994C224.312 41.2061 224.312 39.3012 223.512 37.6079C222.826 36.2321 221.684 35.068 220.313 34.3272Z" fill="#D7D9E0"/>
<path d="M205 59.8323C204.315 59.409 203.629 59.0915 202.943 58.5623C202.715 58.4565 202.486 58.2448 202.258 58.139C201.229 57.3982 200.315 56.6574 199.401 55.8107L199.287 55.7049C199.173 55.5991 199.173 55.5991 199.058 55.4932C198.83 55.2816 198.83 55.0699 198.944 54.8583L199.058 54.7524C199.287 54.5408 199.63 54.5408 199.858 54.7524C201.001 55.8107 202.144 56.869 203.515 57.7157C210.142 62.0547 218.37 62.6897 225.455 60.044C229.34 58.5623 232.882 56.1282 235.51 52.6358C235.967 52.0008 236.424 51.4717 236.767 50.8367C239.395 46.6035 240.31 41.7353 239.395 36.8671C238.367 31.2581 235.053 26.3899 230.025 23.1091C219.741 16.336 205.343 18.6642 198.144 28.189C197.687 28.824 197.23 29.3531 196.887 29.9881C195.287 32.7397 194.259 35.7029 194.03 38.772C194.03 38.8779 194.03 38.8779 193.916 38.9837C193.802 39.1953 193.573 39.3012 193.345 39.3012C193.002 39.3012 192.773 38.9837 192.773 38.772C193.002 35.4913 194.03 32.3164 195.859 29.5648C196.202 28.9298 196.659 28.2948 197.116 27.6598C204.772 17.6059 219.855 15.2777 230.597 22.3683C235.853 25.7549 239.281 30.9406 240.424 36.7612C241.338 41.8411 240.424 47.0268 237.681 51.4717C237.224 52.1067 236.882 52.7416 236.31 53.3766C232.654 58.2448 227.054 61.4197 220.77 62.4781C215.285 63.2189 209.8 62.2664 205 59.8323Z" fill="#D7D9E0"/>
<path d="M113.013 43.9578C113.013 44.1694 113.242 44.2753 113.356 44.2753L118.727 45.1219C119.755 47.2385 121.126 49.3551 122.84 51.1542L121.355 56.0224C121.355 56.2341 121.355 56.3399 121.469 56.4457L126.84 59.9381C126.954 60.044 127.183 60.044 127.411 59.9381L131.868 56.9749C134.267 57.9274 136.781 58.3507 139.295 58.5623L141.924 63.0072C142.038 63.113 142.152 63.2189 142.381 63.2189L148.78 62.1606C149.008 62.1606 149.123 61.9489 149.123 61.8431L150.037 56.8691C152.322 55.9166 154.607 54.6466 156.55 53.0592L161.806 54.435C162.035 54.435 162.149 54.435 162.264 54.3291L166.034 49.3551C166.149 49.2493 166.149 49.0376 166.034 48.826L162.835 44.6986C163.863 42.4762 164.32 40.1479 164.549 37.8196L169.348 35.3855C169.463 35.2797 169.577 35.1739 169.577 34.9622L168.434 29.0357C168.434 28.8241 168.206 28.7182 168.091 28.7182L162.721 27.8716C161.692 25.755 160.321 23.6384 158.607 21.8393L160.092 16.9711C160.092 16.7594 160.092 16.6536 159.978 16.5478L154.607 13.0554C154.493 12.9496 154.265 12.9496 154.036 13.0554L149.58 16.0186C147.18 15.0662 144.666 14.6428 142.152 14.4312L139.524 9.98632C139.41 9.88049 139.295 9.77466 139.067 9.77466L132.668 10.833C132.439 10.833 132.325 11.0446 132.325 11.1504L131.411 16.1245C129.125 17.0769 126.84 18.3469 124.897 19.9343L119.641 18.5586C119.412 18.5586 119.298 18.5586 119.184 18.6644L115.413 23.6384C115.299 23.7442 115.299 23.9559 115.413 24.1676L118.613 28.2949C117.584 30.5174 117.127 32.8456 116.898 35.1739L112.099 37.608C111.985 37.7138 111.871 37.8196 111.871 38.0313L113.013 43.9578Z" fill="#B9BCC5"/>
<path d="M137.353 41.8412C136.096 41.2062 135.182 40.1479 134.61 38.9838C133.925 37.5021 133.81 35.8088 134.496 34.2214C135.867 31.0464 139.638 29.459 143.066 30.7289C146.494 31.9989 148.208 35.4913 146.837 38.6663C146.152 40.2537 144.895 41.4179 143.295 42.0529C141.695 42.6879 139.867 42.7937 138.153 42.1587C137.924 42.1587 137.581 41.947 137.353 41.8412ZM143.066 32.5281C142.838 32.4222 142.609 32.3164 142.381 32.2106C139.867 31.2581 137.01 32.5281 136.096 34.8564C135.639 36.0205 135.639 37.1846 136.21 38.3488C136.781 39.4071 137.696 40.2537 138.953 40.7829C140.21 41.2062 141.466 41.2062 142.723 40.6771C143.866 40.1479 144.895 39.3013 145.352 38.1371C146.037 36.0205 145.123 33.5864 143.066 32.5281Z" fill="#D7D9E0"/>
<path d="M132.554 49.7783C132.096 49.5667 131.639 49.2492 131.182 48.9317C130.268 48.2967 129.354 47.6617 128.668 46.9209L128.554 46.8151C128.326 46.4976 128.211 46.1801 128.44 45.8626C128.44 45.7568 128.554 45.7568 128.668 45.651C129.011 45.3335 129.583 45.3335 129.925 45.651C130.611 46.3918 131.411 47.0268 132.325 47.5559L132.439 47.6617C134.496 48.9317 136.782 49.7783 139.295 49.99C140.552 50.0958 141.924 50.0958 143.295 49.8842H143.409C147.294 49.2492 150.722 47.2384 153.008 44.2752C153.351 43.8519 153.579 43.5344 153.808 43.111C155.522 40.3595 156.093 37.1846 155.522 34.0097C154.836 30.4114 152.665 27.2365 149.465 25.1199C146.266 23.0033 142.266 22.1567 138.381 22.7917C134.496 23.4266 131.068 25.4374 128.783 28.4007C128.44 28.824 128.211 29.1415 127.983 29.5648C126.954 31.3639 126.269 33.2688 126.154 35.2796C126.154 35.3854 126.154 35.4913 126.04 35.5971C125.926 35.9146 125.583 36.0204 125.24 36.0204C124.783 36.0204 124.44 35.5971 124.44 35.1738C124.669 32.9514 125.355 30.7289 126.497 28.824C126.726 28.4007 127.069 27.9773 127.411 27.554C129.925 24.1675 133.811 21.945 138.153 21.31C142.495 20.5692 146.952 21.5217 150.494 23.9558C154.151 26.2841 156.55 29.8823 157.236 33.9038C157.921 37.3962 157.236 40.9944 155.293 44.0635C155.065 44.4868 154.722 45.016 154.379 45.4393C149.351 51.7891 139.867 53.5882 132.554 49.7783Z" fill="#D7D9E0"/>
<path d="M68.5626 363.142C68.5626 367.587 72.4478 371.185 77.2471 371.185H545.296C550.095 371.185 553.98 367.587 553.98 363.142L557.865 114.017C557.865 109.573 552.266 101 541.982 101.635L84.5604 90.7347C78.6183 90.6289 72.7906 92.7455 68.5626 96.6612C64.3346 100.577 62.0492 105.868 62.1635 111.477L68.5626 363.142Z" fill="#3D3D3D"/>
<path d="M49.7082 391.822H567.464C568.378 391.822 569.178 391.081 569.178 390.235V371.503C569.178 370.656 568.378 369.915 567.464 369.915H49.7082C48.794 369.915 47.9941 370.656 47.9941 371.503V390.341C47.9941 391.187 48.794 391.822 49.7082 391.822Z" fill="#3D3D3D"/>
<path d="M522.099 345.363H98.7297C93.5876 345.363 89.3596 341.447 89.3596 336.685V72C89.3596 58 100.5 52.2125 110.5 52.2125H522.099C527.241 52.2125 531.469 56.1282 531.469 60.8906V336.685C531.469 341.447 527.241 345.363 522.099 345.363Z" fill="#B9BCC5"/>
<path d="M531 92V70.9867C531 60.64 521.966 52 510.873 52H108.67C97.577 52 89 60.64 89 70.9867V92H531Z" fill="#8F8F8F"/>
<path d="M116.784 79.8341C120.76 79.8341 123.983 76.8491 123.983 73.1669C123.983 69.4847 120.76 66.4996 116.784 66.4996C112.809 66.4996 109.585 69.4847 109.585 73.1669C109.585 76.8491 112.809 79.8341 116.784 79.8341Z" fill="#C8C8C8"/>
<path d="M165.577 80.2574C169.553 80.2574 172.776 77.2724 172.776 73.5902C172.776 69.908 169.553 66.923 165.577 66.923C161.602 66.923 158.378 69.908 158.378 73.5902C158.378 77.2724 161.602 80.2574 165.577 80.2574Z" fill="#C8C8C8"/>
<path d="M140.095 79.8341C144.071 79.8341 147.294 76.8491 147.294 73.1669C147.294 69.4847 144.071 66.4996 140.095 66.4996C136.119 66.4996 132.896 69.4847 132.896 73.1669C132.896 76.8491 136.119 79.8341 140.095 79.8341Z" fill="#C8C8C8"/>
<path opacity="0.5" d="M512.043 152.857H402.801C402.001 152.857 401.316 152.222 401.316 151.482V138.888C401.316 138.147 402.001 137.512 402.801 137.512H512.043C512.843 137.512 513.529 138.147 513.529 138.888V151.482C513.414 152.328 512.843 152.857 512.043 152.857Z" fill="#FBBA0E"/>
<path opacity="0.5" d="M380.519 157.408C387.776 157.408 393.66 151.959 393.66 145.237C393.66 138.516 387.776 133.067 380.519 133.067C373.261 133.067 367.378 138.516 367.378 145.237C367.378 151.959 373.261 157.408 380.519 157.408Z" fill="#FBBA0E"/>
<path opacity="0.5" d="M512.043 186.723H402.801C402.001 186.723 401.316 186.088 401.316 185.347V172.753C401.316 172.012 402.001 171.377 402.801 171.377H512.043C512.843 171.377 513.529 172.012 513.529 172.753V185.347C513.414 186.088 512.843 186.723 512.043 186.723Z" fill="#FBBA0E"/>
<path opacity="0.5" d="M380.519 191.274C387.776 191.274 393.66 185.825 393.66 179.103C393.66 172.382 387.776 166.933 380.519 166.933C373.261 166.933 367.378 172.382 367.378 179.103C367.378 185.825 373.261 191.274 380.519 191.274Z" fill="#FBBA0E"/>
<path opacity="0.5" d="M512.043 220.589H402.801C402.001 220.589 401.316 219.954 401.316 219.213V206.619C401.316 205.878 402.001 205.243 402.801 205.243H512.043C512.843 205.243 513.529 205.878 513.529 206.619V219.213C513.414 219.954 512.843 220.589 512.043 220.589Z" fill="#FBBA0E"/>
<path opacity="0.5" d="M380.519 225.139C387.776 225.139 393.66 219.69 393.66 212.969C393.66 206.247 387.776 200.798 380.519 200.798C373.261 200.798 367.378 206.247 367.378 212.969C367.378 219.69 373.261 225.139 380.519 225.139Z" fill="#FBBA0E"/>
<path opacity="0.5" d="M512.043 256.677H402.801C402.001 256.677 401.316 256.042 401.316 255.301V242.707C401.316 241.966 402.001 241.331 402.801 241.331H512.043C512.843 241.331 513.529 241.966 513.529 242.707V255.301C513.414 256.148 512.843 256.677 512.043 256.677Z" fill="#FBBA0E"/>
<path opacity="0.5" d="M380.519 261.228C387.776 261.228 393.66 255.779 393.66 249.057C393.66 242.335 387.776 236.886 380.519 236.886C373.261 236.886 367.378 242.335 367.378 249.057C367.378 255.779 373.261 261.228 380.519 261.228Z" fill="#FBBA0E"/>
<path opacity="0.5" d="M512.043 290.542H402.801C402.001 290.542 401.316 289.907 401.316 289.167V276.573C401.316 275.832 402.001 275.197 402.801 275.197H512.043C512.843 275.197 513.529 275.832 513.529 276.573V289.167C513.414 289.907 512.843 290.542 512.043 290.542Z" fill="#FBBA0E"/>
<path opacity="0.5" d="M380.519 295.093C387.776 295.093 393.66 289.644 393.66 282.923C393.66 276.201 387.776 270.752 380.519 270.752C373.261 270.752 367.378 276.201 367.378 282.923C367.378 289.644 373.261 295.093 380.519 295.093Z" fill="#FBBA0E"/>
<path opacity="0.5" d="M512.043 324.302H402.801C402.001 324.302 401.316 323.667 401.316 322.927V310.333C401.316 309.592 402.001 308.957 402.801 308.957H512.043C512.843 308.957 513.529 309.592 513.529 310.333V322.927C513.414 323.773 512.843 324.302 512.043 324.302Z" fill="#FBBA0E"/>
<path opacity="0.5" d="M380.519 328.853C387.776 328.853 393.66 323.404 393.66 316.683C393.66 309.961 387.776 304.512 380.519 304.512C373.261 304.512 367.378 309.961 367.378 316.683C367.378 323.404 373.261 328.853 380.519 328.853Z" fill="#FBBA0E"/>
<path d="M231.74 109.678V138.041C231.74 142.168 235.282 145.555 239.739 145.767L283.847 147.777C288.646 147.989 292.646 144.497 292.646 140.052V111.583C292.646 107.456 289.103 104.069 284.647 103.858L240.539 101.847C235.739 101.741 231.74 105.234 231.74 109.678Z" fill="#3A9CD7"/>
<g opacity="0.73">
<g opacity="0.73">
<path opacity="0.73" d="M281.79 125.553C283.847 118.991 279.847 112.112 272.877 110.208C265.907 108.303 258.593 112.112 256.422 118.78C254.365 125.341 258.365 132.22 265.335 134.125C272.42 135.924 279.733 132.114 281.79 125.553ZM258.365 119.203C260.079 113.594 266.364 110.313 272.306 111.901C278.248 113.488 281.676 119.415 279.962 125.024C278.248 130.633 271.963 133.914 266.021 132.326C259.965 130.739 256.536 124.918 258.365 119.203Z" fill="white"/>
</g>
<g opacity="0.73">
<path opacity="0.73" d="M258.822 128.093L242.824 137.406C242.138 137.829 241.91 138.676 242.367 139.417L242.481 139.523C242.938 140.158 243.624 140.263 244.195 139.946L259.393 129.151L258.822 128.093Z" fill="white"/>
</g>
</g>
<path d="M166.949 108.726V139.417C166.949 143.015 170.034 146.084 173.919 146.19L215.285 147.989C219.513 148.201 222.941 145.026 222.941 141.216V108.726C222.941 104.916 219.627 101.953 215.628 101.953H174.262C170.263 101.847 166.949 104.916 166.949 108.726Z" fill="#3A9CD7"/>
<path d="M181.918 140.475C181.347 140.475 180.89 140.475 180.547 140.475C179.976 140.475 179.404 140.052 179.404 139.523C179.29 138.993 179.747 138.464 180.318 138.253C183.518 137.406 186.946 136.03 189.46 134.866C177.347 133.914 174.833 128.199 174.376 125.553C173.234 118.886 179.404 111.372 188.317 108.726C197.345 106.08 206.6 107.033 211.743 111.16C214.485 113.382 217.456 117.616 216.085 125.13C213.457 139.311 189.46 140.475 181.918 140.475ZM198.259 132.855L194.374 134.866C194.145 134.972 190.831 136.665 186.603 138.358C195.973 137.829 211.857 135.395 213.799 124.812C214.828 119.521 213.571 115.393 210.257 112.642C205.001 108.408 195.859 108.62 189.003 110.631C181.233 112.959 175.519 119.521 176.548 125.235C177.462 130.315 183.747 133.173 193.802 132.961L198.259 132.855Z" fill="#E8E8EF"/>
<path d="M107.643 105.868C102.272 105.974 98.0444 109.996 98.0444 114.97V142.168C97.9301 145.978 101.244 149.153 105.358 149.153H148.552C152.437 149.153 155.636 146.296 155.865 142.698L157.007 112.007C157.122 108.514 154.265 105.445 150.494 105.022L107.643 105.868Z" fill="#3A9CD7"/>
<path d="M112.442 141.639C111.3 141.639 110.271 141.216 109.471 140.581C108.557 139.84 108.1 138.782 108.1 137.618V114.123C108.1 113.382 108.786 112.748 109.586 112.748C110.385 112.748 111.071 113.382 111.071 114.123V137.618C111.071 137.935 111.185 138.359 111.528 138.57C111.871 138.782 112.214 138.994 112.557 138.888L142.61 137.194C143.409 137.194 143.981 136.559 143.981 135.924V112.853C143.981 112.43 143.866 112.113 143.524 111.901C143.181 111.689 142.838 111.583 142.381 111.583L117.356 113.912C116.67 114.017 116.328 114.441 116.213 114.652C116.099 114.864 115.87 115.393 116.328 115.922L125.812 128.093C126.04 128.41 126.498 128.622 126.955 128.622C127.412 128.622 127.869 128.41 128.097 128.093L138.61 115.182C139.067 114.547 139.981 114.441 140.667 114.864C141.353 115.287 141.467 116.134 141.01 116.769L130.497 129.68C129.697 130.739 128.44 131.268 127.069 131.268C125.698 131.268 124.441 130.633 123.526 129.575L114.042 117.404C113.128 116.24 112.899 114.758 113.585 113.382C114.271 112.007 115.528 111.16 117.127 111.054L142.152 108.726C143.409 108.62 144.552 108.938 145.466 109.784C146.38 110.525 146.952 111.689 146.952 112.748V135.819C146.952 137.935 145.123 139.734 142.838 139.84L112.785 141.533C112.671 141.639 112.557 141.639 112.442 141.639Z" fill="#E8E8EF"/>
<path d="M297.216 109.678V138.041C297.216 142.168 300.759 145.555 305.215 145.767L349.323 147.777C354.123 147.989 358.122 144.497 358.122 140.052V111.583C358.122 107.456 354.58 104.069 350.123 103.858L306.015 101.847C301.216 101.741 297.216 105.234 297.216 109.678Z" fill="#3A9CD7"/>
<g opacity="0.69">
<path opacity="0.69" d="M327.726 143.121C326.012 143.121 324.412 142.274 323.498 140.898C318.585 133.384 312.643 123.436 312.643 118.886C312.643 111.795 319.385 106.08 327.726 106.08C336.068 106.08 342.81 111.795 342.81 118.886C342.81 123.436 336.982 133.384 331.954 140.898C331.04 142.274 329.44 143.121 327.726 143.121ZM327.726 108.091C320.641 108.091 314.928 112.959 314.928 118.886C314.928 121.955 318.699 129.68 325.441 139.84C325.898 140.581 326.812 141.004 327.726 141.004C328.64 141.004 329.554 140.581 330.012 139.84C336.639 129.68 340.524 121.955 340.524 118.886C340.524 112.959 334.811 108.091 327.726 108.091Z" fill="#E8E8EF"/>
<path opacity="0.69" d="M326.584 127.881C321.441 127.881 317.213 123.966 317.213 119.203C317.213 118.674 317.67 118.145 318.356 118.145C318.927 118.145 319.499 118.568 319.499 119.203C319.499 122.907 322.698 125.87 326.698 125.87C330.697 125.87 333.897 122.907 333.897 119.203C333.897 115.499 330.697 112.536 326.698 112.536C324.412 112.536 322.356 113.488 320.984 115.182C320.641 115.605 319.956 115.711 319.384 115.393C318.927 115.076 318.813 114.441 319.156 113.912C320.87 111.689 323.727 110.419 326.698 110.419C331.84 110.419 336.068 114.335 336.068 119.097C336.068 123.86 331.726 127.881 326.584 127.881Z" fill="#E8E8EF"/>
</g>
<path opacity="0.5" d="M148.551 330.652H101.587C100.787 330.652 100.101 330.017 100.101 329.277V171.06C100.101 170.319 100.787 169.684 101.587 169.684H148.551C149.351 169.684 150.037 170.319 150.037 171.06V329.277C150.037 330.017 149.351 330.652 148.551 330.652Z" fill="white"/>
<path opacity="0.5" d="M215.171 330.652H168.206C167.406 330.652 166.72 330.017 166.72 329.277V171.06C166.72 170.319 167.406 169.684 168.206 169.684H215.171C215.97 169.684 216.656 170.319 216.656 171.06V329.277C216.656 330.017 215.97 330.652 215.171 330.652Z" fill="white"/>
<path opacity="0.5" d="M281.79 330.652H234.825C234.025 330.652 233.34 330.017 233.34 329.277V171.06C233.34 170.319 234.025 169.684 234.825 169.684H281.79C282.59 169.684 283.276 170.319 283.276 171.06V329.277C283.161 330.017 282.59 330.652 281.79 330.652Z" fill="white"/>
<path opacity="0.5" d="M348.295 330.652H301.33C300.53 330.652 299.844 330.017 299.844 329.277V171.06C299.844 170.319 300.53 169.684 301.33 169.684H348.295C349.095 169.684 349.78 170.319 349.78 171.06V329.277C349.78 330.017 349.095 330.652 348.295 330.652Z" fill="white"/>
<path d="M387.603 203.55C382.461 203.338 377.548 203.973 372.977 206.302C366.921 209.265 365.092 214.874 363.035 220.165C360.064 227.891 357.779 235.934 355.379 243.765C354.694 245.776 354.237 247.893 355.151 250.009C358.35 251.914 360.522 255.407 364.749 256.148C368.063 245.988 369.549 235.511 371.149 225.034C371.606 221.012 371.834 216.99 373.891 213.286C373.32 217.096 372.748 221.012 372.291 224.822C372.177 227.256 372.177 229.69 371.834 232.124C370.92 240.591 370.92 249.269 369.206 257.629C369.435 265.143 368.178 272.551 367.263 279.959C367.949 285.886 366.464 291.601 366.121 297.421C365.892 301.126 366.235 304.935 365.207 308.428C363.721 313.19 365.207 316.471 369.663 318.905C380.29 321.974 391.146 322.609 402.001 321.127C415.485 319.223 428.512 316.048 438.682 306.84C439.825 301.761 436.739 296.998 437.082 292.024C436.854 291.707 436.397 291.389 436.282 290.966C433.997 280.594 431.597 270.329 429.769 259.958C429.083 256.359 426.455 252.761 428.741 248.951C437.082 249.904 443.138 245.565 449.195 241.12C449.08 235.299 444.853 231.172 442.11 226.515C438.111 219.954 433.083 213.921 429.083 207.36C423.827 198.893 416.171 197.729 407.029 200.163C405.658 200.481 404.287 200.587 402.916 200.798C402.916 203.762 403.144 207.254 399.945 208.841C396.516 210.535 394.231 212.969 391.717 215.826C391.26 211.381 386.575 208.312 387.603 203.55Z" fill="white"/>
<path d="M438.568 307.052C428.398 316.259 415.371 319.434 401.887 321.339C391.032 322.821 380.176 322.08 369.549 319.117C369.092 327.689 368.521 336.261 368.063 344.728C368.292 357.11 368.863 369.598 370.349 381.874C373.206 405.051 379.262 427.593 385.09 450.241C386.347 455.215 386.804 460.4 389.775 464.845C392.174 464.951 394.574 465.057 396.974 465.163C397.202 463.787 397.659 462.305 397.659 460.93C398.116 448.23 398.573 435.424 398.688 422.725C398.916 406.956 398.688 391.187 398.688 375.524C399.259 375.524 399.716 375.524 400.288 375.524C400.402 376.371 400.516 377.112 400.63 377.958C401.659 385.79 402.23 393.621 405.544 401.03C415.485 423.466 428.284 444.526 443.367 464.422C446.11 464.634 448.395 463.575 450.68 462.623C448.738 450.77 444.853 439.234 441.653 427.699C437.425 412.459 432.169 397.537 430.797 381.768C430.226 374.149 432.397 366.74 433.54 359.227C436.054 341.765 438.911 324.514 438.568 307.052Z" fill="#3A9CD7"/>
<path d="M448.966 241.331C443.024 245.776 436.968 250.009 428.512 249.163C436.282 260.487 443.938 271.916 443.253 286.203C443.139 298.903 444.395 311.603 444.395 324.408C444.395 329.594 440.51 333.404 440.51 338.272C440.51 339.436 438.568 341.024 440.51 341.553C442.224 342.082 442.224 339.965 442.796 338.907C443.024 338.378 443.367 337.954 443.71 337.425C445.538 339.859 445.538 341.024 444.053 343.352C442.91 345.151 440.282 345.998 440.053 348.432C448.166 349.067 454.565 343.14 452.394 335.203C450.109 326.736 452.851 319.117 454.223 311.179C456.051 299.644 457.879 288.002 459.251 276.467C459.936 270.646 458.108 265.143 457.537 259.428C454.223 253.608 452.623 247.046 448.966 241.331Z" fill="#ECC19C"/>
<path d="M431.14 484.953C433.997 486.223 436.853 485.059 439.71 484.953C444.395 483.577 449.195 482.307 453.765 480.825C457.422 479.661 458.565 476.592 456.622 473.946C453.994 470.348 452.737 466.327 450.68 462.517C448.28 463.469 445.995 464.527 443.367 464.316C445.652 472.147 444.967 473.946 437.653 478.497C435.596 479.767 433.425 480.614 431.026 481.143C429.883 481.46 427.826 480.931 427.826 482.836C427.826 484.741 429.654 484.847 431.14 484.953Z" fill="#3D3D3D"/>
<path d="M312.414 314.566C327.955 306.311 343.381 298.057 358.922 290.013C363.378 287.685 364.064 283.134 367.149 280.065C368.063 272.657 369.32 265.249 369.092 257.735C367.378 257.735 365.892 257.418 364.749 256.148C360.521 255.513 358.465 252.02 355.151 250.009C354.237 253.608 352.865 257.1 352.408 260.804C350.923 270.646 345.438 277.843 337.096 283.664C328.754 289.484 320.756 295.622 312.528 301.655C308.414 305.465 305.558 308.005 297.33 308.322C288.417 308.428 286.132 312.555 284.646 314.46C274.591 327.795 300.53 322.715 312.414 314.566Z" fill="#ECC19C"/>
<path d="M400.63 193.284C403.144 193.179 405.544 193.39 407.943 192.438C409.886 191.591 411.6 190.533 411.6 188.416C411.714 184.712 413.2 181.537 415.371 178.468C416.971 176.14 417.085 173.6 415.257 171.272C413.086 168.52 412.514 165.345 412.628 161.959C412.743 156.667 410.457 153.916 404.858 152.857C396.745 151.27 388.632 150.529 381.204 155.185C378.462 156.879 376.176 155.291 373.777 154.762C371.606 154.233 369.32 152.857 367.263 154.974C365.321 156.985 365.206 159.207 365.892 161.747C366.692 164.71 367.606 167.568 370.12 169.684C371.377 170.743 371.606 172.013 371.834 173.494C372.177 176.669 373.205 179.632 375.491 182.066C375.148 179.526 374.805 176.987 374.577 174.447C374.462 173.071 374.577 171.801 376.633 171.907C380.29 172.118 383.49 170.425 386.918 169.578C392.86 168.097 395.374 169.261 397.659 174.447C397.888 174.976 398.116 175.717 398.573 175.822C400.059 176.14 400.173 174.87 400.63 174.023C401.887 171.907 403.944 171.378 406.229 172.224C408.629 173.177 408.286 175.293 407.829 177.092C407.486 178.257 406.801 179.526 405.772 180.373C401.887 183.76 400.059 188.099 400.63 193.284Z" fill="#3D3D3D"/>
<path d="M400.63 193.284C400.059 188.099 401.887 183.865 405.887 180.267C406.801 179.42 407.601 178.151 407.943 176.986C408.401 175.187 408.743 173.071 406.344 172.118C404.058 171.272 402.116 171.907 400.744 173.917C400.287 174.764 400.173 176.034 398.688 175.716C398.345 175.611 398.002 174.87 397.773 174.341C395.488 169.155 392.86 167.991 387.032 169.472C383.604 170.319 380.404 171.907 376.748 171.801C374.691 171.695 374.577 172.965 374.691 174.341C374.919 176.881 375.262 179.42 375.605 181.96C375.948 182.701 376.634 182.913 377.319 183.019C378.69 181.537 378.005 179.42 378.919 177.833C379.376 177.092 379.033 175.505 380.519 175.611C382.118 175.716 382.118 177.092 382.118 178.256C382.118 180.69 382.118 183.019 382.118 185.453C388.975 188.839 388.975 188.839 394.574 182.595C394.917 182.172 395.374 181.749 395.945 181.537C396.631 181.22 397.316 181.22 397.888 182.066C398.688 183.336 397.888 192.226 396.631 192.755C392.746 194.343 391.146 198.152 387.946 200.163C387.946 201.327 387.832 202.492 387.832 203.656C386.804 208.418 391.489 211.593 391.603 216.038C394.117 213.18 396.402 210.64 399.83 209.053C403.144 207.466 402.801 204.079 402.801 201.01C401.887 198.364 401.316 195.824 400.63 193.284Z" fill="#ECC19C"/>
<path d="M378.805 194.872C374.805 192.438 374.805 189.474 377.319 186.194C378.919 186.617 380.519 186.511 381.89 185.453C388.746 188.839 388.746 188.839 394.345 182.595C394.688 182.172 395.145 181.749 395.717 181.537C396.402 181.22 397.088 181.22 397.659 182.066C398.459 183.336 397.659 192.226 396.402 192.755C392.517 194.343 390.917 198.153 387.718 200.163C383.261 200.481 381.776 196.671 378.805 194.872ZM380.976 191.485C382.461 191.485 384.518 191.591 384.518 189.792C384.518 188.204 382.461 187.887 381.09 187.569C379.719 187.146 378.805 187.781 378.462 189.157C378.462 190.639 379.262 191.485 380.976 191.485Z" fill="#3D3D3D"/>
<path d="M377.433 186.088C379.033 186.511 380.633 186.405 382.004 185.347C382.004 182.913 382.004 180.585 382.004 178.151C382.004 176.986 382.004 175.611 380.404 175.505C378.919 175.399 379.262 176.881 378.805 177.727C378.005 179.315 378.576 181.431 377.205 182.913C377.319 184.077 377.319 185.03 377.433 186.088Z" fill="#EAD08D"/>
<path d="M364.635 256.042C365.778 257.206 367.378 257.629 368.977 257.629C370.691 249.163 370.691 240.591 371.605 232.124C371.834 229.69 371.948 227.256 372.063 224.822C371.72 224.928 371.263 224.928 370.92 225.033C369.434 235.511 367.949 245.988 364.635 256.042Z" fill="#C8C8C8"/>
<path d="M371.034 225.034C371.377 224.928 371.834 224.928 372.177 224.822C372.748 221.012 373.32 217.096 373.777 213.286C371.72 216.99 371.491 221.012 371.034 225.034Z" fill="#C8C8C8"/>
<path d="M395.945 485.694C398.573 483.365 399.373 480.72 398.116 477.333C396.745 473.417 396.631 469.29 396.859 465.163C394.46 465.057 392.06 464.951 389.66 464.845C388.86 474.687 388.517 475.111 378.347 478.391C375.605 479.238 372.863 480.296 370.12 481.355C368.177 482.095 366.806 483.365 367.149 485.694C369.206 487.493 394.231 486.964 395.945 485.694Z" fill="#3D3D3D"/>
<path d="M378.462 189.051C378.576 190.639 379.376 191.485 380.976 191.485C382.461 191.485 384.518 191.591 384.518 189.792C384.518 188.204 382.461 187.887 381.09 187.569C379.719 187.04 378.69 187.675 378.462 189.051Z" fill="#E0BBC1"/>
<path d="M130.497 160.583C130.497 160.583 122.612 164.181 121.127 168.203C119.984 171.483 111.299 171.907 110.385 178.362C109.928 181.643 107.3 184.395 103.758 184.818C94.8446 186.088 81.1322 190.321 78.9611 204.714C77.2471 215.615 83.3034 219.742 89.5882 221.224C94.2732 222.282 97.3585 226.409 96.3301 230.748C95.4159 234.876 96.7872 239.744 104.558 243.554C122.041 252.126 139.41 223.34 139.41 223.34L142.952 173.177L130.497 160.583Z" fill="#3D3D3D"/>
<path d="M225.341 148.73C225.341 148.73 190.488 199.74 149.123 209.582C149.123 209.582 157.236 230.854 163.407 233.288C163.407 233.288 214.371 193.919 227.398 156.032L225.341 148.73Z" fill="#F0D0B4"/>
<path d="M58.8496 474.899L57.7069 483.472C57.4783 485.059 56.1071 486.435 54.3931 486.541C51.422 486.858 46.6227 487.176 41.9377 486.752C39.8808 486.541 38.5096 484.636 39.1952 482.837C40.3379 479.556 42.3947 474.582 45.3658 471.619H55.65C57.5926 471.619 59.0781 473.1 58.8496 474.899Z" fill="#3D3D3D"/>
<path d="M139.41 374.254L141.124 383.673C141.124 383.673 135.296 438.176 134.268 460.083C134.153 463.469 135.067 466.856 137.01 469.819L147.066 485.059L121.355 470.983L120.898 468.126L125.126 462.729L119.641 401.664C119.298 398.066 120.098 394.468 121.926 391.293L127.297 382.086L139.41 374.254Z" fill="#ECC19C"/>
<path d="M148.78 487.281H140.552C139.067 487.281 137.581 486.646 136.667 485.482C134.153 482.413 128.783 476.381 126.269 476.275C122.841 476.063 123.298 487.281 123.298 487.281H121.355L118.955 473.311C118.384 469.819 120.212 466.327 123.641 464.633C123.641 464.633 124.44 469.925 128.668 472.359C132.896 474.687 145.923 483.154 145.923 483.154C145.923 483.154 147.523 482.942 149.237 483.26C151.751 483.683 151.408 487.281 148.78 487.281Z" fill="#3D3D3D"/>
<path d="M104.215 378.805C104.215 378.805 70.1624 438.705 64.6775 452.357C59.3068 466.009 57.3642 477.439 57.2499 478.497C57.1357 480.19 54.8503 481.778 48.6797 481.778C45.4802 481.778 43.8804 480.614 43.0805 479.45C42.3949 478.497 42.3949 477.227 42.9662 476.169C44.9088 472.465 51.1936 460.718 53.479 455.32C56.2215 448.971 62.1635 419.973 65.4773 409.919C68.7912 399.865 72.4478 388.965 86.6172 378.911C86.6172 378.805 96.4444 369.915 104.215 378.805Z" fill="#F0D0B4"/>
<path d="M125.697 280.7C134.496 246.2 112.214 226.727 112.214 226.727C126.269 214.239 151.865 208.524 151.865 208.524C151.865 208.524 176.319 225.034 173.348 238.051C171.634 245.67 156.207 283.452 156.207 283.452C156.207 283.452 141.924 289.696 125.697 280.7Z" fill="#FBBA0E"/>
<path d="M106.272 297.739C109.814 287.791 125.812 280.7 125.812 280.7C142.038 289.696 156.322 283.452 156.322 283.452C156.322 283.452 159.521 294.776 157.35 305.359C155.179 315.942 141.238 383.779 141.238 383.779C119.298 387.906 85.7031 379.652 85.7031 379.652C99.5298 356.686 102.615 307.793 106.272 297.739Z" fill="#F65414"/>
<path d="M135.867 185.77L128.668 215.509C127.983 218.155 130.611 217.731 133.468 217.202C138.153 216.355 144.209 214.662 146.152 211.381C146.38 211.064 146.495 210.641 146.495 210.217L149.58 189.58C149.808 187.993 148.894 186.405 147.294 185.665L141.352 183.231C139.181 182.278 136.553 183.442 135.867 185.77Z" fill="#F0D0B4"/>
<path d="M149.58 158.678C149.58 158.678 157.236 163.44 160.435 175.611C163.749 187.781 158.378 192.12 152.894 191.803C147.409 191.485 139.524 190.004 132.668 181.22C125.926 172.542 139.638 152.857 149.58 158.678Z" fill="#F0D0B4"/>
<path d="M139.753 176.351C139.753 176.351 137.01 158.995 152.551 161.641L155.751 164.71C155.751 164.71 163.407 156.773 154.951 150.741C146.495 144.708 134.725 146.296 128.326 157.196C121.927 168.097 119.527 175.822 124.898 182.701C130.383 189.474 134.382 183.654 134.382 183.654C134.382 183.654 131.868 177.727 133.925 175.187C135.982 172.647 138.61 176.669 138.61 176.669L139.753 176.351Z" fill="#3D3D3D"/>
<path d="M137.582 177.833C137.582 177.833 136.21 168.838 131.297 171.483C126.383 174.023 133.125 179.844 135.753 181.855L137.582 177.833Z" fill="#F0D0B4"/>
<path d="M225.112 159.207C225.226 160.265 220.998 161.006 219.627 156.455C219.97 154.551 220.655 145.978 222.255 144.708C230.825 137.618 246.138 129.68 246.138 129.68C247.852 132.114 245.566 133.702 245.566 133.702L237.91 138.464C238.71 140.898 239.853 143.121 239.967 145.872C240.081 147.989 239.167 150.106 237.682 151.693C236.196 153.281 234.139 155.397 232.311 156.985C228.883 159.948 225.112 159.207 225.112 159.207Z" fill="#F0D0B4"/>
<path d="M229.226 155.715L228.083 155.291C228.197 154.974 231.854 146.719 233.682 144.92C234.368 144.285 234.711 143.756 234.596 143.227C234.596 143.015 234.482 142.697 234.253 142.486L228.083 145.555L225.34 149.471L224.312 148.836L227.169 144.602L234.368 141.004L234.711 141.216C235.396 141.745 235.853 142.38 235.853 143.015C235.853 143.862 235.51 144.602 234.482 145.555C233.225 147.142 230.254 153.386 229.226 155.715Z" fill="#F0D0B4"/>
<path d="M133.696 298.903H133.811L197.687 298.797C199.287 298.797 200.544 297.633 200.544 296.152C200.544 294.67 199.287 293.506 197.687 293.506L133.811 293.612C132.211 293.612 130.954 294.776 130.954 296.257C130.954 297.633 132.211 298.797 133.696 298.903Z" fill="#3D3D3D"/>
<path d="M255.051 245.776H201.915C198.03 245.776 194.374 247.893 192.774 251.068L168.206 298.797H234.254C236.768 298.797 239.053 297.421 239.967 295.199L259.05 250.962C260.079 248.528 258.022 245.776 255.051 245.776Z" fill="#3D3D3D"/>
<path d="M217.57 270.223C216.428 273.504 217.228 276.679 219.513 277.314C221.684 277.949 224.427 275.832 225.569 272.551C226.712 269.271 225.912 266.096 223.627 265.461C221.456 264.826 218.713 266.942 217.57 270.223Z" fill="#3D3D3D"/>
<path d="M112.099 226.727C103.415 234.876 92.3306 270.964 97.8156 276.996C102.615 283.981 119.07 293.612 134.725 293.612H157.921C148.208 284.087 141.581 281.653 133.582 288.32C127.297 285.78 119.07 276.15 113.585 271.811C111.414 270.117 110.957 267.26 112.328 264.932C116.67 258.158 122.155 251.174 123.869 244.4C124.212 236.463 117.927 227.362 112.099 226.727Z" fill="#F0D0B4"/>
<path d="M429.387 58.3291C430.27 57.511 431.546 57.1474 432.822 57.2383C446.169 58.3291 471.097 52.4209 487.291 36.9689C488.468 35.8781 490.431 36.5144 491.805 37.4233C509.864 49.9668 539.895 52.5118 550.298 53.0572C552.457 53.1481 554.224 54.6933 554.42 56.693C563.842 141.407 504.368 172.038 492.002 177.492C490.628 178.128 489.057 178.037 487.781 177.31C426.246 141.77 428.896 95.5958 428.013 61.4195C427.914 60.2379 428.405 59.1471 429.387 58.3291Z" fill="#3A9CD7"/>
<path d="M490.235 171.402C489.941 171.402 489.646 171.311 489.45 171.22C465.896 157.222 450.487 140.589 442.44 120.137C435.275 101.958 434.883 83.4159 434.588 67.0549V64.8735C434.588 64.5099 434.687 64.1463 434.981 63.8736C435.275 63.601 435.668 63.5101 436.061 63.5101C450.684 63.5101 472.57 57.511 488.665 44.1496C489.156 43.6951 489.843 43.6951 490.432 44.0587C508.097 54.8751 533.32 58.0564 546.766 58.9653C547.453 59.0562 548.041 59.5107 548.14 60.2379C551.28 93.3234 543.821 121.228 526.057 143.315C512.808 159.767 497.105 168.402 490.922 171.311C490.726 171.311 490.53 171.402 490.235 171.402ZM490.628 170.765L490.726 171.038L490.628 170.765C496.713 167.857 512.416 159.313 525.567 142.952C543.232 120.955 550.593 93.1416 547.551 60.2379C547.551 59.8743 547.158 59.5107 546.766 59.5107C533.222 58.6018 507.901 55.4205 490.137 44.5131C489.843 44.3313 489.352 44.3313 489.058 44.604C472.864 58.0564 450.782 64.0554 436.061 64.0554C435.766 64.0554 435.57 64.1463 435.472 64.3281C435.275 64.5099 435.177 64.6917 435.275 64.8735V67.0549C435.57 83.325 435.962 101.868 443.127 119.955C451.076 140.225 466.387 156.859 489.941 170.765C490.039 170.856 490.333 170.856 490.628 170.765Z" fill="white"/>
<path d="M511.728 90.324H508.98C507.606 90.324 506.527 89.3241 506.527 88.0516V79.2348C506.527 76.0535 503.779 73.5084 500.344 73.5084H483.071C479.636 73.5084 476.888 76.0535 476.888 79.2348V88.0516C476.888 89.3241 475.808 90.324 474.434 90.324H471.686C470.312 90.324 469.232 89.3241 469.232 88.0516V79.2348C469.232 72.0541 475.514 66.3278 483.169 66.3278H500.442C508.195 66.3278 514.378 72.145 514.378 79.2348V88.0516C514.28 89.2332 513.2 90.324 511.728 90.324Z" fill="#FBBA0E"/>
<path d="M515.261 92.4144H468.153C465.307 92.4144 462.951 94.5959 462.951 97.2318V130.681C462.951 133.317 465.307 135.498 468.153 135.498H515.261C518.107 135.498 520.463 133.317 520.463 130.681V97.2318C520.463 94.505 518.107 92.4144 515.261 92.4144ZM498.381 124.682C498.675 125.773 497.792 126.863 496.516 126.863H486.8C485.524 126.863 484.641 125.773 484.935 124.682L487.192 115.956C484.543 114.502 482.776 111.684 482.972 108.594C483.169 104.503 486.702 101.231 491.118 100.959C496.221 100.686 500.442 104.412 500.442 109.048C500.442 111.957 498.773 114.593 496.222 115.956L498.381 124.682Z" fill="#FBBA0E"/>
</svg>
