<svg width="754" height="458" viewBox="0 0 754 458" fill="none" xmlns="http://www.w3.org/2000/svg">
<path opacity="0.15" d="M121.388 185.405L121.519 151.888L134.799 151.837C138.713 151.823 141.821 152.832 144.122 154.866C146.424 156.9 147.568 159.641 147.555 163.089C147.54 166.696 146.246 169.51 143.672 171.53C141.13 173.551 137.918 174.569 134.037 174.583L127.348 174.609L127.306 185.382L121.388 185.405ZM127.369 169.294L134.25 169.268C136.463 169.259 138.23 168.694 139.55 167.572C140.869 166.45 141.532 164.979 141.54 163.159C141.547 161.244 140.895 159.778 139.584 158.762C138.305 157.713 136.543 157.193 134.297 157.202L127.416 157.228L127.369 169.294ZM153.192 185.284L153.329 150.331L159.151 150.308L159.015 185.261L153.192 185.284ZM187.94 185.151L182.166 185.173L182.178 182.061C180.115 184.495 177.368 185.718 173.936 185.731C171.401 185.741 169.255 185.063 167.496 183.697C165.769 182.299 164.91 180.355 164.92 177.865C164.931 175.152 165.885 173.09 167.783 171.678C169.681 170.266 172.17 169.555 175.25 169.543C177.72 169.533 180.06 169.876 182.271 170.57L182.273 170.091C182.28 168.335 181.74 166.997 180.653 166.075C179.598 165.153 178.06 164.696 176.039 164.704C173.729 164.713 171.305 165.249 168.767 166.312L167.197 161.673C170.346 160.257 173.573 159.542 176.877 159.53C180.566 159.516 183.337 160.431 185.19 162.275C187.076 164.119 188.012 166.749 187.999 170.165L187.94 185.151ZM182.346 176.028L182.352 174.591C180.622 173.927 178.682 173.6 176.533 173.608C174.705 173.615 173.276 173.971 172.247 174.677C171.217 175.384 170.7 176.375 170.695 177.652C170.691 178.801 171.152 179.709 172.08 180.376C173.008 181.043 174.177 181.373 175.589 181.368C177.545 181.361 179.151 180.86 180.406 179.865C181.693 178.871 182.34 177.592 182.346 176.028ZM194.865 185.125L194.964 159.844L200.786 159.822L200.771 163.748C202.803 160.772 205.456 159.277 208.728 159.265C211.55 159.254 213.76 160.124 215.358 161.873C216.955 163.623 217.747 165.982 217.736 168.95L217.673 185.038L211.851 185.06L211.907 170.696C211.914 168.717 211.439 167.203 210.481 166.153C209.555 165.071 208.226 164.534 206.494 164.54C204.793 164.547 203.412 165.111 202.349 166.232C201.286 167.353 200.751 168.887 200.743 170.834L200.687 185.103L194.865 185.125ZM225.377 185.009L225.508 151.492L240.521 151.435C244.435 151.42 247.495 152.382 249.701 154.321C251.906 156.228 253.003 158.809 252.99 162.065C252.98 164.715 252.25 166.904 250.799 168.633C249.349 170.33 247.388 171.535 244.915 172.246L253.96 184.9L246.983 184.927L238.656 173.276L231.342 173.304L231.296 184.987L225.377 185.009ZM231.362 168.085L240.023 168.052C242.141 168.044 243.827 167.526 245.082 166.5C246.337 165.474 246.968 164.083 246.975 162.327C246.982 160.54 246.377 159.17 245.162 158.217C243.947 157.264 242.233 156.791 240.019 156.8L231.406 156.833L231.362 168.085Z" fill="black"/>
<path d="M216.43 74.5532L218.927 74.2576C219.767 74.137 220.248 73.2641 219.822 72.4927C219.255 71.4641 218.688 70.4355 218.188 69.4262C215.397 63.6466 214.016 57.5487 214.226 51.2566C214.437 44.9646 216.031 38.9245 219.124 33.2412C219.732 32.1882 220.341 31.1352 220.996 30.1678C221.504 29.4472 221.052 28.5236 220.225 28.3591L217.705 27.9987C217.282 27.9497 215.791 27.8115 215.516 28.2383C210.881 34.9238 208.19 42.6711 207.979 50.9118C207.768 59.1525 210.047 66.879 214.251 73.7852C214.44 74.1281 215.899 74.6179 216.43 74.5532Z" fill="#FBBA0E"/>
<path d="M201.974 81.0623L204.645 80.6724C205.417 80.5325 205.878 79.7262 205.519 78.9741C204.52 76.9557 203.675 74.9093 202.849 72.7965C200.135 65.307 198.803 57.3472 199.061 49.1932C199.32 41.0393 201.029 33.1564 204.11 25.8106C205.037 23.6943 206.031 21.5972 207.14 19.6051C207.629 18.951 207.156 18.094 206.397 17.9488L203.764 17.4835C203.273 17.4152 201.125 17.5219 200.851 17.9486C195.633 27.0644 192.529 37.6512 192.179 49.0269C191.849 60.3361 194.404 71.028 199.131 80.3207C199.348 80.8157 201.511 81.1463 201.974 81.0623Z" fill="#FBBA0E"/>
<path d="M186.328 88.8834L189.019 88.427C189.791 88.2871 190.251 87.4809 189.873 86.7953C188.489 83.8728 187.346 80.8751 186.309 77.7637C183.586 69.3338 182.352 60.3199 182.573 51.0733C182.795 41.8268 184.582 32.9563 187.74 24.6227C188.899 21.4904 190.307 18.5016 191.829 15.6176C192.183 14.9251 191.778 14.0873 191.019 13.9421L188.338 13.3912C187.781 13.3037 185.633 13.4103 185.426 13.8563C179.577 24.5945 176.075 37.2321 175.692 50.907C175.329 64.5153 178.131 77.2983 183.332 88.1697C183.635 88.6175 185.865 88.9673 186.328 88.8834Z" fill="#FBBA0E"/>
<path d="M171.426 93.9639L174.203 93.4603C174.974 93.3204 175.368 92.495 175.057 91.8287C173.241 87.9165 171.772 83.8155 170.538 79.4208C167.846 69.9177 166.622 59.8969 166.894 49.5108C167.166 39.1246 168.916 29.1617 172.171 19.7742C173.621 15.4267 175.435 11.3275 177.478 7.43825C177.831 6.74574 177.426 5.90805 176.735 5.78211L174.008 5.14547C173.47 4.99156 171.338 5.53538 171.111 6.04777C164.609 18.4746 160.612 33.495 160.203 49.6872C159.746 65.7937 162.938 80.9245 168.686 93.6123C168.768 94.0687 170.896 94.0286 171.426 93.9639Z" fill="#FBBA0E"/>
<path opacity="0.5" d="M709.256 247.321C697.174 238.441 683.541 233.548 669.135 232.449C665.163 193.478 649.053 159.607 621.088 138.894C604.062 126.29 584.555 119.98 564.135 119.261C562.29 99.9379 554.377 83.112 540.585 72.9189C511.098 51.1086 466.034 67.5722 439.902 109.609C421.84 138.712 417.611 172.501 426.477 197.719C422.667 202.92 419.048 208.232 415.518 213.864C410.067 222.732 405.194 231.72 400.997 240.831C385.502 240.658 368.971 247.132 354.242 259.053C324.901 243.072 283.799 259.952 259.281 299.38C241.22 328.484 236.99 362.273 245.857 387.49L-2.50452e-05 438.739L701.596 438.739C708.47 438.91 715.05 435.26 718.884 429.106C718.884 429.106 718.887 429 718.983 429.003C759.76 362.862 755.58 281.518 709.256 247.321Z" fill="#C8C8C8"/>
<path d="M585.485 228.831C584.785 220.887 583.929 212.864 583.228 204.92C582.139 192.069 581.283 179.14 579.882 166.289C579.104 159.201 575.913 153.359 569.453 149.465C562.682 145.415 553.498 143.39 546.338 142.222C545.171 142.066 548.907 146.505 549.296 147.362C550.152 149.309 550.463 151.88 549.296 154.216C547.739 157.409 545.871 160.447 544.004 163.718C542.992 162.394 542.291 161.46 541.591 160.525C540.346 161.537 539.801 162.862 540.19 164.186C538.711 163.796 537.077 163.796 535.598 164.263C535.832 163.017 535.598 161.849 534.509 160.759C533.808 161.382 533.419 163.562 532.407 160.836C530.929 156.708 532.018 152.97 533.263 149.154C528.672 150.244 524.391 149.543 520.266 147.284C518.243 149.154 515.674 149.387 513.184 150.088C509.604 151.023 506.413 152.347 504.545 156.008C500.42 164.186 496.062 172.364 491.859 180.464C493.572 189.499 496.062 198.222 498.864 206.945C500.187 203.752 501.588 200.636 502.911 197.443C502.522 197.287 501.899 197.209 501.899 197.054C500.965 191.913 500.498 186.539 501.743 181.632C502.755 177.582 504.934 173.921 507.269 170.105C506.102 175.012 511.55 207.646 508.359 218.55C516.141 215.513 522.601 219.173 529.216 222.445C535.209 222.445 539.1 225.404 540.735 231.09C541.28 232.881 540.268 233.115 538.945 233.115C536.221 233.193 533.497 233.271 530.851 233.349C531.084 234.673 529.995 235.374 529.45 236.308C542.68 236.308 555.911 236.308 569.064 236.308C574.123 236.698 585.563 232.57 585.563 232.336C585.641 230.155 585.563 230.311 585.485 228.831Z" fill="#FBBA0E"/>
<path d="M529.917 232.881C531.551 232.881 533.653 232.959 535.053 232.881C536.454 232.803 538.244 232.725 539.023 232.258C539.801 231.791 540.89 229.922 540.268 228.442C539.645 226.962 541.747 225.326 538.089 224.469C532.252 223.145 534.664 222.756 531.707 222.289C530.617 222.133 530.15 222.289 527.349 221.276C522.212 219.485 520.967 218.472 519.722 218.239C518.476 218.005 513.573 216.525 512.094 216.915C508.67 217.927 507.036 218.083 504.779 219.095C501.666 220.419 501.276 220.575 500.109 221.743C498.942 222.912 497.774 223.846 497.229 225.248C496.685 226.65 494.272 227.196 497.229 228.597C500.187 229.999 501.977 231.168 504.934 231.168C507.892 231.168 521.122 231.246 523.068 231.09C529.528 230.7 529.917 232.881 529.917 232.881Z" fill="#F0D0B4"/>
<path d="M507.58 152.269C507.347 156.942 507.191 160.447 507.191 163.407C507.191 166.366 508.903 194.717 508.903 194.717C508.903 194.717 501.51 207.568 499.409 210.294C497.307 213.02 488.513 227.819 486.567 229.999C484.621 232.18 463.219 231.947 461.273 231.947C459.328 231.947 501.199 161.693 501.199 161.304C501.199 160.914 504.856 154.839 505.09 154.138C505.401 153.515 507.58 152.269 507.58 152.269Z" fill="#FFCC00"/>
<path d="M530.851 233.115C531.084 234.439 529.995 235.14 529.45 236.075C496.685 236.075 463.997 236.075 431.232 235.997C429.753 235.997 428.197 235.529 426.718 235.296C424.695 233.894 423.605 231.869 423.06 229.532C418.78 213.254 414.499 196.976 410.297 180.697C408.818 174.856 412.009 170.65 418.079 170.65C439.637 170.572 461.118 170.65 482.676 170.65C487.19 170.65 489.447 172.441 490.77 176.881C491.081 177.971 491.626 178.984 492.015 180.074C493.727 189.109 496.218 197.832 499.02 206.556C499.798 211.696 501.043 216.681 502.989 221.432C503.222 222.99 503.534 224.547 503.767 226.105C504.467 227.741 503.456 230.623 506.724 230.545C514.351 230.545 521.979 230.622 529.606 230.622C530.773 231.168 529.917 232.648 530.851 233.115ZM453.413 201.882C451.156 202.116 449.21 203.44 449.288 206.711C449.288 210.528 453.413 214.422 457.304 214.111C460.262 213.877 462.052 212.319 461.818 209.048C461.585 205.076 458.082 201.805 453.413 201.882Z" fill="#3D3D3D"/>
<path d="M541.591 161.693C540.034 162.784 539.334 164.341 540.268 165.821C544.003 172.13 542.992 178.984 543.536 185.604C544.081 192.303 543.303 199.079 544.548 205.777C545.793 212.241 541.669 216.759 537.699 221.744C534.82 217.538 532.718 213.643 532.796 208.814C532.952 197.521 532.407 186.305 532.096 175.012C532.018 172.208 532.252 169.638 533.964 167.145C535.287 165.354 535.442 163.485 533.575 161.771C533.886 161.07 533.808 160.759 534.509 159.668C535.442 158.344 536.688 156.007 538.4 156.708C540.112 157.565 542.291 159.201 541.591 161.693Z" fill="#3A9CD7"/>
<path d="M451.156 313.493C458.549 312.559 466.021 312.481 473.414 313.493C475.126 333.432 476.761 353.449 478.629 373.388C479.096 378.451 478.395 383.357 478.162 388.342C478.084 390.601 476.683 390.445 475.282 390.523C465.709 391.224 456.137 392.003 446.642 392.704C444.696 392.86 442.75 392.86 440.805 393.171C438.626 393.561 437.692 392.86 436.913 390.679C435.824 387.641 436.991 386.94 439.559 386.395C447.809 384.604 455.981 382.579 464.231 380.865C467.11 380.242 467.499 379.152 466.799 376.348C461.429 355.396 456.292 334.445 451.156 313.493Z" fill="#3D3D3D"/>
<path d="M501.432 390.99C501.276 392.782 499.875 393.171 498.552 393.716C493.494 395.663 488.279 397.377 483.376 399.636C480.341 401.038 477.306 401.349 474.193 400.96C472.402 400.726 471.624 398.623 472.714 397.221C473.414 396.287 474.115 395.43 474.815 394.495C474.971 394.262 475.126 394.106 475.36 393.95C477.072 392.782 478.706 391.458 480.574 390.601C489.836 386.629 492.171 378.84 492.171 369.649C492.171 351.658 492.093 333.666 492.015 315.674C492.015 314.506 492.871 313.571 493.961 313.338C497.618 312.792 501.276 313.338 504.934 313.182C508.514 313.026 512.094 313.026 515.674 312.948C517.231 312.948 518.398 314.428 517.931 315.986C517.931 316.142 517.854 316.219 517.854 316.375C514.273 329.071 510.693 341.766 507.113 354.462C503.767 366.456 499.953 378.295 501.432 390.99Z" fill="#3D3D3D"/>
<path d="M541.902 314.039C544.937 314.818 548.206 313.493 551.164 314.818C551.164 322.84 551.164 330.862 551.164 338.884C551.164 340.208 550.385 342 553.031 342.234C554.899 342.389 554.043 344.336 554.043 345.427C554.121 354.462 554.199 363.574 554.043 372.609C553.965 375.024 554.666 375.647 557.001 375.647C563.071 375.491 569.142 375.647 575.212 375.725C575.212 375.958 575.212 376.192 575.212 376.348C565.873 376.426 556.534 376.503 547.194 376.503C546.65 376.503 546.027 376.503 545.482 376.503C537.155 376.503 528.749 376.503 520.422 376.503C525.481 375.569 530.539 375.413 535.52 375.647C538.4 375.803 539.489 375.102 539.412 371.908C539.178 363.107 539.334 354.306 539.334 345.427C539.334 344.414 539.256 342.623 539.645 342.467C542.68 341.533 541.435 339.118 541.513 337.327C541.824 329.616 541.824 321.827 541.902 314.039Z" fill="#3D3D3D"/>
<path d="M572.177 151.957C568.052 153.515 562.215 158.033 562.215 161.927C562.215 165.821 562.682 177.348 562.993 181.788C564.628 208.659 566.885 219.329 561.203 220.342C555.522 221.354 533.186 222.678 533.186 222.678L536.844 224.781C537.855 225.404 538.634 226.261 539.023 227.351C539.49 228.753 539.957 230.467 539.256 231.246C538.011 232.492 530.306 232.414 530.306 232.414C530.306 232.414 527.349 239.112 528.672 239.657C529.995 240.203 564.628 240.748 567.196 239.19C569.764 237.632 577.236 243.396 580.271 240.358C583.306 237.321 586.497 238.411 586.497 232.725C586.497 227.04 580.66 160.992 579.415 158.266C578.17 155.618 573.111 151.724 573.111 151.724L572.177 151.957Z" fill="#FFCC00"/>
<path d="M533.653 149.465C531.162 149.621 530.306 149.699 529.45 149.777C529.061 149.854 528.983 151.101 529.061 151.879C529.139 153.749 528.672 153.904 531.551 159.357C531.863 159.902 532.563 162.472 532.874 162.706C533.186 162.939 533.886 161.927 534.275 160.525C534.664 159.201 536.143 157.176 536.688 156.708C537.233 156.241 538.089 155.696 538.089 155.696C538.089 155.696 540.424 158.578 540.735 159.045C541.046 159.512 543.614 164.497 543.614 164.497C543.614 164.497 545.171 162.16 545.716 161.148C546.261 160.135 550.23 153.437 550.385 152.425C550.619 151.412 551.942 148.842 550.93 146.739C549.918 144.636 548.362 143.39 547.506 142.845C546.65 142.299 545.249 141.754 545.249 141.754C545.249 141.754 544.782 141.598 544.782 142.533C544.782 143.468 544.159 146.038 542.914 148.219C541.669 150.4 540.968 152.035 539.567 153.126C538.167 154.294 537.31 154.138 536.999 153.982C534.976 152.425 534.82 151.802 534.197 150.322C533.808 149.621 533.653 149.465 533.653 149.465Z" fill="white"/>
<path d="M553.343 112.158C551.241 108.419 547.584 106.628 545.249 103.201C541.046 96.9697 534.742 95.0225 527.504 96.6582C516.531 99.0726 509.526 106.316 504.779 116.052C504.389 116.909 504 118.466 504.467 119.012C506.491 121.582 506.413 124.775 507.036 127.657C508.359 136.77 515.83 146.038 518.087 147.596C522.212 149.854 526.492 150.555 531.084 149.465C531.162 149.465 531.24 149.465 531.318 149.387C531.473 150.945 532.018 152.58 533.108 153.593C535.287 155.696 538.633 155.462 540.735 153.359C543.303 150.867 544.626 147.206 544.626 143.624C544.626 142.923 544.47 142.222 544.159 141.676C545.871 139.963 547.739 138.327 549.218 136.38C555.444 128.514 558.012 120.647 553.343 112.158Z" fill="#F0D0B4"/>
<path d="M556.067 119.012C555.211 110.21 548.362 103.59 541.591 98.6054C535.054 93.7764 526.804 93.4649 519.566 97.0476C513.495 100.085 502.911 108.419 503.534 118.934C503.534 120.414 504.234 121.27 505.401 121.738C509.526 123.373 513.262 123.14 517.543 122.283C519.799 121.815 522.134 121.192 524.469 121.426C527.504 121.738 528.75 123.607 530.462 125.866C531.396 127.034 532.485 128.202 533.808 128.903C534.587 129.293 535.443 129.526 536.377 129.682C537.7 129.838 539.023 129.059 540.112 129.215C544.159 129.682 540.502 133.576 540.19 135.601C539.957 137.315 541.202 139.028 541.902 140.508C542.681 142.222 545.171 142.689 546.572 141.365C552.876 135.835 556.923 127.579 556.067 119.012Z" fill="#3D3D3D"/>
<path d="M509.837 400.57C513.792 400.57 516.997 397.362 516.997 393.405C516.997 389.447 513.792 386.239 509.837 386.239C505.883 386.239 502.677 389.447 502.677 393.405C502.677 397.362 505.883 400.57 509.837 400.57Z" fill="#3D3D3D"/>
<path d="M546.494 400.415C550.448 400.415 553.654 397.206 553.654 393.249C553.654 389.292 550.448 386.083 546.494 386.083C542.539 386.083 539.334 389.292 539.334 393.249C539.334 397.206 542.539 400.415 546.494 400.415Z" fill="#3D3D3D"/>
<path d="M587.275 400.181C591.23 400.181 594.435 396.973 594.435 393.015C594.435 389.058 591.23 385.85 587.275 385.85C583.321 385.85 580.115 389.058 580.115 393.015C580.115 396.973 583.321 400.181 587.275 400.181Z" fill="#3D3D3D"/>
<path d="M508.203 393.405C508.203 393.327 508.203 393.249 508.203 393.171C508.203 388.031 510.304 383.435 513.573 380.086C516.92 376.737 521.511 374.712 526.648 374.712H568.752C578.948 374.712 587.275 382.968 587.275 393.249C587.275 393.327 587.275 393.405 587.275 393.483" fill="#3D3D3D"/>
<path d="M509.837 400.57C513.792 400.57 516.997 397.362 516.997 393.405C516.997 389.447 513.792 386.239 509.837 386.239C505.883 386.239 502.677 389.447 502.677 393.405C502.677 397.362 505.883 400.57 509.837 400.57Z" fill="#3D3D3D"/>
<path d="M546.494 400.415C550.448 400.415 553.654 397.206 553.654 393.249C553.654 389.292 550.448 386.083 546.494 386.083C542.539 386.083 539.334 389.292 539.334 393.249C539.334 397.206 542.539 400.415 546.494 400.415Z" fill="#3D3D3D"/>
<path d="M587.275 400.181C591.23 400.181 594.435 396.973 594.435 393.015C594.435 389.058 591.23 385.85 587.275 385.85C583.321 385.85 580.115 389.058 580.115 393.015C580.115 396.973 583.321 400.181 587.275 400.181Z" fill="#3D3D3D"/>
<path d="M508.203 393.405C508.203 393.327 508.203 393.249 508.203 393.171C508.203 388.031 510.304 383.435 513.573 380.086C516.92 376.737 521.511 374.712 526.648 374.712H568.752C578.948 374.712 587.275 382.968 587.275 393.249C587.275 393.327 587.275 393.405 587.275 393.483" stroke="#3D3D3D" stroke-width="4" stroke-miterlimit="10"/>
<path d="M546.65 374.634L546.494 389.822" stroke="#3D3D3D" stroke-width="4" stroke-miterlimit="10"/>
<path d="M328.578 51.8735C327.488 40.4242 333.325 34.0376 343.832 31C345.933 31 347.957 31 350.058 31C355.506 32.0904 360.331 35.7511 366.246 35.0501C367.569 34.8943 367.647 35.9847 367.803 36.7636C368.348 39.3338 368.425 41.8262 367.102 44.2407C364.923 47.2003 361.966 48.6023 358.23 49.0696C350.525 50.0821 343.599 48.5244 337.217 44.0849C336.594 45.5647 337.372 46.5773 337.528 47.6677C337.917 52.263 338.306 56.7804 334.804 60.5189C333.481 61.9987 332.469 62.2324 331.302 60.2073C329.823 57.6371 329.278 54.7553 328.578 51.8735Z" fill="#3D3D3D"/>
<path d="M329.045 395.196C329.123 388.732 329.278 382.189 329.278 375.725C329.512 328.136 329.745 280.47 330.057 232.881C330.134 216.136 330.524 199.39 330.757 182.722C337.684 182.878 344.688 183.034 351.615 183.268C362.588 183.657 373.562 183.112 384.458 184.124C384.38 238.255 384.769 405.399 387.882 406.334C392.085 407.58 396.132 409.294 400.179 410.929C401.268 411.319 403.058 411.474 402.28 413.422C401.658 414.979 400.101 414.823 398.934 414.59C390.995 413.188 383.057 411.474 375.041 410.228C372.472 409.839 371.928 408.593 371.85 406.412C371.694 402.673 365.001 249.471 363.678 219.329C363.367 212.553 363.367 212.786 356.362 212.786C353.016 212.786 352.393 214.033 352.237 217.07C351.615 230.934 350.681 244.72 349.903 258.584C347.256 303.836 344.532 349.087 341.809 394.339C341.497 398.078 341.108 401.816 341.03 405.555C340.952 407.814 340.096 408.67 337.917 408.904C328.111 409.917 318.383 411.007 308.654 412.175C307.565 412.331 306.475 412.331 306.164 411.085C305.697 409.449 307.253 409.605 308.109 409.371C312.779 407.892 317.526 406.567 322.196 405.166C329.512 402.985 329.512 402.985 329.045 395.196Z" fill="#3D3D3D"/>
<path d="M356.284 87.5454C356.206 88.0907 356.206 88.558 356.129 89.1032C350.914 93.6206 350.914 93.6206 345.466 89.0253C344.922 88.558 344.299 88.0906 343.676 87.6233C343.676 87.3897 343.676 87.0781 343.676 86.8445C343.676 86.7666 343.676 86.7666 343.676 86.6887C344.065 79.9905 343.754 81.3145 340.563 78.9001C339.24 77.8876 337.139 74.85 336.516 73.2923C334.415 67.4508 335.971 66.5162 331.457 66.3604C325.698 66.2046 325.309 52.8082 328.422 51.6399C329.123 54.5217 329.667 57.4035 331.146 60.0516C332.314 62.1545 333.247 61.843 334.648 60.3631C338.151 56.6246 337.761 52.0293 337.372 47.5119C337.294 46.4215 336.438 45.409 337.061 43.9291C343.521 48.3687 350.447 49.9264 358.074 48.9139C361.81 48.3687 364.69 47.0446 366.947 44.0849C367.102 44.5522 367.258 45.0974 367.414 45.5648C369.904 54.2101 372.394 70.8778 359.864 80.8472C355.195 84.5858 356.985 82.1713 356.284 87.5454Z" fill="#F0D0B4"/>
<path d="M366.947 73.5259C366.324 72.9807 365.935 72.5133 366.324 71.5787C369.593 63.0891 369.593 54.4437 367.102 45.7984C370.916 45.6426 374.418 46.9667 378.154 47.434C381.189 47.8234 379.321 49.9263 379.477 51.3283C378.621 56.2351 377.765 61.2198 376.908 66.1267C376.753 66.5161 376.597 66.8277 376.442 67.2171C375.663 69.6316 376.519 73.2922 374.418 74.3047C372.55 75.2394 369.515 73.8374 366.947 73.5259Z" fill="#3D3D3D"/>
<path d="M376.909 66.0488C377.765 61.1419 378.621 56.1572 379.477 51.2504C385.003 52.4187 386.793 55.0668 385.158 60.2073C384.691 61.6871 385.236 62.2323 386.248 63.0112C388.505 64.7247 390.684 66.5161 392.941 68.3075C395.976 70.644 396.288 75.3172 393.564 78.0432C391.618 79.9904 389.984 78.7442 388.583 77.4201C384.691 73.6816 380.8 69.8652 376.909 66.0488Z" fill="#EFBBC4"/>
<path d="M232.072 67.6065C231.995 61.5314 235.341 57.9486 239.466 58.1823C242.735 58.4159 245.459 63.7901 246.782 66.1267C248.65 69.4758 250.829 72.5912 253.086 75.9403C255.187 78.9779 256.043 78.199 257.288 75.7067C257.678 75.0057 259.779 68.8527 262.192 70.021C264.215 71.0335 262.97 74.149 262.581 75.5509C261.569 78.7443 260.557 82.0155 259.156 84.9752C257.6 88.3243 255.654 91.3618 258.923 94.7888C260.324 96.1908 258.534 96.8139 257.755 97.3591C256.043 98.6831 254.642 101.643 251.918 99.5399C246.081 95.1004 241.801 91.2839 237.52 83.9626C235.886 81.3145 231.839 70.7999 232.072 67.6065Z" fill="#F0D0B4"/>
<path d="M424.461 95.5677C417.379 89.4147 410.296 83.1059 403.37 76.7192C401.891 75.3952 398.077 72.3576 396.521 71.1893C396.132 70.8778 395.587 70.9556 395.354 71.3451L388.66 79.601C388.349 79.9905 388.427 80.6135 388.816 80.9251C390.295 82.0934 393.486 84.5857 395.042 85.8319C397.766 88.0127 400.412 90.5051 402.903 94.0879C386.948 91.9849 371.928 87.5454 356.362 88.3243L356.207 89.882C356.44 89.882 356.596 89.882 356.829 89.882C356.284 90.1936 355.817 90.583 355.428 91.1282C355.117 91.5955 354.261 92.2965 353.327 93.0753C350.214 93.4648 347.49 92.2965 345.233 89.8041C344.766 89.2589 344.143 88.8695 343.521 88.7137C343.599 88.6358 343.754 88.5579 343.832 88.4022C343.676 88.0127 343.676 88.0127 343.521 87.6233C340.408 87.5454 337.295 87.5454 334.104 87.0781C329.745 86.3771 325.153 86.3771 321.496 89.4147C310.833 98.0601 299.237 105.303 288.419 113.715C286.629 115.117 285.15 114.806 283.36 113.248C276.434 107.329 269.196 101.643 262.191 95.7235C260.946 94.711 259.779 94.2436 258.3 95.0225C256.121 96.1908 254.019 97.437 251.84 98.6053C250.439 99.3841 250.984 100.085 251.763 101.02C260.168 110.132 268.651 119.245 276.823 128.514C279.625 131.629 282.193 132.33 286.318 130.928C297.058 127.112 307.954 123.84 318.772 120.258C320.873 119.557 322.507 119.167 322.896 122.205C324.375 135.134 325.932 148.063 327.566 160.914C328.578 168.703 329.667 176.492 330.679 184.28C337.606 184.436 344.61 184.592 351.537 184.825C362.511 185.215 373.484 184.67 384.38 185.682C387.726 186.383 382.201 127.891 381.189 113.871C381.033 112.157 380.099 110.21 387.727 110.132C398.311 110.055 408.895 109.743 419.558 109.354C422.904 109.198 426.251 109.042 427.496 105.226C428.664 101.487 427.652 98.2937 424.461 95.5677Z" fill="#3A9CD7"/>
<path d="M350.525 96.2687L347.879 102.11L350.136 105.459L347.879 109.12V145.181L354.884 152.736C354.884 152.736 360.565 144.247 360.176 143.935C359.787 143.624 354.728 108.731 354.728 108.731L352.393 105.849L354.884 101.954L351.926 95.7235L350.525 96.2687Z" fill="#FBBA0E"/>
<path d="M343.443 86.455C343.365 86.3771 337.45 87.3897 337.45 87.3897C337.45 87.3897 337.45 91.3619 339.162 94.6331C340.875 97.9043 343.988 101.643 345.544 103.434C347.101 105.226 347.646 106.004 347.646 106.004C347.646 106.004 348.502 101.799 348.891 100.552C349.28 99.3063 351.381 97.2812 351.381 97.2812C351.381 97.2812 352.86 98.7611 353.405 100.241C353.95 101.643 354.339 102.266 355.195 103.201C356.129 104.213 357.14 104.68 357.14 104.68C357.14 104.68 357.919 101.799 358.152 100.475C358.386 99.1505 358.853 95.4119 359.242 94.3215C359.631 93.2311 359.787 91.284 359.787 90.5051C359.709 89.8041 359.32 88.4022 359.086 88.3243C359.008 88.2464 356.518 87.0002 356.518 87.0002C356.518 87.0002 356.362 88.4022 355.506 89.5705C354.65 90.7388 353.171 91.8292 352.004 92.2965C350.914 92.7638 349.747 92.2965 348.424 91.5176C347.023 90.7388 346.011 89.9599 345.778 89.4926C345.389 89.1032 343.443 86.455 343.443 86.455Z" fill="white"/>
<path d="M642.221 365.366C642.221 365.833 642.221 366.222 642.299 366.69C638.252 368.559 634.439 371.051 630.002 372.142C624.477 373.466 618.873 375.024 614.048 370.195C617.317 368.559 630.08 364.976 629.847 362.64C628.057 348.62 624.71 316.064 623.698 314.039C628.835 312.792 634.049 313.649 639.264 313.571C638.953 317.699 641.443 352.281 642.221 365.366Z" fill="#F0D0B4"/>
<path d="M611.09 110.911C606.265 114.883 603.23 120.024 600.739 125.71C597.393 133.576 597.704 141.988 597.159 150.166C595.758 169.404 594.98 188.642 593.813 207.88C593.424 215.123 592.723 222.289 592.334 229.532C592.256 231.557 591.089 232.18 589.688 232.414L576.302 236.386C576.224 236.386 574.122 237.165 573.967 237.165C577.625 237.243 578.403 237.165 579.648 237.165C585.641 237.243 591.711 237.165 597.704 237.165C601.362 234.361 600.973 230.077 601.595 226.183C604.475 208.347 607.277 190.511 610.079 172.675C612.024 160.213 613.892 147.674 615.76 135.212C615.838 134.744 616.071 134.277 616.305 133.81C614.592 126.177 613.736 118.31 611.09 110.911Z" fill="#F0D0B4"/>
<path d="M655.53 366.612C655.53 366.378 655.452 366.067 655.452 365.833C655.452 365.054 655.607 364.275 655.452 363.496C654.362 354.228 653.35 345.037 652.261 335.847C651.327 328.292 650.315 320.815 649.303 313.26C654.518 312.014 659.732 312.87 664.947 312.792C664.713 325.41 662.145 361.549 671.873 378.528C668.371 380.943 665.336 380.398 662.923 376.971C661.756 375.257 660.744 373.388 659.654 371.674C658.409 369.805 657.787 367.546 655.53 366.612Z" fill="#F0D0B4"/>
<path d="M616.383 135.835C614.67 128.202 613.814 120.413 611.246 112.936C611.246 112.469 611.168 111.924 611.168 111.456C610.701 110.288 611.09 109.509 612.18 108.964C615.059 107.562 617.861 105.927 621.208 105.927C624.866 108.886 628.679 111.534 633.66 111.379C634.827 111.379 635.217 112.08 635.606 112.936C636.773 115.429 638.33 117.454 641.521 116.908C644.556 116.363 644.245 113.559 644.945 111.456C645.645 114.338 645.879 116.908 643.388 119.323C640.12 122.516 639.653 126.411 641.832 129.448C644.011 132.486 647.669 133.265 651.872 130.85C655.296 128.903 658.798 128.202 662.69 128.747C666.503 129.215 669.928 128.436 672.651 125.632C671.095 133.81 668.293 141.598 665.491 149.387C662.923 156.553 661.756 163.173 666.192 170.027C667.359 171.818 667.748 174.155 668.449 176.18C666.425 178.361 666.347 180.464 668.371 182.722C673.508 187.318 672.885 214.734 671.406 228.909C671.017 232.414 670.628 235.841 670.161 239.346C650.004 239.346 629.924 239.346 609.767 239.346C609.378 234.049 609.145 228.753 608.522 223.457C605.954 201.96 609.845 181.71 620.196 162.783C621.208 160.914 621.441 159.201 621.052 157.176C619.496 150.01 617.939 142.922 616.383 135.835Z" fill="#F65414"/>
<path d="M677.243 103.512C675.765 107.952 674.13 111.456 671.951 115.584C670.706 113.482 669.85 113.014 668.838 108.653C667.204 106.16 667.359 103.824 670.239 102.188C672.185 102.266 674.52 101.643 677.243 103.512Z" fill="#F65414"/>
<path d="M673.041 123.451C670.005 118.077 672.574 107.484 677.01 103.746C687.127 115.662 695.221 128.046 704.872 140.352C706.273 142.222 707.752 144.013 709.075 145.96C712.732 151.49 711.799 156.786 706.195 160.291C693.665 168.08 681.057 175.791 668.527 183.501C658.098 179.841 647.202 193.393 645.179 189.499C645.023 186.149 647.358 170.261 665.881 173.298C666.348 173.22 667.048 173.298 667.359 173.065C674.675 167.145 682.069 161.304 689.306 155.229C691.953 153.048 691.719 150.4 689.929 147.674C683.703 138.561 678.489 132.797 673.041 123.451Z" fill="#F0D0B4"/>
<path d="M613.97 92.5301C620.896 90.8166 627.434 88.2464 633.816 84.7415C634.516 87.6233 633.893 90.1935 633.193 93.3869C636.462 89.9599 638.641 86.6886 640.742 82.5607C641.443 85.9877 642.377 88.3243 646.346 87.5454C648.603 87.0781 650.704 88.8695 651.327 91.5176C651.949 94.1657 652.416 97.2812 650.393 98.4495C642.688 102.967 640.82 101.331 643.933 109.587C644.244 110.288 644.4 111.067 644.634 111.846C643.933 113.949 644.244 116.753 641.209 117.298C638.018 117.843 636.462 115.896 635.294 113.326C634.905 112.469 634.438 111.768 633.349 111.768C628.368 111.924 624.554 109.276 620.896 106.316C619.029 103.59 618.017 100.319 615.682 97.9043C615.448 97.5927 615.215 97.2812 615.137 96.8917L613.97 92.5301Z" fill="#F0D0B4"/>
<path d="M672.652 126.566C669.85 129.37 666.503 130.149 662.69 129.682C658.876 129.215 655.374 129.838 651.872 131.785C647.669 134.199 644.089 133.42 641.832 130.383C639.653 127.345 639.42 122.984 642.766 119.79C645.257 117.376 645.646 115.273 644.945 112.391C644.712 111.612 644.556 110.911 644.245 110.132C641.132 101.876 641.132 101.876 648.759 97.359C650.782 96.1128 652.261 94.7109 651.638 92.0628C651.016 89.4146 648.914 87.6232 646.657 88.0906C642.61 88.8694 641.754 86.5328 641.054 83.1058C638.953 87.2338 636.773 90.4271 633.505 93.932C634.127 90.6608 634.828 88.1684 634.127 85.2866C627.745 88.7915 621.13 91.4397 614.281 93.0753C612.88 93.0753 611.48 93.0753 609.845 93.0753C611.791 89.7262 611.869 86.1434 612.102 82.4827C613.192 65.4256 629.769 54.21 644.945 60.9082C649.926 63.0891 655.685 64.6468 659.421 69.0863C663.39 73.9153 665.025 79.9125 666.27 85.8319C666.97 89.0252 668.216 91.1281 671.017 92.8416C674.13 94.7109 676.31 97.359 675.998 101.409C675.843 103.901 674.909 105.381 672.73 107.017C669.85 108.653 669.694 110.989 671.329 113.481C672.73 115.662 676.543 121.114 674.208 124.697C673.586 125.32 673.119 125.943 672.652 126.566Z" fill="#3D3D3D"/>
<path d="M615.449 97.5149C618.095 100.007 619.106 103.434 621.052 106.316C617.706 106.316 614.904 107.952 612.024 109.354C610.935 109.899 610.468 110.678 611.012 111.846C609.689 109.198 610.779 106.861 612.258 104.68C613.736 102.5 615.371 100.397 615.449 97.5149Z" fill="#3D3D3D"/>
<path d="M655.452 366.3C657.709 367.235 658.798 370.039 659.966 371.83C661.055 373.544 661.756 375.413 662.923 377.049C665.414 380.398 668.449 380.943 671.873 378.606C674.13 380.631 674.831 383.435 675.531 386.161C675.998 388.108 675.765 390.133 673.975 391.38C672.262 392.626 670.472 391.847 668.916 390.912C662.301 387.096 650.315 374.323 655.452 366.3Z" fill="#3D3D3D"/>
<path d="M614.048 370.195C618.873 374.946 624.476 373.466 630.002 372.142C634.438 371.051 638.563 368.403 642.299 365.755C643.7 372.843 640.742 374.167 636.773 375.491C628.29 378.217 619.651 380.631 610.545 379.463C609.3 379.307 607.977 378.996 606.732 378.684C604.241 377.983 604.086 376.426 605.72 374.634C607.977 372.142 610.545 370.273 614.048 370.195Z" fill="#3D3D3D"/>
<path d="M706.818 248.536C709.153 248.536 711.487 248.536 713.822 248.536C713.822 305.627 713.744 362.795 713.9 419.886C713.9 423.858 713.122 425.416 709.075 424.559C708.296 424.403 707.518 424.559 706.74 424.559C706.74 389.277 706.74 353.994 706.74 318.712C706.74 317.154 706.662 315.596 706.584 314.039C706.662 312.481 706.74 310.923 706.74 309.365C706.818 289.193 706.818 268.865 706.818 248.536Z" fill="#3D3D3D"/>
<path d="M706.818 248.536C706.818 268.865 706.818 289.115 706.818 309.443C706.818 311.001 706.74 312.559 706.662 314.117C692.731 315.129 578.714 314.662 556.222 314.662C554.51 314.662 425.317 314.662 412.476 314.584C412.476 292.62 412.476 270.656 412.476 248.692C413.643 248.614 414.81 248.536 415.978 248.536C512.25 248.536 608.6 248.458 704.872 248.458C705.495 248.536 706.195 248.536 706.818 248.536Z" fill="#BABABA"/>
<path d="M404.226 248.614C406.95 248.381 409.674 248.225 412.476 248.692C412.476 270.656 412.476 292.62 412.476 314.584C412.398 325.332 412.32 336.08 412.32 346.829C412.32 371.363 412.32 395.819 412.32 420.353C412.32 421.755 412.553 423.157 412.631 424.559C409.752 424.559 406.95 424.559 404.07 424.559C404.693 420.431 404.382 416.303 404.226 412.097C404.771 406.645 404.771 401.193 404.226 395.741C404.304 394.184 404.382 392.626 404.382 391.068C404.382 343.635 404.304 296.125 404.226 248.614Z" fill="#3D3D3D"/>
<path d="M724.951 249.471H392.63C389.05 249.471 386.248 246.589 386.248 243.006C386.248 239.424 389.127 236.62 392.63 236.62H724.951C728.531 236.62 731.411 239.502 731.411 243.006C731.333 246.589 728.531 249.471 724.951 249.471Z" fill="#DFE4EF"/>
</svg>
