<svg width="818" height="477" viewBox="0 0 818 477" fill="none" xmlns="http://www.w3.org/2000/svg">
<path opacity="0.5" d="M44.4919 250.763C58.0029 242.053 73.1096 237.429 88.961 236.677C94.3867 197.213 113.004 163.233 144.281 142.909C163.324 130.543 184.921 124.629 207.368 124.414C209.921 104.843 219.07 87.9608 234.496 77.9604C267.476 56.5617 316.519 74.4119 344.073 117.747C363.116 147.748 366.84 182.158 356.414 207.536C360.457 212.912 364.287 218.396 368.01 224.203C373.755 233.343 378.861 242.591 383.223 251.946C400.245 252.161 402.5 250.763 435 250.763C471.5 236.677 511.418 274.312 537.269 314.959C556.312 344.96 560.036 379.37 549.61 404.748C549.61 404.748 823.553 455.825 817.914 455.825L47.6835 445.287C40.1301 445.287 33.0023 441.416 28.9597 435.072C28.9597 435.072 28.9597 434.964 28.8533 434.964C-14.2328 366.789 -7.31778 284.42 44.4919 250.763Z" fill="#C8C8C8"/>
<path d="M212.517 123.044C218.567 122.829 224.397 123.688 229.896 126.479C237.046 130.237 239.246 137.215 241.666 143.764C245.076 153.427 247.825 163.411 250.795 173.288C251.565 175.758 252.115 178.442 251.015 181.018C247.166 183.488 244.636 187.782 239.686 188.641C235.836 175.972 234.076 162.874 232.206 149.884C231.656 144.945 231.326 139.899 228.907 135.175C229.566 140.007 230.226 144.838 230.886 149.562C231.106 152.568 231.106 155.681 231.436 158.687C232.536 169.316 232.536 180.052 234.626 190.573C234.406 199.914 235.836 209.254 236.826 218.487C236.056 225.788 237.706 233.088 238.146 240.281C238.476 244.898 237.926 249.622 239.246 254.023C241.006 260.036 239.246 264.115 233.966 267.121C221.427 270.879 208.558 271.845 195.688 269.913C179.739 267.551 164.34 263.579 152.241 252.091C150.921 245.757 154.55 239.852 154.111 233.518C154.44 233.088 154.99 232.766 155.1 232.229C157.74 219.346 160.6 206.463 162.8 193.58C163.57 189.07 166.65 184.669 164.01 179.837C154.111 181.018 146.961 175.65 139.811 170.068C140.031 162.874 144.871 157.614 148.281 151.816C153.011 143.657 158.95 136.142 163.79 127.875C169.95 117.246 179.079 115.851 189.969 118.857C191.509 119.286 193.158 119.393 194.808 119.608C194.808 123.366 194.478 127.66 198.328 129.593C202.398 131.633 205.038 134.746 208.008 138.289C208.228 132.921 213.727 128.949 212.517 123.044Z" fill="white"/>
<path d="M152.241 252.198C164.34 263.686 179.739 267.658 195.689 270.02C208.558 271.845 221.427 270.987 233.967 267.229C234.516 277.858 235.176 288.594 235.726 299.222C235.506 314.682 234.846 330.25 232.977 345.602C229.567 374.482 222.417 402.718 215.488 430.846C213.948 436.966 213.398 443.515 209.988 449.098C207.128 449.205 204.268 449.312 201.518 449.42C201.188 447.702 200.748 445.877 200.748 444.159C200.308 428.27 199.648 412.38 199.538 396.491C199.318 376.844 199.538 357.197 199.538 337.55C198.878 337.55 198.328 337.55 197.668 337.55C197.558 338.516 197.338 339.59 197.228 340.556C196.019 350.326 195.359 360.096 191.399 369.329C179.629 397.35 164.56 423.653 146.631 448.346C143.441 448.561 140.692 447.272 137.942 446.091C140.252 431.276 144.761 416.997 148.611 402.503C153.671 383.5 159.94 364.82 161.37 345.173C162.14 335.618 159.391 326.385 158.181 317.152C155.211 295.572 151.801 274.1 152.241 252.198Z" fill="#3A9CD7"/>
<path d="M556.579 324.989C562.079 290.956 567.689 256.922 572.968 222.782C574.178 214.622 576.488 206.356 573.078 198.196C578.358 195.619 583.858 193.687 589.687 192.828C602.667 198.089 616.306 201.095 629.725 204.853C629.945 205.175 630.275 205.389 630.495 205.711V205.604C643.474 224.285 647.764 245.542 649.194 267.551C649.414 270.557 649.194 273.563 650.294 276.462C649.964 291.6 649.304 306.738 648.094 321.768C647.434 329.928 644.904 336.369 635.995 338.624C625.985 338.409 616.086 338.302 606.076 338.087C601.787 338.087 597.497 338.087 593.207 338.087C583.638 337.872 574.068 337.765 564.499 337.55C559.769 334.759 556.689 330.679 556.579 324.989Z" fill="#3A9CD7"/>
<path d="M633.795 474.112C628.735 476.152 623.126 477.118 618.396 475.186C615.426 472.824 614.656 470.033 615.756 466.168C617.846 458.974 619.166 451.567 618.396 444.051C617.406 435.033 615.756 426.122 614.656 417.211C612.896 403.147 611.246 388.975 609.706 374.911C608.386 362.779 607.396 350.54 606.187 338.301C616.196 338.516 626.095 338.623 636.105 338.838C634.675 355.372 633.245 371.798 631.925 388.331C631.045 399.497 630.715 410.77 629.285 421.828C627.855 433.101 628.185 444.159 630.495 455.324C631.265 459.189 632.145 462.947 634.565 466.275C636.325 468.852 637.315 471.75 633.795 474.112Z" fill="#E4B69D"/>
<path d="M139.921 170.282C146.961 175.865 154.221 181.126 164.12 180.052C154.881 194.224 145.861 208.503 146.631 226.217C146.741 242.107 145.201 257.996 145.201 273.885C145.201 280.327 149.711 285.051 149.821 291.17C149.821 292.566 152.131 294.606 149.821 295.357C147.731 296.109 147.841 293.425 147.071 292.137C146.741 291.492 146.411 290.956 145.971 290.204C143.771 293.317 143.771 294.606 145.531 297.612C146.851 299.866 149.931 300.833 150.261 303.946C140.581 304.805 133.102 297.397 135.742 287.52C138.491 276.999 135.192 267.444 133.652 257.566C131.452 243.18 129.252 228.687 127.712 214.193C126.942 207 129.032 200.021 129.802 192.936C133.652 185.528 135.522 177.368 139.921 170.282Z" fill="#E0BBC1"/>
<path d="M160.93 474.22C157.52 475.723 154.22 474.327 150.811 474.22C145.201 472.502 139.591 470.892 134.091 468.959C129.692 467.456 128.372 463.699 130.682 460.37C133.761 455.861 135.301 450.815 137.721 446.092C140.471 447.273 143.221 448.668 146.411 448.346C143.661 458.223 144.541 460.37 153.12 466.06C155.54 467.671 158.18 468.637 161.04 469.389C162.47 469.711 164.89 469.174 164.78 471.536C164.89 474.005 162.69 474.005 160.93 474.22Z" fill="#E0BBC1"/>
<path d="M489.482 426.981C494.212 428.162 495.422 425.586 494.982 420.754C493.552 404.436 483.983 395.954 467.594 396.706C464.844 396.813 463.744 397.564 463.524 400.356C462.534 416.46 472.323 426.767 489.482 426.981ZM504.992 426.981C521.381 426.767 530.51 417.104 530.18 401C530.07 397.672 528.75 396.813 525.561 396.813C509.391 396.598 500.702 404.113 498.942 420.325C498.172 426.659 498.612 427.089 504.992 426.981ZM502.352 396.598C517.421 396.384 526.001 387.58 525.671 373.516C525.561 370.402 524.241 369.543 521.381 369.436C506.642 369.329 498.282 377.273 497.732 391.767C497.512 395.632 498.942 397.242 502.352 396.598ZM445.485 405.187C446.255 401.644 444.275 400.356 440.315 400.463C425.686 400.785 416.996 409.804 417.436 424.083C417.546 427.411 419.306 427.84 421.946 427.733C436.465 427.733 444.825 419.895 445.485 405.187ZM412.927 422.687C412.377 408.73 404.017 401.215 389.608 401.322C386.088 401.322 385.318 402.718 385.318 405.831C385.318 419.466 391.918 426.552 406.437 428.27C412.707 429.021 413.147 428.592 412.927 422.687ZM473.093 369.865C466.384 369.543 466.164 369.651 466.604 376.092C467.594 390.371 475.513 396.169 490.582 396.706C493.222 396.813 493.992 395.739 494.102 393.27C495.092 379.421 487.063 370.402 473.093 369.865ZM337.801 421.399C338.351 423.331 336.151 426.659 340.99 426.981C353.53 427.84 362.989 418.715 361.999 406.475C361.889 404.328 361.229 403.362 358.809 403.147C346.93 402.074 338.351 409.267 337.801 421.399ZM408.197 399.068C412.927 399.175 413.147 399.068 413.367 396.384C414.686 384.359 404.457 374.375 392.248 375.448C389.938 375.663 389.058 376.629 388.948 378.669C388.178 390.693 395.767 398.745 408.197 399.068ZM315.032 403.255C310.742 402.288 310.082 404.65 310.192 408.623C310.742 420.54 318.882 427.733 331.091 426.981C333.731 426.874 334.501 425.908 334.611 423.438C335.161 411.629 327.681 403.684 315.032 403.255ZM421.176 399.068C433.825 398.853 441.525 390.693 440.865 378.991C440.645 376.2 439.325 375.448 436.685 375.448C425.026 375.234 418.206 381.353 416.556 393.592C416.006 397.779 416.996 399.819 421.176 399.068ZM494.102 362.028C493.992 350.648 483.983 341.844 473.203 343.24C471.003 343.562 470.124 344.636 469.904 346.783C468.804 357.519 477.273 366.537 488.493 366.859C492.562 366.967 494.982 366.108 494.102 362.028ZM502.132 366.752C514.451 366.752 521.821 359.022 521.601 347.32C521.491 343.347 519.731 342.703 516.541 343.24C507.082 344.743 499.382 347.642 497.952 360.74C497.512 365.142 497.292 367.504 502.132 366.752Z" fill="#FEFEFE"/>
<path d="M301.503 245.327C301.503 185.206 301.503 125.084 301.503 65.0692C301.503 59.9159 301.613 54.6552 301.613 49.5019C301.613 41.6646 303.043 40.2689 311.292 40.2689C327.791 40.2689 344.29 40.1616 360.789 40.1616C362.879 40.1616 364.969 40.1616 366.949 40.0542C393.568 40.0542 420.186 40.0542 446.805 40.0542C448.565 40.0542 450.325 40.0542 452.085 40.0542C468.584 40.1616 485.083 40.1616 501.582 40.2689C508.952 40.2689 510.601 41.8793 510.601 49.0725C510.601 118.964 510.601 188.963 510.601 258.855C510.601 266.37 509.062 267.873 501.252 267.873C463.634 267.873 426.126 267.98 388.508 267.98C383.008 267.98 377.509 267.98 372.009 267.98C364.969 263.471 357.93 259.07 351 254.56C348.8 253.165 346.93 252.198 344.73 254.56C342.97 256.493 340.991 256.278 338.791 255.419C335.711 254.131 332.521 253.594 329.111 254.024C326.141 251.984 322.622 250.803 319.322 251.984C311.072 254.99 306.452 250.159 301.503 245.327ZM482.113 169.746C482.113 154.93 482.113 140.007 482.113 125.191C482.113 111.019 482.113 111.019 467.594 111.019C453.185 111.019 453.185 111.019 453.185 125.298C453.185 157.829 453.294 190.359 453.075 222.889C453.075 227.076 454.174 228.579 458.574 228.257C464.734 227.935 471.004 227.935 477.273 228.257C481.233 228.472 482.113 226.969 482.113 223.319C482.003 205.497 482.113 187.675 482.113 169.746ZM411.827 176.187C411.827 191.969 411.937 207.644 411.717 223.426C411.717 227.184 412.707 228.472 416.666 228.257C423.486 227.935 430.196 228.042 437.015 228.257C439.985 228.364 441.305 227.613 441.305 224.392C441.195 192.184 441.195 159.976 441.305 127.768C441.305 124.44 439.765 124.01 437.015 124.01C430.196 124.117 423.486 124.225 416.666 124.01C412.707 123.795 411.827 125.298 411.827 128.949C411.937 144.731 411.827 160.513 411.827 176.187ZM400.497 181.663C400.497 167.491 400.387 153.427 400.607 139.255C400.607 135.82 399.727 134.424 395.988 134.639C389.058 134.854 382.018 134.854 375.089 134.639C372.009 134.531 370.909 135.712 371.019 138.718C371.129 167.384 371.129 195.942 371.019 224.607C371.019 227.935 372.559 228.472 375.309 228.364C382.128 228.257 388.838 228.15 395.658 228.364C399.507 228.472 400.717 227.291 400.607 223.533C400.387 209.576 400.497 195.62 400.497 181.663ZM330.321 191.218C330.321 202.061 330.431 213.012 330.211 223.855C330.211 226.969 330.981 228.364 334.501 228.257C341.431 228.042 348.36 228.042 355.4 228.257C358.37 228.364 359.69 227.613 359.69 224.392C359.58 202.598 359.58 180.804 359.69 159.01C359.69 155.789 358.26 155.145 355.4 155.145C348.69 155.252 341.871 155.359 335.051 155.145C330.981 154.93 330.211 156.54 330.211 160.083C330.431 170.497 330.321 180.804 330.321 191.218ZM452.195 79.6702C450.985 80.207 450.215 80.7438 449.335 80.9585C416.556 91.0504 383.778 101.142 351.11 111.342C349.02 111.986 346.93 112.63 344.84 113.381C342.97 114.026 341.211 114.992 341.87 117.139C342.53 119.394 344.4 120.038 346.71 119.072C347.7 118.642 348.8 118.427 349.79 118.105C382.018 108.121 414.247 98.1362 446.475 88.259C448.565 87.6149 450.765 86.3266 453.514 87.1854C452.745 88.9032 451.975 90.2989 451.535 91.8019C450.875 93.5197 450.545 95.4522 452.635 96.5258C455.054 97.8141 456.374 96.0964 457.364 94.3786C459.454 90.621 461.324 86.756 463.414 82.9984C464.954 80.3144 463.964 78.5966 461.434 77.4156C457.474 75.4832 453.624 73.5507 449.665 71.5108C447.795 70.5446 446.035 70.2225 444.935 72.2623C443.725 74.4095 444.935 76.02 447.025 76.9862C448.675 77.7377 450.215 78.5966 452.195 79.6702Z" fill="#FBBA0E"/>
<path d="M637.425 131.847C635.995 124.762 632.805 118.32 624.885 115.529C623.895 115.207 622.136 115.207 621.366 114.455L606.626 112.093C607.726 115.743 607.616 119.286 605.306 122.829C603.437 125.728 600.577 126.909 597.277 126.05C593.097 124.976 589.577 122.615 588.807 117.998C588.477 116.28 588.587 114.455 588.477 112.63C583.748 113.06 579.018 113.918 574.288 114.026C564.829 114.133 559.769 119.716 556.909 127.338C549.539 147.2 543.82 167.491 542.28 188.641C546.13 183.81 551.079 180.911 557.569 180.911C558.559 180.911 559.549 180.267 560.539 179.945C561.749 175.758 564.609 172.537 567.138 167.384C568.018 172.644 568.568 176.294 569.118 179.945C584.848 179.301 600.797 181.985 616.416 178.227C621.036 177.153 623.345 179.623 624.885 186.386C632.365 187.245 639.955 187.782 644.464 194.975C645.234 173.503 641.604 152.675 637.425 131.847Z" fill="#3A9CD7"/>
<path d="M621.035 112.844C621.475 110.912 623.785 110.482 625.985 110.16C632.585 109.301 635.885 104.577 633.245 98.8874C631.155 94.2709 632.035 87.8293 625.655 85.4674C625.105 85.2527 624.665 83.857 624.775 83.1055C625.215 74.5167 624.005 66.3574 621.146 58.0907C619.386 53.0448 616.856 49.6092 611.686 50.5755C607.506 51.327 603.766 50.7902 599.917 49.6092C594.747 48.1062 590.457 49.7166 586.387 53.1521C577.918 60.1305 577.148 69.7929 576.928 79.3479C576.818 84.5012 578.798 89.5471 584.407 91.909C584.187 89.4397 583.528 87.1852 582.098 85.1453C579.788 83.9644 579.128 81.6025 578.358 79.5626C577.698 77.8449 577.478 75.5903 579.788 75.1609C581.768 74.8388 581.988 76.986 582.098 78.5964C582.208 80.5289 582.208 82.4614 582.318 84.3938C583.198 84.1791 584.298 83.857 584.298 82.7834C583.968 76.4492 587.707 73.5505 593.317 71.7254C596.177 70.8665 597.937 68.3972 599.807 66.1427C603.216 61.8483 606.626 61.6335 610.916 65.2838C615.206 68.934 616.966 73.5505 617.296 78.9185C617.406 80.7436 616.306 82.8908 618.506 84.1791C619.056 81.2804 617.736 77.7375 622.025 75.9124C622.685 79.67 621.585 82.354 618.506 84.1791C618.506 84.1791 618.506 84.1791 618.506 84.2865C616.086 92.1237 611.246 98.5653 605.966 104.792C605.966 106.51 605.966 108.228 605.966 110.053C606.296 110.697 606.516 111.341 606.736 112.093L621.476 114.455C620.926 114.025 620.816 113.596 621.035 112.844Z" fill="#3D3D3D"/>
<path d="M482.003 339.697C477.273 335.832 471.994 332.612 469.134 326.921C466.824 322.198 465.174 317.366 465.394 311.998C466.934 295.572 478.703 283.655 494.762 283.548C509.832 283.44 522.811 292.029 525.561 309.851C527.101 320.158 522.481 328.532 515.001 335.618C504.772 342.918 493.662 343.777 482.003 339.697ZM495.532 333.685C507.632 333.685 517.091 324.559 517.201 312.75C517.201 301.155 507.522 291.707 495.642 291.6C483.873 291.492 474.083 301.047 474.193 312.75C474.193 324.989 483.103 333.685 495.532 333.685Z" fill="#3A9CD7"/>
<path d="M569.118 179.838C584.848 179.193 600.797 181.877 616.416 178.12C621.036 177.046 623.345 179.516 624.885 186.279C611.906 182.307 600.577 186.709 589.577 192.828C583.748 193.687 578.248 195.619 572.968 198.196C565.929 198.948 559.549 202.705 552.289 202.598C544.15 202.49 539.75 196.478 542.28 188.641C546.13 183.81 551.079 180.911 557.569 180.911C558.559 180.911 559.549 180.267 560.539 179.945C563.509 179.838 566.369 179.838 569.118 179.838Z" fill="#E0BBC1"/>
<path d="M618.396 84.3941C615.976 92.2315 611.136 98.6731 605.856 104.9C601.127 108.443 597.057 106.94 593.207 103.397C592.327 102.538 591.447 101.572 589.907 101.787C588.367 98.8878 586.827 95.9891 585.288 92.983C584.958 92.6609 584.518 92.2315 584.188 91.9094C583.968 89.4401 583.308 87.1855 581.878 85.1457C581.878 84.9309 581.878 84.7162 581.988 84.5015C582.868 84.2868 583.968 83.9647 583.968 82.8911C583.638 76.5568 587.377 73.6581 592.987 71.8329C595.847 70.9741 597.607 68.5048 599.477 66.2502C602.887 61.9558 606.296 61.741 610.586 65.3913C614.876 69.0416 616.636 73.6581 616.966 79.0261C617.186 80.8512 616.086 83.1058 618.396 84.3941ZM602.887 85.5751C603.437 83.75 602.337 81.6028 601.897 79.3482C601.677 78.2746 601.567 77.0936 600.027 77.201C598.927 77.3083 598.817 78.2746 598.597 79.1335C597.387 82.569 597.387 86.1119 597.607 89.6548C597.717 91.1579 598.157 92.6609 600.027 92.5535C601.457 92.4462 602.777 91.5873 602.887 89.8695C602.887 88.5812 602.887 87.2929 602.887 85.5751Z" fill="#E0BBC1"/>
<path d="M589.687 192.828C600.686 186.708 612.016 182.307 624.995 186.279C632.475 187.138 640.064 187.675 644.574 194.868C642.924 203.564 641.164 204.852 630.495 205.604V205.711C630.275 205.389 629.945 205.174 629.725 204.852C616.306 201.095 602.666 198.089 589.687 192.828Z" fill="#E4B69D"/>
<path d="M452.085 40.0543C450.325 40.0543 448.565 40.0543 446.805 40.0543C436.685 30.1771 426.676 20.2999 416.667 10.4227C414.577 8.38289 413.147 7.524 412.707 11.389C406.547 15.4687 404.677 15.3613 399.507 10.4227C398.628 6.77247 397.198 9.77858 396.538 10.4227C390.268 16.3276 383.998 22.3398 377.949 28.4594C374.209 32.217 369.589 35.3304 366.949 40.1617C364.859 40.1617 362.769 40.1617 360.79 40.269C361.12 38.3366 362.659 37.2629 363.979 36.082C373.879 26.3121 383.888 16.5423 393.898 6.87984C403.027 -2.03111 409.407 -1.92375 418.536 7.09456C429.756 17.938 440.865 28.9962 452.085 40.0543Z" fill="#8F8F8F"/>
<path d="M605.856 110.053C607.616 114.348 607.946 118.642 605.306 122.722C603.437 125.62 600.577 126.801 597.277 125.942C593.097 124.869 589.577 122.507 588.807 117.89C588.477 116.173 588.587 114.348 588.477 112.522C588.917 110.268 589.467 107.906 589.907 105.651C591.227 105.866 592.327 106.51 593.097 107.476C596.617 112.093 601.017 111.986 605.856 110.053Z" fill="#E0BBC1"/>
<path d="M605.856 110.053C601.017 111.878 596.617 112.093 593.207 107.584C592.437 106.618 591.337 105.866 590.017 105.759C590.017 104.471 590.017 103.075 590.017 101.787C591.447 101.572 592.327 102.538 593.317 103.397C597.167 106.94 601.236 108.443 605.966 104.9C605.856 106.618 605.856 108.336 605.856 110.053Z" fill="#E4B69D"/>
<path d="M584.188 91.9092C584.517 92.2312 584.957 92.6606 585.287 92.9827C584.957 92.6606 584.627 92.2312 584.188 91.9092Z" fill="#7376B9"/>
<path d="M301.613 261.539C283.244 251.339 264.985 240.926 246.506 230.834C241.226 227.935 240.346 222.352 236.716 218.487C235.616 209.254 234.186 199.914 234.516 190.574C236.496 190.574 238.256 190.144 239.686 188.641C244.636 187.782 247.166 183.488 251.015 181.019C252.115 185.528 253.655 189.929 254.315 194.439C255.965 206.678 262.565 215.696 272.464 222.889C282.364 230.082 291.823 237.812 301.503 245.327C306.452 250.158 311.072 254.99 319.322 251.984C322.622 250.803 326.141 251.984 329.111 254.023C330.981 256.493 332.851 258.855 334.611 261.324C333.951 263.042 332.631 263.471 330.871 263.686C328.561 264.008 327.131 265.404 326.911 267.873C324.821 267.766 323.502 268.947 321.962 270.342C320.092 272.06 318.662 275.173 315.142 274.422C313.382 270.664 315.362 265.189 319.542 262.398C321.302 261.217 323.282 260.25 323.062 257.244C316.242 258.425 312.282 262.72 309.312 268.088L309.092 267.873C307.112 265.296 305.353 262.29 301.613 261.539Z" fill="#E0BBC1"/>
<path d="M197.118 110.268C194.258 110.16 191.288 110.375 188.539 109.194C186.229 108.228 184.249 106.725 184.139 104.148C184.029 99.5318 182.269 95.5595 179.629 91.8018C177.649 88.9031 177.539 85.7897 179.849 82.7836C182.489 79.348 183.039 75.3757 183.039 71.1886C182.929 64.6397 185.569 61.0968 192.168 59.8084C201.738 57.876 211.417 56.9097 220.217 62.7072C223.517 64.8544 226.157 62.8145 229.016 62.1704C231.546 61.5262 234.186 59.8084 236.716 62.3851C239.136 64.8544 239.246 67.6458 238.366 70.8666C237.376 74.5168 236.276 78.0597 233.306 80.7437C231.766 82.032 231.546 83.6424 231.326 85.4676C230.996 89.4399 229.786 93.0902 227.037 96.2036C227.366 92.9828 227.806 89.8693 228.136 86.6485C228.246 84.9308 228.026 83.3204 225.607 83.4277C221.207 83.6424 217.467 81.6026 213.397 80.529C206.468 78.7039 203.388 80.2069 200.638 86.6485C200.418 87.2927 200.088 88.1516 199.648 88.2589C197.888 88.6884 197.778 86.9706 197.118 86.0044C195.578 83.4277 193.158 82.6762 190.518 83.7498C187.659 84.9308 188.099 87.6148 188.649 89.8693C188.979 91.3724 189.859 92.8754 191.068 93.949C195.578 98.4582 197.778 103.826 197.118 110.268Z" fill="#3D3D3D"/>
<path d="M197.118 110.268C197.888 103.826 195.578 98.4581 190.959 93.949C189.859 92.8754 188.979 91.265 188.539 89.8693C187.989 87.6147 187.549 84.9307 190.409 83.7498C193.049 82.6762 195.468 83.4277 197.008 86.0043C197.558 86.9706 197.668 88.6883 199.538 88.2589C199.978 88.1515 200.308 87.1853 200.528 86.6485C203.278 80.2069 206.358 78.7039 213.287 80.529C217.357 81.6026 221.097 83.6424 225.497 83.4277C227.917 83.3203 228.137 84.9307 228.027 86.6485C227.697 89.8693 227.367 92.9827 226.927 96.2035C226.487 97.0624 225.717 97.3845 224.837 97.4919C223.187 95.5594 223.957 93.0901 222.967 91.0503C222.527 90.084 222.857 88.1515 221.097 88.3663C219.227 88.581 219.227 90.1914 219.227 91.5871C219.227 94.5931 219.227 97.4919 219.227 100.498C211.088 104.792 211.088 104.792 204.488 96.9551C204.048 96.4183 203.498 95.8815 202.838 95.5594C201.958 95.1299 201.188 95.1299 200.528 96.2035C199.648 97.8139 200.528 108.872 202.068 109.516C206.578 111.556 208.558 116.173 212.408 118.749C212.408 120.145 212.518 121.648 212.518 123.044C213.727 128.948 208.118 132.921 208.008 138.503C205.038 134.853 202.398 131.847 198.328 129.807C194.479 127.875 194.808 123.58 194.808 119.823C195.578 116.602 196.348 113.381 197.118 110.268Z" fill="#E0BBC1"/>
<path d="M212.407 118.749C208.558 116.173 206.688 111.449 202.068 109.516C200.528 108.765 199.648 97.8141 200.528 96.2037C201.078 95.1301 201.958 95.1301 202.838 95.5596C203.498 95.8816 204.048 96.4184 204.488 96.9552C211.087 104.793 211.087 104.793 219.227 100.498C220.877 101.679 222.747 101.894 224.617 101.357C227.697 105.544 227.587 109.194 222.967 112.2C219.447 114.455 217.687 119.286 212.407 118.749ZM223.407 105.007C223.077 103.397 221.867 102.538 220.327 103.075C218.677 103.504 216.257 103.934 216.257 105.866C216.257 108.121 218.677 107.906 220.437 108.013C222.307 108.013 223.297 106.94 223.407 105.007Z" fill="#3D3D3D"/>
<path d="M224.617 101.357C222.637 101.786 220.877 101.679 219.227 100.498C219.227 97.4919 219.227 94.5932 219.227 91.5871C219.227 90.1915 219.227 88.4737 221.097 88.3664C222.857 88.259 222.527 90.0841 222.967 91.0503C223.957 93.0902 223.187 95.6668 224.837 97.4919C224.727 98.7802 224.617 100.069 224.617 101.357Z" fill="#EAD08D"/>
<path d="M239.686 188.641C238.256 190.144 236.496 190.573 234.516 190.573C232.427 180.052 232.537 169.316 231.327 158.687C230.997 155.681 230.997 152.675 230.777 149.562C231.217 149.669 231.657 149.776 232.097 149.776C234.076 162.874 235.836 175.972 239.686 188.641Z" fill="#C8C8C8"/>
<path d="M232.207 149.884C231.767 149.776 231.327 149.669 230.887 149.669C230.227 144.838 229.567 140.007 228.907 135.283C231.327 139.899 231.657 144.838 232.207 149.884Z" fill="#C8C8C8"/>
<path d="M202.618 475.186C199.428 472.287 198.548 468.959 199.978 464.772C201.628 459.941 201.738 454.68 201.408 449.635C204.268 449.527 207.128 449.42 209.878 449.312C210.758 461.551 211.307 462.196 223.297 466.168C226.597 467.242 229.787 468.53 232.976 469.818C235.286 470.784 236.936 472.395 236.496 475.186C234.296 477.333 204.708 476.689 202.618 475.186Z" fill="#E0BBC1"/>
<path d="M582.098 474.113C581.548 471.536 583.308 470.677 585.178 469.818C593.977 465.846 596.837 457.365 600.357 449.527C601.677 446.521 600.357 443.193 599.257 440.187C588.697 412.595 578.578 384.896 569.338 356.875C567.249 350.648 564.719 344.421 564.389 337.765C573.958 337.979 583.528 338.087 593.097 338.301C593.097 339.59 592.767 340.878 592.987 342.059C596.397 357.841 596.727 374.053 600.357 389.835C602.227 397.779 602.777 405.939 603.877 414.098C605.306 425.049 607.066 435.892 613.556 445.447C617.846 451.782 616.526 456.828 609.706 460.478C606.406 462.303 603.437 464.45 601.787 467.671C600.137 470.785 597.937 473.147 595.077 475.186C589.907 476.797 584.738 477.441 582.098 474.113Z" fill="#E0BBC1"/>
<path d="M629.725 204.853C629.945 205.175 630.275 205.389 630.495 205.711C630.275 205.389 629.945 205.175 629.725 204.853Z" fill="#DADBED"/>
<path d="M401.157 475.079C397.967 472.932 396.318 470.248 395.878 466.275C395.108 459.619 393.128 453.07 392.908 446.306C407.207 446.306 421.506 446.306 435.805 446.306C434.595 453.822 433.496 461.444 432.176 468.959C431.736 471.321 430.416 473.254 428.216 474.435C419.196 476.153 410.177 474.972 401.157 475.079Z" fill="#3A9CD7"/>
<path d="M516.871 446.306C515.771 453.07 514.671 459.833 513.572 466.597C513.022 470.032 511.812 473.039 508.512 474.971C499.052 474.864 489.373 476.689 480.023 473.683C477.933 471.75 477.273 469.174 476.943 466.49C476.064 459.726 473.974 453.07 473.974 446.199C488.383 446.199 502.682 446.199 516.871 446.306Z" fill="#3A9CD7"/>
<path d="M356.72 446.199C356.39 454.036 354.3 461.659 353.09 469.281C352.65 471.858 350.56 473.468 348.58 475.079C339.451 474.864 330.321 476.152 321.302 474.22C318.882 472.824 317.782 470.677 317.342 468.208C316.132 460.907 315.032 453.607 313.932 446.199C328.231 446.199 342.531 446.199 356.72 446.199Z" fill="#3A9CD7"/>
<path d="M365.519 372.549C365.519 388.761 352.21 402.073 335.821 402.073C319.322 402.073 305.572 388.761 305.572 372.871C305.572 356.553 319.322 343.24 336.041 343.347C352.1 343.455 365.409 356.553 365.519 372.549ZM335.601 393.699C347.81 393.699 357.489 383.93 357.269 372.12C357.049 360.74 347.04 351.614 334.831 351.721C323.281 351.829 313.822 361.277 313.712 372.764C313.712 384.144 323.611 393.699 335.601 393.699Z" fill="#3A9CD7"/>
<path d="M384.328 342.059C386.198 332.611 390.488 324.667 399.398 319.728C417.107 309.744 438.995 319.191 443.725 338.624C444.055 340.234 444.495 341.737 444.825 343.348C443.505 359.452 435.806 369.758 422.826 373.301C402.697 378.777 382.788 363.209 384.328 342.059ZM414.467 365.893C426.786 365.893 435.916 356.982 435.806 344.958C435.696 333.148 426.346 324.023 414.247 323.915C402.367 323.808 392.688 333.363 392.798 345.065C392.908 356.768 402.257 365.893 414.467 365.893Z" fill="#3A9CD7"/>
<path d="M489.483 426.981C472.324 426.659 462.644 416.46 463.524 400.463C463.744 397.672 464.844 396.92 467.594 396.813C483.873 396.061 493.553 404.543 494.983 420.862C495.423 425.585 494.213 428.162 489.483 426.981Z" fill="#3A9CD7"/>
<path d="M504.992 426.981C498.612 427.089 498.172 426.659 498.942 420.325C500.812 404.006 509.391 396.491 525.561 396.813C528.75 396.813 530.07 397.672 530.18 401C530.51 417.104 521.271 426.767 504.992 426.981Z" fill="#3A9CD7"/>
<path d="M502.352 396.598C498.942 397.242 497.622 395.632 497.732 391.767C498.282 377.166 506.642 369.222 521.381 369.436C524.241 369.436 525.561 370.295 525.671 373.516C526.001 387.58 517.421 396.384 502.352 396.598Z" fill="#3A9CD7"/>
<path d="M445.485 405.187C444.825 419.895 436.466 427.625 422.056 427.733C419.307 427.733 417.657 427.411 417.547 424.082C416.997 409.804 425.686 400.785 440.425 400.463C444.275 400.356 446.365 401.644 445.485 405.187Z" fill="#3A9CD7"/>
<path d="M412.927 422.687C413.147 428.592 412.707 429.021 406.327 428.27C391.808 426.659 385.208 419.466 385.208 405.831C385.208 402.718 386.088 401.322 389.498 401.322C404.017 401.215 412.377 408.73 412.927 422.687Z" fill="#3A9CD7"/>
<path d="M473.094 369.865C487.063 370.509 495.092 379.42 494.102 393.163C493.882 395.632 493.112 396.706 490.583 396.598C475.513 396.062 467.594 390.264 466.604 375.985C466.164 369.543 466.384 369.543 473.094 369.865Z" fill="#3A9CD7"/>
<path d="M516.871 446.306C502.572 446.306 488.383 446.199 474.084 446.199C469.904 446.736 467.704 444.481 467.814 440.723C467.924 437.073 470.894 436.536 474.194 436.536C488.273 436.536 502.242 436.536 516.321 436.536C519.511 436.536 522.261 437.073 522.701 440.831C522.921 444.696 520.611 446.199 516.871 446.306Z" fill="#8F8F8F"/>
<path d="M435.805 446.199C421.506 446.199 407.207 446.199 392.908 446.199C389.388 446.199 386.418 444.91 386.528 441.153C386.748 437.395 389.828 436.536 393.348 436.536C407.207 436.536 421.176 436.536 435.036 436.536C438.335 436.536 440.975 437.395 441.195 441.045C441.415 444.696 439.325 446.199 435.805 446.199Z" fill="#8F8F8F"/>
<path d="M356.72 446.199C342.421 446.199 328.121 446.199 313.822 446.199C310.082 446.199 307.772 444.588 308.212 440.723C308.542 436.966 311.402 436.536 314.592 436.536C328.341 436.536 342.091 436.536 355.73 436.536C359.14 436.536 362.33 437.181 362.769 440.938C363.209 444.696 360.35 446.091 356.72 446.199Z" fill="#8F8F8F"/>
<path d="M337.801 421.398C338.351 409.267 346.93 402.074 358.919 403.147C361.339 403.362 361.889 404.328 362.109 406.476C362.989 418.715 353.53 427.733 341.1 426.981C336.041 426.659 338.241 423.331 337.801 421.398Z" fill="#3A9CD7"/>
<path d="M408.197 399.068C395.768 398.853 388.178 390.693 389.058 378.669C389.168 376.629 390.048 375.663 392.358 375.448C404.567 374.375 414.797 384.359 413.477 396.384C413.147 398.96 412.817 399.068 408.197 399.068Z" fill="#8F8F8F"/>
<path d="M315.032 403.255C327.791 403.684 335.271 411.629 334.611 423.438C334.501 425.907 333.731 426.766 331.091 426.981C318.882 427.733 310.742 420.539 310.192 408.623C310.082 404.65 310.742 402.181 315.032 403.255Z" fill="#3A9CD7"/>
<path d="M421.176 399.067C416.996 399.926 416.007 397.779 416.557 393.592C418.206 381.353 424.916 375.234 436.685 375.448C439.325 375.448 440.755 376.2 440.865 378.991C441.525 390.693 433.826 398.745 421.176 399.067Z" fill="#8F8F8F"/>
<path d="M494.102 362.028C494.982 366.108 492.673 366.967 488.493 366.859C477.273 366.537 468.804 357.412 469.904 346.783C470.124 344.743 470.894 343.562 473.204 343.24C483.983 341.844 493.992 350.648 494.102 362.028Z" fill="#8F8F8F"/>
<path d="M502.132 366.752C497.292 367.504 497.402 365.142 497.952 360.74C499.382 347.749 507.082 344.85 516.541 343.24C519.731 342.703 521.601 343.347 521.601 347.32C521.821 359.022 514.451 366.752 502.132 366.752Z" fill="#8F8F8F"/>
<path d="M309.422 268.195C312.502 262.827 316.352 258.532 323.172 257.352C323.282 260.358 321.412 261.324 319.652 262.505C315.472 265.189 313.492 270.772 315.252 274.529C314.922 277.857 316.242 280.863 318.002 283.547C319.982 286.768 322.402 287.305 324.711 283.87C328.231 278.716 331.641 273.348 335.051 268.195C337.361 265.833 340.221 263.471 334.721 261.431C332.851 258.962 331.091 256.6 329.221 254.131C332.521 253.701 335.821 254.238 338.901 255.526C341.101 256.385 343.19 256.6 344.84 254.668C346.93 252.306 348.91 253.272 351.11 254.668C358.04 259.177 365.079 263.686 372.119 268.088C375.309 270.342 378.499 272.919 381.908 274.851C385.538 276.998 385.978 279.146 383.558 282.581C379.819 287.949 381.138 290.526 387.738 291.492C401.597 293.425 415.127 297.719 429.316 296.968C431.406 302.443 426.236 304.697 423.816 308.026C422.056 310.495 419.636 308.133 417.657 306.952C413.587 304.483 409.077 305.664 404.787 305.878C395.658 306.308 386.528 307.489 377.509 307.489C369.039 307.489 363.429 310.924 359.03 317.688C354.41 324.881 354.19 324.774 346.93 320.05C337.691 313.93 328.451 307.811 319.212 301.799C316.792 300.296 315.032 298.793 316.572 295.787C317.452 293.854 316.902 292.136 315.582 290.848C308.652 284.406 307.442 276.676 309.422 268.195Z" fill="#3A9CD7"/>
<path d="M482.113 169.746C482.113 187.675 482.003 205.497 482.223 223.426C482.223 227.076 481.343 228.579 477.383 228.364C471.224 228.042 464.954 228.042 458.684 228.364C454.285 228.579 453.185 227.183 453.185 222.996C453.405 190.466 453.295 157.936 453.295 125.406C453.295 111.127 453.295 111.127 467.704 111.127C482.223 111.127 482.223 111.127 482.223 125.299C482.113 140.114 482.113 154.93 482.113 169.746Z" fill="#F65414"/>
<path d="M411.827 176.187C411.827 160.405 411.937 144.731 411.717 128.949C411.717 125.298 412.597 123.795 416.556 124.01C423.376 124.332 430.086 124.225 436.905 124.01C439.765 124.01 441.195 124.439 441.195 127.768C441.085 159.976 441.085 192.184 441.195 224.392C441.195 227.613 439.875 228.257 436.905 228.257C430.086 228.15 423.376 228.042 416.556 228.257C412.707 228.472 411.607 227.076 411.607 223.426C411.937 207.644 411.827 191.969 411.827 176.187Z" fill="#8F8F8F"/>
<path d="M400.497 181.663C400.497 195.619 400.497 209.684 400.607 223.533C400.717 227.291 399.507 228.472 395.658 228.364C388.838 228.042 382.128 228.15 375.309 228.364C372.449 228.364 370.909 227.935 371.019 224.607C371.129 195.942 371.129 167.384 371.019 138.719C371.019 135.713 372.009 134.639 375.089 134.639C382.018 134.854 389.058 134.854 395.988 134.639C399.727 134.532 400.607 135.82 400.607 139.255C400.387 153.427 400.497 167.491 400.497 181.663Z" fill="#7376B9"/>
<path d="M330.321 191.218C330.321 180.911 330.431 170.497 330.211 160.191C330.101 156.648 330.981 155.037 335.051 155.252C341.76 155.574 348.58 155.467 355.4 155.252C358.259 155.145 359.689 155.896 359.689 159.117C359.579 180.911 359.579 202.705 359.689 224.499C359.689 227.72 358.369 228.364 355.4 228.364C348.47 228.257 341.54 228.15 334.501 228.364C330.981 228.472 330.211 227.183 330.211 223.963C330.431 213.012 330.321 202.061 330.321 191.218Z" fill="#3A9CD7"/>
<path d="M452.195 79.6704C450.215 78.5968 448.675 77.7379 447.025 76.9864C444.935 75.9128 443.725 74.4098 444.935 72.2626C446.035 70.2227 447.905 70.6522 449.665 71.511C453.515 73.4435 457.474 75.4834 461.434 77.4158C463.964 78.7042 464.954 80.3146 463.414 82.9986C461.324 86.7562 459.454 90.6211 457.364 94.3787C456.374 96.2039 455.055 97.9216 452.635 96.5259C450.545 95.4523 450.875 93.5199 451.535 91.8021C452.085 90.2991 452.855 88.9034 453.515 87.1856C450.765 86.3267 448.565 87.615 446.475 88.2592C414.247 98.1363 382.018 108.228 349.79 118.105C348.69 118.427 347.7 118.642 346.71 119.072C344.4 120.038 342.53 119.394 341.871 117.139C341.211 114.992 342.97 113.918 344.84 113.381C346.93 112.63 349.02 111.986 351.11 111.342C383.888 101.25 416.667 91.1579 449.335 80.9587C450.215 80.744 450.985 80.2072 452.195 79.6704Z" fill="#3A9CD7"/>
<path d="M301.613 261.539C305.353 262.29 307.113 265.296 309.202 267.873C304.583 268.195 301.943 266.155 301.613 261.539Z" fill="#FBBA0E"/>
<path d="M569.118 179.837C566.259 179.837 563.399 179.837 560.649 179.837C561.859 175.65 564.609 172.429 567.249 167.276C568.019 172.644 568.568 176.294 569.118 179.837Z" fill="#D0D2EB"/>
<path d="M582.098 84.5014C581.988 84.7161 581.988 84.9308 581.988 85.1455C579.678 83.9646 579.018 81.6026 578.248 79.5628C577.588 77.845 577.368 75.5905 579.678 75.1611C581.658 74.839 581.878 76.9862 581.988 78.5966C581.988 80.6364 582.098 82.5689 582.098 84.5014Z" fill="#E4B69D"/>
<path d="M618.396 84.394C618.946 81.4953 617.516 77.9525 621.916 76.02C622.576 79.7776 621.476 82.4616 618.396 84.394Z" fill="#E0BBC1"/>
<path d="M602.887 85.575C602.887 87.4001 602.887 88.5811 602.887 89.8694C602.777 91.5872 601.457 92.4461 600.027 92.5534C598.157 92.7682 597.607 91.2651 597.607 89.6547C597.497 86.1118 597.497 82.5689 598.597 79.1334C598.927 78.2745 598.927 77.3083 600.027 77.2009C601.567 77.0935 601.677 78.2745 601.897 79.3481C602.337 81.4953 603.437 83.6425 602.887 85.575Z" fill="#E4B69D"/>
<path d="M412.707 11.3891C413.587 15.576 412.267 18.4747 407.537 18.9041C401.927 19.3336 399.727 16.8643 399.507 10.4229C404.677 15.3613 406.547 15.4687 412.707 11.3891Z" fill="#D0D2EB"/>
<path d="M334.941 268.088C332.301 267.981 329.551 267.981 326.911 267.873C327.131 265.404 328.561 264.008 330.871 263.686C332.521 263.471 333.951 263.042 334.611 261.324C340.111 263.364 337.251 265.726 334.941 268.088Z" fill="#FBBA0E"/>
<path d="M223.407 105.007C223.297 106.94 222.307 108.013 220.327 108.013C218.567 108.013 216.147 108.228 216.147 105.866C216.147 103.826 218.567 103.504 220.217 103.075C221.867 102.538 223.077 103.29 223.407 105.007Z" fill="#E0BBC1"/>
<path d="M499.162 304.698C497.292 304.268 494.432 303.195 493.552 305.879C492.562 308.777 495.752 309.529 497.732 310.495C505.982 314.79 506.642 319.836 499.602 325.526C498.832 326.17 497.952 327.029 497.622 327.995C496.522 330.786 495.092 331.323 493.882 328.424C492.892 326.17 490.913 325.955 489.263 325.096C487.943 324.345 486.403 323.808 487.173 321.875C487.833 320.158 489.153 319.406 491.133 320.372C492.122 320.802 493.112 321.231 494.212 321.446C495.752 321.768 497.182 321.016 497.952 319.728C498.942 318.118 497.842 316.937 496.522 316.185C494.982 315.219 493.332 314.36 491.793 313.501C486.073 310.28 486.623 305.127 490.473 300.296C495.312 294.069 497.952 297.29 501.472 300.725C502.462 301.692 503.342 302.551 502.682 303.946C501.912 305.127 500.702 305.449 499.162 304.698Z" fill="#3A9CD7"/>
<path d="M344.4 378.669C344.18 381.138 342.42 382.963 340.441 385.003C337.251 388.331 334.941 391.982 331.311 385.647C330.871 384.896 329.441 384.681 328.451 384.252C327.351 383.715 326.801 382.749 327.241 381.568C327.791 380.279 328.781 379.528 330.321 379.957C331.421 380.172 332.411 380.816 333.401 380.923C334.941 381.138 336.921 381.568 337.801 379.635C338.681 377.595 337.471 376.307 335.601 375.341C333.951 374.482 332.411 373.623 330.871 372.657C325.701 369.114 325.591 364.283 330.651 360.418C331.751 359.559 333.071 358.915 333.511 357.304C334.501 354.298 336.261 354.513 337.471 356.982C338.241 358.592 339.231 359.559 340.661 360.31C341.871 360.954 343.63 361.599 342.75 363.424C341.981 365.034 340.551 365.141 339.011 364.605C337.031 363.96 334.831 362.887 333.731 365.356C332.521 368.148 335.161 368.899 337.031 369.973C342.86 372.979 344.51 374.804 344.4 378.669Z" fill="#3A9CD7"/>
<path d="M417.986 336.691C416.117 336.154 413.697 334.866 412.707 337.443C411.607 340.449 414.467 341.308 416.557 342.381C425.136 347.105 425.576 350.97 418.206 357.626C417.327 358.378 417.106 359.344 416.667 360.31C415.457 362.672 413.807 363.424 412.707 360.418C411.827 358.056 409.847 357.949 408.087 356.982C406.657 356.231 405.557 355.265 406.217 353.547C406.877 351.936 408.087 351.614 409.737 352.258C410.837 352.688 412.157 352.903 413.477 352.903C414.797 353.01 416.117 352.581 416.667 351.292C417.326 349.897 416.447 348.823 415.347 348.071C413.587 346.89 411.497 345.924 409.737 344.743C404.677 341.415 405.337 336.691 409.077 332.182C413.477 326.814 416.227 328.424 419.856 332.397C420.736 333.363 421.946 334.007 421.286 335.51C420.626 337.121 419.306 336.799 417.986 336.691Z" fill="#3A9CD7"/>
</svg>
