<svg width="856" height="492" viewBox="0 0 856 492" fill="none" xmlns="http://www.w3.org/2000/svg">
<path opacity="0.5" d="M810.177 280.474C796.066 272.498 780.28 268.372 763.655 267.685C757.927 231.791 738.507 200.986 705.677 182.558C685.838 171.419 663.206 165.918 639.596 165.781C636.941 148.04 627.302 132.638 611.235 123.561C576.728 104.17 525.456 120.261 496.676 159.73C476.698 186.959 472.787 218.177 483.684 241.281C479.493 246.094 475.441 251.182 471.529 256.408C465.522 264.659 460.213 273.048 455.603 281.575C437.72 281.85 419 288.038 402.375 299.453C368.287 285.425 321.485 301.928 294.382 338.784C274.404 366.014 268.5 395.496 264 420.567C264 420.567 -5.14711 466.68 0.720541 466.68L806.265 457.054C814.088 457.054 821.632 453.616 825.824 447.702C825.824 447.702 825.824 447.702 825.963 447.565C871.507 385.679 864.243 310.867 810.177 280.474Z" fill="#C8C8C8"/>
<path d="M732.64 283.913H323.581V451.553H732.64V283.913Z" fill="#3A9CD7"/>
<path d="M331.963 407.27C337.691 404.795 373.875 387.467 373.875 387.467L438.698 389.117L522.243 358.037L574.353 359.137L629.956 341.26L678.573 347.861L700.647 337.409" stroke="#F65414" stroke-width="3" stroke-miterlimit="10"/>
<path d="M732.919 283.5H701.905C701.066 283.5 700.368 284.188 700.368 285.013V447.565H331.963V284.463C331.963 283.638 331.265 282.95 330.426 282.95H299.412C298.574 282.95 297.875 283.638 297.875 284.463V449.903C297.875 465.168 309.051 477.82 323.721 480.433C326.515 481.12 329.449 481.533 332.382 481.533H701.346H701.485C701.625 481.533 701.625 481.533 701.765 481.533H702.743C703.302 481.533 703.86 481.533 704.559 481.533C721.184 480.57 734.316 467.093 734.316 450.453V285.013C734.316 284.188 733.618 283.5 732.919 283.5Z" fill="#BABABA"/>
<path d="M380.61 392.426C382.852 389.816 382.52 385.911 379.869 383.704C377.217 381.497 373.251 381.824 371.009 384.434C368.767 387.043 369.099 390.948 371.75 393.155C374.401 395.362 378.368 395.035 380.61 392.426Z" fill="#DEDEDE"/>
<path d="M442.621 393.035C444.863 390.425 444.531 386.52 441.879 384.314C439.228 382.107 435.261 382.433 433.02 385.043C430.778 387.653 431.109 391.558 433.761 393.765C436.412 395.972 440.379 395.645 442.621 393.035Z" fill="#DEDEDE"/>
<path d="M578.863 362.622C581.105 360.013 580.773 356.108 578.122 353.901C575.47 351.694 571.503 352.021 569.262 354.631C567.02 357.24 567.351 361.145 570.003 363.352C572.654 365.559 576.621 365.232 578.863 362.622Z" fill="#DEDEDE"/>
<path d="M634.622 345.945C636.864 343.335 636.532 339.43 633.881 337.223C631.23 335.016 627.263 335.343 625.021 337.953C622.779 340.563 623.111 344.467 625.762 346.674C628.414 348.881 632.38 348.554 634.622 345.945Z" fill="#DEDEDE"/>
<path d="M683.136 352.241C685.378 349.631 685.046 345.726 682.395 343.519C679.744 341.312 675.777 341.639 673.535 344.249C671.293 346.859 671.625 350.764 674.276 352.971C676.927 355.177 680.894 354.851 683.136 352.241Z" fill="#DEDEDE"/>
<path d="M668.791 86.7048L716.571 86.9799C725.931 87.1174 734.034 88.0801 740.74 89.7303C747.446 91.3806 753.453 93.856 758.483 97.2941C763.791 101.007 767.703 105.408 770.497 110.634C773.291 115.86 774.689 121.498 774.549 127.687C774.269 134.425 772.593 140.476 769.38 145.977C766.166 151.341 761.416 155.879 754.99 159.317C752.196 160.967 749.262 162.205 746.328 163.03C743.394 163.993 740.181 164.543 736.828 164.955L787.961 222.027L747.865 221.752L704.137 167.431H700.225L699.806 221.477L667.674 221.202L668.791 86.7048Z" fill="#3A9CD7"/>
<path d="M780.443 149.71C810.333 126.302 815.286 83.4753 791.507 54.0526C767.729 24.6299 724.221 19.7534 694.332 43.1608C664.442 66.5681 659.488 109.395 683.267 138.818C707.046 168.241 750.553 173.117 780.443 149.71Z" fill="#3A9CD7"/>
<path d="M773.223 140.776C798.101 121.294 802.224 85.6477 782.432 61.1585C762.641 36.6693 726.429 32.6105 701.551 52.093C676.673 71.5755 672.55 107.222 692.341 131.711C712.133 156.2 748.345 160.259 773.223 140.776Z" fill="#DEDEDE"/>
<path d="M707.567 59.5169C708.473 58.8076 708.623 57.5098 707.903 56.6182C707.182 55.7267 705.864 55.5789 704.958 56.2882C704.052 56.9975 703.902 58.2953 704.623 59.1869C705.343 60.0785 706.662 60.2262 707.567 59.5169Z" fill="#FBBA0E"/>
<path d="M692.706 79.286C693.13 78.226 692.601 77.0282 691.524 76.6108C690.448 76.1934 689.231 76.7143 688.807 77.7743C688.383 78.8343 688.912 80.032 689.989 80.4495C691.066 80.8669 692.282 80.346 692.706 79.286Z" fill="#FBBA0E"/>
<path d="M688.096 105.775C689.241 105.607 690.03 104.557 689.859 103.43C689.688 102.303 688.621 101.527 687.476 101.695C686.332 101.864 685.543 102.914 685.714 104.04C685.885 105.167 686.952 105.944 688.096 105.775Z" fill="#FBBA0E"/>
<path d="M699.427 128.832C700.332 128.122 700.483 126.825 699.762 125.933C699.042 125.042 697.723 124.894 696.818 125.603C695.912 126.312 695.762 127.61 696.482 128.501C697.203 129.393 698.521 129.541 699.427 128.832Z" fill="#FBBA0E"/>
<path d="M721.06 143.095C721.484 142.035 720.955 140.837 719.878 140.42C718.801 140.002 717.585 140.523 717.16 141.583C716.736 142.643 717.265 143.841 718.342 144.258C719.419 144.676 720.636 144.155 721.06 143.095Z" fill="#FBBA0E"/>
<path d="M745.108 147.289C746.253 147.12 747.042 146.07 746.871 144.943C746.7 143.817 745.633 143.04 744.489 143.208C743.344 143.377 742.555 144.427 742.726 145.554C742.897 146.68 743.964 147.457 745.108 147.289Z" fill="#FBBA0E"/>
<path d="M769.908 136.7C770.814 135.99 770.964 134.693 770.244 133.801C769.523 132.91 768.205 132.762 767.299 133.471C766.393 134.18 766.243 135.478 766.964 136.37C767.684 137.261 769.003 137.409 769.908 136.7Z" fill="#FBBA0E"/>
<path d="M785.969 115.404C786.393 114.344 785.864 113.147 784.787 112.729C783.711 112.312 782.494 112.832 782.07 113.892C781.646 114.952 782.175 116.15 783.251 116.568C784.328 116.985 785.545 116.464 785.969 115.404Z" fill="#FBBA0E"/>
<path d="M787.145 91.1898C788.29 91.0213 789.079 89.9712 788.908 88.8444C788.736 87.7177 787.67 86.9408 786.525 87.1093C785.381 87.2778 784.591 88.3279 784.763 89.4547C784.934 90.5814 786 91.3583 787.145 91.1898Z" fill="#FBBA0E"/>
<path d="M777.814 67.4757C778.72 66.7665 778.87 65.4689 778.15 64.5773C777.43 63.6857 776.111 63.5379 775.205 64.247C774.3 64.9562 774.149 66.2539 774.87 67.1455C775.59 68.0371 776.909 68.1849 777.814 67.4757Z" fill="#FBBA0E"/>
<path d="M757.706 51.4596C758.13 50.3996 757.601 49.2017 756.524 48.7842C755.448 48.3666 754.231 48.8874 753.807 49.9475C753.382 51.0075 753.911 52.2053 754.988 52.6229C756.065 53.0404 757.282 52.5196 757.706 51.4596Z" fill="#FBBA0E"/>
<path d="M730.292 49.7899C731.437 49.6214 732.226 48.5713 732.055 47.4445C731.883 46.3178 730.817 45.5409 729.672 45.7094C728.528 45.8779 727.738 46.928 727.91 48.0548C728.081 49.1815 729.147 49.9584 730.292 49.7899Z" fill="#FBBA0E"/>
<path d="M735.552 93.8567L709.292 97.6741L709.945 102.028L736.205 98.2102L735.552 93.8567Z" fill="#3D3D3D"/>
<path d="M751.123 58.4649L735.806 94.6411L738.772 95.8579L754.089 59.6817L751.123 58.4649Z" fill="#3D3D3D"/>
<path d="M743.649 104.183C747.997 100.779 748.717 94.5493 745.259 90.2696C741.8 85.9899 735.472 85.2806 731.124 88.6854C726.776 92.0901 726.056 98.3195 729.515 102.599C732.973 106.879 739.302 107.588 743.649 104.183Z" fill="#3A9CD7"/>
<path d="M803.747 442.064C795.365 424.186 788.379 405.895 784.188 386.642C783.769 384.717 783.629 374.677 781.674 366.976C772.732 365.188 764.071 363.125 755.968 358.862C741.857 351.299 735.571 336.309 741.718 321.594C745.35 312.792 747.306 304.541 743.674 295.189C741.299 289.001 742.975 282.95 749.821 279.512C753.593 277.586 755.269 274.836 754.291 270.573C753.732 268.51 754.571 266.584 755.968 264.934C759.041 261.496 758.902 261.496 755.269 259.296C752.894 257.783 754.71 256.133 755.269 254.482C756.247 251.319 756.107 248.844 751.637 249.532C749.262 249.807 746.049 251.732 744.791 248.707C743.394 245.544 746.328 243.206 748.703 241.28C749.96 240.318 751.357 239.493 752.754 238.667C751.357 227.803 748.424 204.562 748.424 204.562C748.424 204.562 744.791 206.35 739.622 206.487C740.321 209.925 740.879 211.163 740.74 214.601C740.6 228.903 739.203 243.206 739.343 257.508C739.762 258.883 740.74 260.121 740.74 261.771C740.74 263.146 740.46 264.522 740.181 265.759C740.181 266.172 740.041 266.584 740.041 266.86C740.46 269.197 741.019 271.535 741.438 274.286C742.137 275.248 742.835 276.074 743.394 276.899C744.232 277.999 743.115 278.962 741.997 278.824C741.578 278.824 741.299 278.549 741.019 278.274C740.879 277.999 740.6 277.724 740.321 277.449C731.799 270.023 723.975 264.109 720.901 254.207C717.129 242.243 705.953 210.75 706.232 206.487C702.879 204.974 699.527 201.674 696.174 206.487C701.622 217.901 702.181 230.416 704.416 242.656C707.071 256.958 707.071 271.948 717.129 284.05C722.857 290.376 728.585 296.702 734.453 302.753C736.409 304.678 736.409 306.604 735.85 308.942C732.218 324.894 732.497 340.709 737.527 356.387C738.225 358.587 738.225 360.925 737.806 363.126C725.512 425.286 746.887 474.932 753.313 484.696C755.688 484.833 757.924 484.833 760.299 484.971C760.299 481.395 759.74 477.819 759.181 474.244C757.924 467.368 753.174 419.51 755.269 402.457C756.806 391.868 756.946 390.493 758.902 379.078C761.277 385.679 764.35 412.634 785.306 442.751C793.129 454.028 801.093 465.167 811.99 473.831C814.924 474.932 817.299 473.556 819.813 472.456C816.181 461.317 808.637 452.378 803.747 442.064Z" fill="#FBBA0E"/>
<path d="M752.335 238.668C755.968 238.255 759.6 237.705 763.372 238.393C774.409 240.593 776.784 243.481 775.247 254.62C774.549 259.571 776.784 263.559 779.438 267.272C783.49 273.048 787.821 278.687 792.152 284.325C793.688 288.588 793.549 292.852 791.313 296.84C786.144 305.641 790.196 311.967 796.343 318.156C799.835 321.456 803.608 324.482 806.262 328.607C813.946 340.297 812.13 358.45 793.13 366.014C789.218 366.426 785.306 366.839 781.534 367.251C772.593 365.463 763.931 363.401 755.828 359.137C741.718 351.574 735.431 336.584 741.578 321.869C745.21 313.067 747.166 304.816 743.534 295.464C741.159 289.276 742.835 283.225 749.681 279.787C753.453 277.862 755.13 275.111 754.152 270.848C753.593 268.785 754.431 266.86 755.828 265.21C758.902 261.771 758.762 261.771 755.13 259.571C752.755 258.058 754.571 256.408 755.13 254.758C756.107 251.595 755.968 249.119 751.497 249.807C749.122 250.082 745.909 252.007 744.652 248.982C743.255 245.819 746.188 243.481 748.563 241.556C749.541 240.318 751.078 239.63 752.335 238.668Z" fill="#3D3D3D"/>
<path d="M757.225 270.848C758.762 266.86 758.343 262.459 756.806 258.471C756.806 257.646 756.806 256.821 756.806 255.995C756.806 255.17 756.527 254.345 756.107 253.52C756.666 250.907 754.012 247.607 750.938 248.707C746.468 250.219 741.857 253.383 739.063 257.508C739.482 258.883 740.46 260.121 740.6 261.771C740.6 263.147 740.321 264.522 740.041 265.76C739.762 267.685 739.343 270.023 739.902 271.811C740.181 272.498 740.46 273.186 740.879 273.873C741.578 274.561 742.556 274.974 743.534 275.249C745.629 275.799 747.446 275.524 749.122 274.836C749.122 274.836 749.262 274.836 749.402 274.974C749.402 274.974 749.541 274.974 749.541 275.111L749.681 275.249C749.681 275.524 749.681 275.799 749.821 276.074C749.96 277.174 750.519 277.999 751.497 278.687C754.431 280.612 757.784 277.862 757.784 274.698C757.784 273.598 757.504 272.636 757.085 271.673C756.946 271.398 757.085 271.123 757.225 270.848Z" fill="#FFCFB6"/>
<path d="M818.416 479.608C817.997 480.02 817.438 480.57 817.019 480.983C816.041 481.395 815.203 481.945 814.225 482.358C811.85 482.771 809.475 483.321 806.122 484.008C807.799 480.02 811.151 477.545 811.71 473.832C814.644 474.932 817.019 473.556 819.534 472.456C821.909 473.832 821.49 476.032 821.21 478.232C820.372 478.645 819.394 479.195 818.416 479.608Z" fill="#3D3D3D"/>
<path d="M753.034 484.696C755.409 484.833 757.644 484.833 760.019 484.971C762.394 488.271 761.975 490.334 757.365 490.747C752.615 491.022 747.865 492.534 742.276 491.709C745.21 487.996 749.262 486.621 753.034 484.696Z" fill="#3D3D3D"/>
<path d="M739.762 206.9C737.107 204.012 725.931 188.747 739.762 198.236C740.74 198.924 741.019 197.961 741.159 197.411C741.718 196.036 742.137 193.01 742.276 191.497C742.556 189.297 740.6 180.633 744.232 180.908C749.821 192.185 747.585 198.511 748.004 204.424C747.306 206.625 741.159 208 739.762 206.9Z" fill="#FFCFB6"/>
<path d="M705.953 206.35C706.651 202.224 706.931 186.271 701.343 200.711C701.063 201.536 687.232 182.971 688.769 193.56C689.607 199.611 693.938 205.387 696.593 207.587C697.71 208.55 699.806 208.55 701.203 208.412C704.276 208 705.953 206.35 705.953 206.35Z" fill="#FFCFB6"/>
<path d="M423.89 264.109H330.566C314.221 264.109 300.948 251.044 300.948 234.954V44.073C300.948 27.9829 314.221 14.9182 330.566 14.9182H423.89C440.235 14.9182 453.507 27.9829 453.507 44.073V235.092C453.507 251.044 440.235 264.109 423.89 264.109Z" fill="#BABABA"/>
<path d="M423.191 221.89H354.037C349.147 221.89 345.095 217.901 345.095 213.088V211.025C345.095 206.212 349.147 202.224 354.037 202.224H423.191C428.081 202.224 432.132 206.212 432.132 211.025V213.088C432.132 217.901 428.081 221.89 423.191 221.89Z" fill="#DEDEDE"/>
<path d="M423.191 189.847H354.037C349.147 189.847 345.095 185.859 345.095 181.046V178.983C345.095 174.17 349.147 170.181 354.037 170.181H423.191C428.081 170.181 432.132 174.17 432.132 178.983V181.046C432.132 185.859 428.081 189.847 423.191 189.847Z" fill="#DEDEDE"/>
<path d="M423.191 153.403H354.037C349.147 153.403 345.095 149.415 345.095 144.602V142.539C345.095 137.726 349.147 133.738 354.037 133.738H423.191C428.081 133.738 432.132 137.726 432.132 142.539V144.602C432.132 149.415 428.081 153.403 423.191 153.403Z" fill="#DEDEDE"/>
<path d="M422.493 121.361H353.338C348.448 121.361 344.397 117.373 344.397 112.559V110.496C344.397 105.683 348.448 101.695 353.338 101.695H422.493C427.382 101.695 431.434 105.683 431.434 110.496V112.559C431.434 117.51 427.382 121.361 422.493 121.361Z" fill="#DEDEDE"/>
<path d="M422.493 85.0544H353.338C348.448 85.0544 344.397 81.0663 344.397 76.2531V74.1903C344.397 69.377 348.448 65.3889 353.338 65.3889H422.493C427.382 65.3889 431.434 69.377 431.434 74.1903V76.2531C431.434 81.0663 427.382 85.0544 422.493 85.0544Z" fill="#DEDEDE"/>
<path d="M316.735 68.0018L317.294 69.102L325.117 83.5417L338.25 57.4126L324.838 73.2276" fill="#F65414"/>
<path d="M316.735 107.058L317.294 108.021L325.117 122.598L338.25 96.3313L324.838 112.146" fill="#F65414"/>
<path d="M316.735 141.164L317.294 142.126L325.117 156.704L338.25 130.437L324.838 146.252" fill="#F65414"/>
<path d="M316.735 176.92L317.294 177.883L325.117 192.46L338.25 166.193L324.838 182.008" fill="#F65414"/>
<path d="M316.735 207.587L317.294 208.688L325.117 223.127L338.25 196.998L324.838 212.813" fill="#F65414"/>
<path d="M589.441 134.838L589.581 65.8014H609.419V74.7404C611.934 71.3023 615.008 68.6894 618.64 66.6266C622.272 64.5637 626.463 63.6011 631.074 63.6011C635.125 63.6011 639.037 64.4262 642.809 65.8014C646.441 67.3142 649.515 69.377 651.89 71.9899C653.566 74.1903 654.963 76.8032 655.802 79.6912C656.779 82.5792 657.199 86.5673 657.338 91.3806L657.199 134.838H637.36L637.5 97.1565C637.5 93.7185 637.221 90.968 636.522 88.9052C635.824 86.8423 634.985 85.0546 633.728 83.6793C632.471 82.5792 631.213 81.754 629.537 81.0664C628 80.3788 626.324 80.1038 624.368 80.1038C621.713 80.1038 619.338 80.6538 617.243 81.6165C615.147 82.5792 613.471 84.0919 612.213 86.1547C610.956 87.805 610.257 89.7303 609.838 91.6556C609.419 93.5809 609.14 96.1939 609.14 99.4944V134.7L589.441 134.838Z" fill="#3A9CD7"/>
<path d="M551.441 71.9901L551.581 63.0511L570.86 63.3261L569.743 132.363L550.463 132.088L550.603 123.149C547.948 126.862 544.875 129.612 541.382 131.4C537.75 133.188 533.838 134.013 529.368 134.013C519.029 133.875 510.647 130.162 504.221 123.011C497.794 115.86 494.721 107.058 494.86 96.6067C495 86.2925 498.353 77.6285 504.779 70.7524C511.206 63.7387 519.448 60.4381 529.507 60.5757C534.397 60.7132 538.588 61.6758 542.36 63.6012C545.993 65.5265 549.066 68.4145 551.441 71.9901ZM529.088 78.0411C523.64 79.4163 519.728 82.4418 517.213 86.9801C514.698 91.5183 514.14 96.4692 515.397 101.695C516.794 107.196 519.588 111.322 523.919 113.935C528.25 116.685 533.14 117.373 538.588 115.997C543.897 114.622 547.809 111.734 550.323 107.196C552.838 102.658 553.537 97.7069 552.14 92.2059C550.882 86.9801 547.948 82.9919 543.478 80.1039C539.287 77.491 534.397 76.6658 529.088 78.0411Z" fill="#3A9CD7"/>
<path d="M398.882 36.234L425.147 36.0964C431.154 36.0964 435.904 36.6465 439.397 37.7467C442.89 38.8469 446.103 40.6347 448.897 43.2476C451.831 45.9981 454.206 49.4361 455.743 53.2868C457.279 57.1374 458.118 61.4006 458.118 65.8014C458.118 69.927 457.559 73.7777 456.301 77.4908C455.044 81.2039 453.228 84.2294 450.713 86.8423C448.059 89.5928 444.845 91.6556 441.073 93.0309C437.301 94.4061 432.831 95.0937 427.801 95.2312H416.485L416.625 129.887H399.022L398.882 36.234ZM416.625 51.9116L416.765 79.4161H423.89C427.103 79.4161 429.618 79.1411 431.154 78.7285C432.691 78.3159 434.088 77.4908 435.485 76.5281C437.022 75.2904 438.14 73.7777 438.978 71.7148C439.816 69.7895 440.235 67.7267 440.375 65.5263C440.375 63.3259 439.956 61.4006 438.978 59.4753C438 57.55 436.882 56.0372 435.346 54.7995C433.948 53.8369 432.412 53.1493 430.456 52.5992C428.5 52.0491 425.985 51.774 422.912 51.9116H416.625Z" fill="#3A9CD7"/>
<path d="M467.897 32.6584H484.941L485.081 131.125H468.037L467.897 32.6584Z" fill="#3A9CD7"/>
<path d="M598.103 146.115C603.551 149.966 593.213 200.711 590.978 206.075C582.456 218.589 566.669 233.442 560.801 239.355C553.117 245.544 546.272 252.832 538.029 258.333C534.536 260.671 536.492 263.697 537.191 266.447C540.963 279.649 544.735 292.851 549.066 305.779C551.022 311.83 549.485 313.067 543.338 312.655C525.735 311.555 508.132 310.867 490.669 310.042C486.617 309.492 486.617 306.466 486.338 303.303C485.081 287.626 483.963 271.948 482.147 256.408C480.75 244.444 479.911 232.617 482.566 220.79C484.103 213.639 489.132 208 493.463 202.224C496.397 208.275 499.47 214.051 505.198 218.039C500.588 226.153 501.286 227.666 510.507 230.004C513.162 230.691 515.816 231.379 518.75 230.554C523.779 235.367 526.434 230.004 529.926 228.078C540.963 221.477 572.676 200.299 574.632 193.973C577.007 186.409 578.963 178.708 581.059 171.144C583.014 163.993 585.11 156.842 586.786 149.691C587.485 147.078 588.044 144.877 590.978 144.327C593.213 145.565 595.588 145.977 598.103 146.115Z" fill="#FBBA0E"/>
<path d="M505.198 218.039C499.47 214.051 496.257 208.275 493.463 202.224C489.691 191.635 495.279 184.621 502.684 178.158C506.316 177.608 509.809 175.957 513.581 176.37C516.095 176.782 518.61 177.195 520.985 177.745C523.779 178.433 527.97 176.095 529.088 178.983C530.485 182.146 527.272 185.309 525.316 188.059C524.338 189.297 523.22 190.397 522.103 191.635C517.213 193.285 512.323 194.385 510.507 200.436C509.669 203.187 508.97 206.075 511.625 206.9C516.934 208.688 514.838 211.163 513.301 214.051C511.625 217.214 510.088 221.065 505.198 218.039Z" fill="#3D3D3D"/>
<path d="M561.5 129.612C561.5 131.125 561.5 132.637 561.36 134.013C550.184 152.853 539.287 171.831 529.228 191.222C527.831 193.147 526.434 195.073 525.176 196.998C524.198 195.21 524.059 192.872 522.103 191.635C523.221 190.397 524.338 189.297 525.316 188.059C527.272 185.309 530.345 182.146 529.088 178.983C527.831 176.095 523.779 178.295 520.985 177.745C518.471 177.195 515.956 176.782 513.581 176.37C519.029 169.218 524.478 161.93 529.787 154.779C536.632 146.665 543.478 138.551 550.323 130.437C551.72 128.649 552.978 126.724 555.353 126.036C557.169 127.687 559.125 128.924 561.5 129.612Z" fill="#FBBA0E"/>
<path d="M592.794 139.239C594.61 135.801 607.184 121.498 602.015 137.176C601.735 138.001 606.206 136.763 608.441 136.213C610.676 135.663 618.22 130.987 619.198 134.425C610.397 143.502 602.294 141.301 598.103 145.977C595.588 145.977 593.213 145.427 590.978 144.189C591.537 142.677 592.235 140.889 592.794 139.239Z" fill="#FFCFB6"/>
<path d="M561.5 129.612C559.125 129.062 557.169 127.824 555.492 126.036C559.125 120.535 555.213 112.146 561.919 104.033C562.757 103.07 564.434 103.758 564.294 104.995C563.316 114.347 563.456 118.06 565.272 123.011C565.971 124.661 564.573 128.374 561.5 129.612Z" fill="#FFCFB6"/>
<path d="M522.242 191.635C524.198 192.872 524.338 195.21 525.316 196.998C525.735 202.637 526.573 208.275 526.573 213.914C526.573 217.214 526.434 222.302 522.801 222.577C515.397 222.99 517.492 226.703 518.61 230.554C515.816 231.379 513.162 230.691 510.367 230.004C501.147 227.666 500.448 226.153 505.059 218.039C509.948 221.065 511.625 217.214 513.441 214.051C514.978 211.301 517.073 208.688 511.765 206.9C509.11 206.075 509.948 203.187 510.647 200.436C512.463 194.385 517.492 193.285 522.242 191.635Z" fill="#FFCFB6"/>
<path d="M567.368 386.229C567.368 386.092 553.257 327.232 550.463 315.405C550.323 314.855 549.485 312.105 549.346 311.83C546.272 313.067 540.684 312.38 535.934 311.83C530.346 311.279 524.757 311.417 519.169 311.279C514.698 311.142 510.507 310.867 506.176 310.317C501.147 310.317 496.118 310.042 491.088 310.042C495 337.684 500.868 365.326 507.993 392.418C508.272 393.243 510.088 399.707 510.647 402.32C512.463 414.972 515.537 429.136 515.537 429.687C515.816 432.162 516.235 434.5 516.654 436.975C516.794 437.113 516.654 450.59 520.846 452.515C522.522 453.203 531.323 451.69 535.375 451.415C536.353 451.278 542.919 450.865 543.757 450.728C538.728 447.977 535.654 445.502 534.537 443.714C533 441.101 532.441 413.734 531.743 409.608C531.184 405.895 530.485 402.045 530.206 398.331C529.787 390.493 530.485 368.902 530.346 367.939C530.346 365.601 530.485 363.263 530.346 360.788C530.485 354.599 530.485 348.411 530.346 342.36C530.485 343.46 546.831 392.005 546.412 395.443C546.272 396.269 546.132 397.094 545.713 397.781C544.875 404.107 535.515 422.123 535.096 425.148C535.096 426.249 537.191 428.586 537.331 428.861C538.728 430.374 539.985 431.887 541.662 433.262C542.36 434.087 543.897 435.738 544.037 435.875C546.132 437.938 547.949 440.001 550.324 441.789C552 436.975 547.529 433.537 547.948 430.374C548.228 428.311 551.162 428.174 553.257 425.561C555.632 422.673 563.176 408.921 564.713 405.345C565.831 402.32 566.809 399.432 567.647 396.681C568.765 393.243 568.485 389.942 567.368 386.229Z" fill="#3D3D3D"/>
<path d="M556.188 16.0181C559.506 16.0181 562.196 13.3705 562.196 10.1046C562.196 6.8387 559.506 4.19116 556.188 4.19116C552.871 4.19116 550.181 6.8387 550.181 10.1046C550.181 13.3705 552.871 16.0181 556.188 16.0181Z" fill="#3A9CD7"/>
<path d="M593.49 16.0181C596.808 16.0181 599.497 13.3705 599.497 10.1046C599.497 6.8387 596.808 4.19116 593.49 4.19116C590.172 4.19116 587.482 6.8387 587.482 10.1046C587.482 13.3705 590.172 16.0181 593.49 16.0181Z" fill="#3A9CD7"/>
<path d="M628.137 16.0181C631.455 16.0181 634.144 13.3705 634.144 10.1046C634.144 6.8387 631.455 4.19116 628.137 4.19116C624.819 4.19116 622.13 6.8387 622.13 10.1046C622.13 13.3705 624.819 16.0181 628.137 16.0181Z" fill="#3A9CD7"/>
</svg>
