<svg width="19" height="19" viewBox="0 0 19 19" fill="none" xmlns="http://www.w3.org/2000/svg">
<path d="M5.42322 5.40268L5.42239 5.40268C5.39203 5.40253 5.36196 5.40844 5.33392 5.42006C5.30588 5.43168 5.28044 5.44878 5.25909 5.47036L5.25867 5.47078L5.25867 5.47078L5.02 5.70917C5.01999 5.70919 5.01997 5.7092 5.01996 5.70921C4.42876 6.30045 4.24293 7.27402 4.53216 8.47215L4.53217 8.47216C4.83789 9.73944 5.62708 11.0628 6.75905 12.1945C7.89101 13.3262 9.21413 14.1146 10.4818 14.4214C11.6802 14.7106 12.6532 14.5248 13.2444 13.9336L13.4828 13.6952C13.4828 13.6952 13.4828 13.6951 13.4828 13.6951C13.5264 13.6515 13.5508 13.5924 13.5508 13.5308C13.5508 13.4692 13.5264 13.4101 13.4828 13.3665C13.4828 13.3665 13.4828 13.3665 13.4828 13.3665L12.1132 11.9966C12.0696 11.9531 12.0105 11.9286 11.9489 11.9286C11.8872 11.9286 11.8281 11.9531 11.7845 11.9966L10.7589 13.0222C10.7589 13.0222 10.7589 13.0223 10.7589 13.0223C10.6824 13.0988 10.5834 13.1491 10.4764 13.1657C10.3694 13.1823 10.2599 13.1645 10.1638 13.1148C10.1637 13.1148 10.1637 13.1147 10.1637 13.1147L10.2097 13.0259L5.42322 5.40268ZM5.42322 5.40268C5.45367 5.40258 5.48384 5.40852 5.51197 5.42017C5.54011 5.43182 5.56565 5.44894 5.58712 5.47053L5.58732 5.47073M5.42322 5.40268L5.58732 5.47073M5.58732 5.47073L6.95722 6.8409C6.95723 6.84091 6.95724 6.84092 6.95724 6.84092C7.00079 6.88452 7.02526 6.94362 7.02526 7.00524C7.02526 7.06687 7.00079 7.12598 6.95722 7.16958L5.58732 5.47073ZM11.5337 15.5762H11.5345C12.5131 15.5762 13.3551 15.2665 13.9658 14.6546L14.2045 14.4163L14.2045 14.4162C14.4393 14.1813 14.5713 13.8627 14.5713 13.5306C14.5713 13.1984 14.4393 12.8798 14.2045 12.6449L14.2045 12.6449L12.8346 11.275C12.8346 11.2749 12.8346 11.2749 12.8346 11.2749C12.7183 11.1586 12.5802 11.0663 12.4282 11.0033C12.2762 10.9403 12.1133 10.9079 11.9487 10.9079C11.7842 10.9079 11.6213 10.9403 11.4693 11.0033C11.3173 11.0663 11.1792 11.1586 11.0629 11.275L10.308 12.0301C9.65793 11.6507 9.00688 11.1425 8.40899 10.5446C7.81107 9.94668 7.30307 9.29613 6.92376 8.64582L7.6789 7.89094L7.67894 7.89089C7.91371 7.65588 8.04558 7.33729 8.04558 7.0051C8.04558 6.67292 7.91371 6.35433 7.67894 6.11931L7.6789 6.11927L6.3087 4.74935L6.30864 4.74928C6.07356 4.51467 5.75501 4.38291 5.42288 4.38291C5.09076 4.38291 4.77221 4.51467 4.53713 4.74928L4.53706 4.74935L4.29862 4.98779C3.4313 5.85511 3.17199 7.18414 3.5415 8.7127C3.89251 10.1661 4.78204 11.6583 6.03874 12.9161C7.29543 14.1739 8.78728 15.0623 10.2419 15.4134C10.6646 15.5183 11.0982 15.573 11.5337 15.5762Z" fill="white" stroke="white" stroke-width="0.2"/>
<path d="M12.533 9.84793C12.4242 9.84793 12.3199 9.80472 12.2429 9.7278C12.166 9.65088 12.1228 9.54656 12.1228 9.43778C12.122 8.71823 11.8358 8.02838 11.3271 7.51956C10.8183 7.01074 10.1285 6.7245 9.40894 6.72363C9.30016 6.72363 9.19583 6.68042 9.11891 6.6035C9.04199 6.52658 8.99878 6.42226 8.99878 6.31348C8.99878 6.2047 9.04199 6.10037 9.11891 6.02345C9.19583 5.94653 9.30016 5.90332 9.40894 5.90332C11.3577 5.90332 12.9431 7.48926 12.9431 9.43778C12.9431 9.54656 12.8999 9.65088 12.823 9.7278C12.7461 9.80472 12.6417 9.84793 12.533 9.84793Z" fill="white" stroke="white" stroke-width="0.2"/>
<path d="M14.2666 9.84813C14.1578 9.84813 14.0534 9.80491 13.9765 9.72799C13.8996 9.65107 13.8564 9.54675 13.8564 9.43797C13.8564 6.98551 11.8603 4.99023 9.40894 4.99023C9.30016 4.99023 9.19583 4.94702 9.11891 4.8701C9.04199 4.79318 8.99878 4.68886 8.99878 4.58008C8.99878 4.4713 9.04199 4.36697 9.11891 4.29005C9.19583 4.21313 9.30016 4.16992 9.40894 4.16992C12.3137 4.16992 14.6767 6.53324 14.6767 9.43797C14.6767 9.54675 14.6335 9.65107 14.5566 9.72799C14.4797 9.80491 14.3753 9.84813 14.2666 9.84813Z" fill="white" stroke="white" stroke-width="0.2"/>
<path d="M9.49889 1C7.98219 1.0002 6.49316 1.4062 5.18629 2.17592C3.87942 2.94563 2.80232 4.05102 2.06669 5.37738C1.33107 6.70374 0.96375 8.20277 1.00282 9.71896C1.04189 11.2352 1.48594 12.7133 2.28889 14C1.94889 15.18 1.34888 17.4 1.33888 17.43C1.32432 17.4863 1.32489 17.5454 1.34053 17.6014C1.35616 17.6574 1.38632 17.7083 1.42793 17.7489C1.46954 17.7895 1.52114 17.8183 1.5775 17.8326C1.63386 17.8468 1.69298 17.8459 1.74888 17.83L5.11888 16.83C6.24184 17.5033 7.50516 17.9081 8.81032 18.0128C10.1155 18.1175 11.4272 17.9192 12.6431 17.4335C13.859 16.9478 14.9463 16.1877 15.8201 15.2126C16.6939 14.2375 17.3306 13.0737 17.6806 11.812C18.0306 10.5503 18.0844 9.22483 17.8378 7.93892C17.5911 6.65301 17.0508 5.44146 16.2588 4.39877C15.4668 3.35609 14.4447 2.51046 13.2721 1.92784C12.0996 1.34523 10.8082 1.04138 9.49889 1.03999V1ZM9.49889 17.35C8.02797 17.3519 6.58625 16.9395 5.33888 16.16C5.28313 16.1456 5.22465 16.1456 5.1689 16.16H5.06889L2.12889 17.06C2.34889 16.27 2.72888 14.86 2.95888 14.06C2.97791 14.0175 2.98778 13.9715 2.98778 13.925C2.98778 13.8785 2.97791 13.8325 2.95888 13.79C2.00932 12.3252 1.57513 10.5856 1.72493 8.84637C1.87473 7.10714 2.59998 5.46745 3.78602 4.18655C4.97207 2.90566 6.55124 2.05665 8.27385 1.77376C9.99645 1.49086 11.7642 1.79024 13.2976 2.62453C14.831 3.45882 16.0426 4.78042 16.7408 6.3804C17.4389 7.98038 17.5839 9.76743 17.1527 11.459C16.7215 13.1506 15.7388 14.6502 14.3599 15.7207C12.981 16.7912 11.2846 17.3716 9.53889 17.37L9.49889 17.35Z" fill="white" stroke="white" stroke-width="0.5"/>
</svg>
